<?xml version="1.0" standalone="no"?>
<!DOCTYPE svg PUBLIC "-//W3C//DTD SVG 1.1//EN" "http://www.w3.org/Graphics/SVG/1.1/DTD/svg11.dtd" >
<svg>
<metadata>
Created by FontForge 20090622 at Wed Jun 27 05:49:13 2018
 By deploy user
Copyright 2014 Dalton Maag Ltd. Modification of this file requires prior written permission from Dalton Maag Ltd.
</metadata>
<defs>
<font id="PrometoW04-Regular" horiz-adv-x="378" >
  <font-face 
    font-family="PrometoW04-Regular"
    font-weight="400"
    font-stretch="normal"
    units-per-em="1000"
    panose-1="2 11 6 4 3 2 3 6 2 3"
    ascent="800"
    descent="-200"
    x-height="517"
    cap-height="712"
    bbox="-195 -235 1310 966"
    underline-thickness="93"
    underline-position="-54"
    unicode-range="U+0008-U+FB04"
  />
<missing-glyph horiz-adv-x="500" 
d="M50 0v750h400v-750h-400zM400 50v650h-300v-650h300z" />
    <glyph glyph-name="uniF603" unicode="ft" horiz-adv-x="689" 
d="M301 658q-43 0 -70 -5t-42 -20.5t-20.5 -43t-5.5 -72.5h161l-18 -87h-143v-430h-105v512q0 64 11.5 108t38 72t70.5 40.5t109 12.5q25 0 49 -0.5t37 -1.5l-18 -87q-14 1 -26 1.5t-28 0.5zM374 610l105 19v-112h190l-18 -87h-172v-240q0 -33 3.5 -54t13.5 -32t28.5 -15
t47.5 -4h91l-18 -85h-72q-60 0 -98.5 9t-61 30.5t-31 57.5t-8.5 90v423z" />
    <glyph glyph-name="uniFB00" unicode="ff" horiz-adv-x="679" 
d="M629 658q-43 0 -70 -5t-42 -20.5t-20.5 -43t-5.5 -72.5h175l-18 -87h-157v-430h-105v512q0 64 11.5 108t38 72t70.5 40.5t109 12.5q15 0 42.5 -0.5t51.5 -1.5l-18 -87q-15 1 -28.5 1.5t-33.5 0.5zM301 658q-43 0 -70 -5t-42 -20.5t-20.5 -43t-5.5 -72.5h173l-18 -87h-155
v-430h-105v512q0 64 11.5 108t38 72t70.5 40.5t109 12.5q34 0 52 -0.5t34 -1.5l-18 -87q-14 1 -26 1.5t-28 0.5z" />
    <glyph glyph-name="uniFB01" unicode="fi" horiz-adv-x="535" 
d="M299 658q-42 0 -68.5 -5.5t-41.5 -20.5t-20.5 -42.5t-5.5 -72.5h159l-18 -87h-141v-430h-105v512q0 63 12.5 107.5t41 72t74.5 40.5t113 13h37h31t35.5 -0.5t49.5 -1.5l-18 -87q-14 0 -31.5 0.5l-35.5 1t-35.5 0.5h-32.5zM477 517v-517h-105v517h105z" />
    <glyph glyph-name="uniFB02" unicode="fl" horiz-adv-x="573" 
d="M287 745q22 0 40.5 -0.5t32.5 -1.5l-18 -87q-11 1 -23.5 1.5t-17.5 0.5q-43 0 -70 -5t-42 -20.5t-20.5 -43t-5.5 -72.5h161l-18 -87h-143v-430h-105v512q0 64 11.5 108t38 72t70.5 40.5t109 12.5zM410 743h105v-743h-105v743z" />
    <glyph glyph-name="uniFB03" unicode="ffi" horiz-adv-x="865" 
d="M627 658q-42 0 -68.5 -5.5t-41.5 -20.5t-20.5 -42.5t-5.5 -72.5h161l-18 -87h-143v-430h-105v512q0 63 12.5 107.5t41 72t74.5 40.5t113 13h37h31t35.5 -0.5t49.5 -1.5l-18 -87q-14 0 -31.5 0.5l-35.5 1t-35.5 0.5h-32.5zM807 517v-517h-105v517h105zM301 658
q-43 0 -70 -5t-42 -20.5t-20.5 -43t-5.5 -72.5h173l-18 -87h-155v-430h-105v512q0 64 11.5 108t38 72t70.5 40.5t109 12.5q34 0 52 -0.5t34 -1.5l-18 -87q-14 1 -26 1.5t-28 0.5z" />
    <glyph glyph-name="uniFB04" unicode="ffl" horiz-adv-x="903" 
d="M301 658q-43 0 -70 -5t-42 -20.5t-20.5 -43t-5.5 -72.5h173l-18 -87h-155v-430h-105v512q0 64 11.5 108t38 72t70.5 40.5t109 12.5q18 0 43 -0.5t43 -1.5l-18 -87q-14 1 -28 1.5t-26 0.5zM615 745q22 0 40.5 -0.5t32.5 -1.5l-18 -87q-11 1 -21.5 1.5t-19.5 0.5
q-43 0 -70 -5t-42 -20.5t-20.5 -43t-5.5 -72.5h161l-18 -87h-143v-430h-105v512q0 64 11.5 108t38 72t70.5 40.5t109 12.5zM740 743h105v-743h-105v743z" />
    <glyph glyph-name="f_f_t.liga" unicode="fft" horiz-adv-x="1017" 
d="M301 658q-43 0 -70 -5t-42 -20.5t-20.5 -43t-5.5 -72.5h173l-18 -87h-155v-430h-105v512q0 64 11.5 108t38 72t70.5 40.5t109 12.5q22 0 47 -0.5t39 -1.5l-18 -87q-11 1 -27 1.5t-27 0.5zM629 658q-43 0 -70 -5t-42 -20.5t-20.5 -43t-5.5 -72.5h161l-18 -87h-143v-430
h-105v512q0 64 11.5 108t38 72t70.5 40.5t109 12.5q19 0 44.5 -0.5t41.5 -1.5l-18 -87q-14 1 -28.5 1.5t-25.5 0.5zM702 610l105 19v-112h190l-18 -87h-172v-240q0 -33 3.5 -54t13.5 -32t28.5 -15t47.5 -4h91l-18 -85h-72q-60 0 -98.5 9t-61 30.5t-31 57.5t-8.5 90v423z" />
    <glyph glyph-name=".notdef" horiz-adv-x="500" 
d="M50 0v750h400v-750h-400zM400 50v650h-300v-650h300z" />
    <glyph glyph-name=".null" horiz-adv-x="0" 
 />
    <glyph glyph-name="nonmarkingreturn" horiz-adv-x="333" 
 />
    <glyph glyph-name="uni0008" horiz-adv-x="0" 
 />
    <glyph glyph-name="uni0008" horiz-adv-x="0" 
 />
    <glyph glyph-name="uni0008" horiz-adv-x="0" 
 />
    <glyph glyph-name="uni0009" unicode="&#x9;" horiz-adv-x="250" 
 />
    <glyph glyph-name="uni0009" unicode="&#xd;" horiz-adv-x="250" 
 />
    <glyph glyph-name="space" unicode=" " horiz-adv-x="250" 
 />
    <glyph glyph-name="exclam" unicode="!" horiz-adv-x="236" 
d="M66 403q-2 22 -2 43v46v220h108v-220v-46t-2 -43l-11 -203h-81zM186 61q0 -35 -16 -51.5t-52 -16.5t-52 16.5t-16 51.5t16 51.5t52 16.5t52 -16.5t16 -51.5z" />
    <glyph glyph-name="quotedbl" unicode="&#x22;" horiz-adv-x="356" 
d="M42 487l-9 121q-1 14 -2 29.5t-1 35.5v70h108v-70q0 -20 -1 -35l-2 -30l-9 -121h-84zM230 487l-9 121q-1 14 -2 29.5t-1 35.5v70h108v-70q0 -20 -1 -35l-2 -30l-9 -121h-84z" />
    <glyph glyph-name="numbersign" unicode="#" horiz-adv-x="670" 
d="M389 170h-162l-25 -170h-95l25 170h-97l18 83h91l25 174h-96l18 83h91l25 170h95l-25 -170h162l25 170h95l-25 -170h101l-18 -83h-96l-25 -174h101l-18 -83h-95l-25 -170h-95zM239 253h162l25 174h-162z" />
    <glyph glyph-name="dollar" unicode="$" horiz-adv-x="595" 
d="M247 -96v96q-54 0 -108 0.5t-88 1.5l17 87q41 -2 83.5 -2h95.5v219l-31 6q-32 6 -61.5 17.5t-52.5 31.5t-37 49.5t-14 70.5v24q0 71 47 118t149 57v80h80v-78h44h42t43 -0.5t48 -1.5l-17 -87q-41 1 -77.5 1.5t-82.5 0.5v-207l29 -5q94 -18 133 -61t39 -119v-19
q0 -85 -53.5 -129.5t-147.5 -52.5v-98h-80zM424 188q0 26 -4 43.5t-15 29.5t-30 19.5t-48 12.5v-204q55 5 76 28.5t21 70.5zM152 500q0 -41 23.5 -64t71.5 -32v189q-30 -3 -48.5 -10.5t-29 -19.5t-14 -28t-3.5 -35z" />
    <glyph glyph-name="percent" unicode="%" horiz-adv-x="930" 
d="M631 680h94l-420 -680h-94zM730 65q28 0 44.5 6t24.5 20t10.5 38t2.5 60v14q0 36 -2.5 60t-10.5 38t-24.5 20t-44.5 6t-44.5 -6t-24.5 -20t-10.5 -38t-2.5 -60v-14q0 -36 2.5 -60t10.5 -38t24.5 -20t44.5 -6zM730 -9q-55 0 -88.5 13t-52 37.5t-24.5 59t-6 77.5v36
q0 43 6 77.5t24.5 59t52 37.5t88.5 13t88.5 -13t52 -37.5t24.5 -59t6 -77.5v-36q0 -43 -6 -77.5t-24.5 -59t-52 -37.5t-88.5 -13zM200 353q28 0 44.5 6t24.5 20t10.5 38t2.5 60v14q0 36 -2.5 60t-10.5 38t-24.5 20t-44.5 6t-44.5 -6t-24.5 -20t-10.5 -38t-2.5 -60v-14
q0 -36 2.5 -60t10.5 -38t24.5 -20t44.5 -6zM200 279q-55 0 -88.5 13t-52 37.5t-24.5 59t-6 77.5v36q0 43 6 77.5t24.5 59t52 37.5t88.5 13t88.5 -13t52 -37.5t24.5 -59t6 -77.5v-36q0 -43 -6 -77.5t-24.5 -59t-52 -37.5t-88.5 -13z" />
    <glyph glyph-name="ampersand" unicode="&#x26;" horiz-adv-x="632" 
d="M146 195q0 -52 24.5 -80.5t78.5 -28.5h190v248h-180q-60 0 -86.5 -31t-26.5 -85v-23zM270 0q-118 0 -174 49t-56 140v28q0 61 24.5 101.5t78.5 57.5q-43 20 -65 56.5t-22 96.5v16q0 76 49.5 123t149.5 47q54 0 106.5 -0.5t106.5 -1.5l-17 -88q-32 1 -84.5 1.5t-110.5 0.5
q-54 0 -75.5 -24.5t-21.5 -73.5v-20q0 -42 25 -65.5t79 -23.5h354l-17 -86h-59v-248q0 -40 -15.5 -63t-48.5 -23h-207z" />
    <glyph glyph-name="quotesingle" unicode="'" horiz-adv-x="168" 
d="M42 487l-9 121q-1 14 -2 29.5t-1 35.5v70h108v-70q0 -20 -1 -35l-2 -30l-9 -121h-84z" />
    <glyph glyph-name="parenleft" unicode="(" horiz-adv-x="356" 
d="M320 -175h-18q-67 0 -112.5 13t-73 50.5t-39.5 105.5t-12 177v195q0 109 12 177t39.5 105.5t73 50.5t112.5 13h36l-18 -88h-15q-45 0 -73 -7.5t-43 -33.5t-20.5 -77.5t-5.5 -139.5v-195q0 -88 5.5 -139.5t20.5 -77.5t43 -33.5t73 -7.5h33z" />
    <glyph glyph-name="parenright" unicode=")" horiz-adv-x="356" 
d="M36 712h18q67 0 112.5 -13t73 -50.5t39.5 -105.5t12 -177v-195q0 -109 -12 -177t-39.5 -105.5t-73 -50.5t-112.5 -13h-36l18 88h15q45 0 73 7.5t43 33.5t20.5 77.5t5.5 139.5v195q0 88 -5.5 139.5t-20.5 77.5t-43 33.5t-73 7.5h-33z" />
    <glyph glyph-name="asterisk" unicode="*" horiz-adv-x="430" 
d="M216 464l-78 -112l-67 49l82 106l-128 38l26 81l125 -48l-5 134h89l-5 -134l124 48l26 -81l-128 -37l82 -107l-68 -49z" />
    <glyph glyph-name="plus" unicode="+" horiz-adv-x="595" 
d="M346 384h167v-87h-167v-179h-97v179h-168v87h168v179h97v-179z" />
    <glyph glyph-name="comma" unicode="," horiz-adv-x="208" 
d="M79 -164h-68l59 168q-17 8 -26.5 23t-9.5 38q0 31 16.5 49t53.5 18q33 0 51.5 -18t18.5 -50q0 -24 -8 -48t-28 -62z" />
    <glyph glyph-name="hyphen" unicode="-" horiz-adv-x="338" 
d="M20 240l19 94h279l-19 -94h-279z" />
    <glyph glyph-name="period" unicode="." horiz-adv-x="208" 
d="M173 62q0 -35 -16.5 -52t-52.5 -17t-52.5 17t-16.5 52t16.5 52t52.5 17t52.5 -17t16.5 -52z" />
    <glyph glyph-name="slash" unicode="/" horiz-adv-x="401" 
d="M381 712l-255 -712h-106l255 712h106z" />
    <glyph glyph-name="zero" unicode="0" horiz-adv-x="605" 
d="M302 72q44 0 72.5 9t44.5 34t22 70t6 116v77q0 72 -6 117t-22 70t-44.5 34t-72.5 9t-72 -9t-44 -34t-22 -70t-6 -117v-77q0 -71 6 -116t22 -70t44 -34t72 -9zM302 696q81 0 131 -21t77.5 -60.5t37 -97t9.5 -129.5v-96q0 -72 -9.5 -129t-37 -97t-77.5 -61t-131 -21
t-130.5 21t-77 61t-37 97t-9.5 129v96q0 72 9.5 129.5t37 97t77 60.5t130.5 21z" />
    <glyph glyph-name="one" unicode="1" horiz-adv-x="467" 
d="M405 0h-351l17 84h114v512h-135l17 84h225v-596h130z" />
    <glyph glyph-name="two" unicode="2" horiz-adv-x="530" 
d="M219 255q-24 -10 -38.5 -20t-22.5 -24.5t-11 -35.5t-3 -53v-32h335l-16 -90h-426v103q0 51 8 89.5t26 67t46.5 49.5t70.5 38l117 49q19 8 32.5 16.5t21 19.5t11 26.5t3.5 38.5q0 54 -21.5 74.5t-79.5 20.5q-55 0 -110.5 -0.5t-107.5 -1.5l14 90q55 1 108.5 1.5t91.5 0.5
q58 0 98.5 -11.5t65.5 -34t36.5 -54.5t11.5 -74v-13q0 -69 -30 -113t-95 -70z" />
    <glyph glyph-name="three" unicode="3" horiz-adv-x="532" 
d="M56 680q49 1 103.5 1.5t108.5 0.5q50 0 87.5 -12.5t62.5 -34.5t37.5 -52t12.5 -66v-20q0 -64 -23.5 -95t-68.5 -47q55 -14 81.5 -49.5t26.5 -98.5v-29q0 -84 -56.5 -132t-174.5 -48q-58 0 -118.5 0.5t-108.5 1.5l17 90q19 0 46.5 -0.5t58 -0.5t63 -0.5t61.5 -0.5
q52 0 77 22.5t25 70.5v24q0 54 -26 76.5t-86 22.5h-187l17 90h173q46 0 71 20t25 62v24q0 49 -22.5 70.5t-73.5 21.5h-115.5t-110.5 -2z" />
    <glyph glyph-name="four" unicode="4" horiz-adv-x="572" 
d="M533 136h-65v-136h-103v136h-331v79l273 465h106l-269 -458h221v220l103 19v-239h83z" />
    <glyph glyph-name="five" unicode="5" horiz-adv-x="532" 
d="M483 199q0 -53 -12.5 -91t-41.5 -62.5t-76 -36t-116 -11.5q-56 0 -109 0.5t-85 1.5l17 91q26 -1 48 -1.5l42.5 -1t41.5 -0.5h45q40 0 66.5 5t42 18t22 35.5t6.5 57.5v19q0 36 -6 58t-21.5 34.5t-42 16.5t-67.5 4h-178v344h397l-17 -90h-281v-168h95q64 0 108 -10t71 -33
t39 -61t12 -95v-24z" />
    <glyph glyph-name="six" unicode="6" horiz-adv-x="550" 
d="M149 404q23 20 57.5 31.5t87.5 11.5q57 0 98 -12t67.5 -38t39 -68.5t12.5 -102.5v-21q0 -108 -54.5 -164.5t-178.5 -56.5q-64 0 -108.5 14t-72 45t-39.5 80.5t-12 121.5v156q0 58 8.5 109t33.5 89t71 60.5t120 22.5q52 0 95 -0.5t93 -1.5l-17 -90q-30 1 -53 1.5t-43 0.5
h-39h-41q-42 0 -66.5 -13t-37.5 -35t-17 -50t-4 -59v-31zM278 67q36 0 60.5 6.5t39.5 23t21.5 44t6.5 70.5v9q0 44 -6 72t-19.5 44t-36 22t-55.5 6q-38 0 -65 -5.5t-43.5 -21.5t-24 -44t-7.5 -74v-9q0 -42 7.5 -69.5t23 -44t40 -23t58.5 -6.5z" />
    <glyph glyph-name="seven" unicode="7" horiz-adv-x="528" 
d="M133 0l230 590h-346l18 90h439v-84l-227 -596h-114z" />
    <glyph glyph-name="eight" unicode="8" horiz-adv-x="571" 
d="M288 696q122 0 174.5 -43.5t52.5 -135.5v-15q0 -51 -23 -88t-66 -57q54 -19 78.5 -58t24.5 -96v-28q0 -102 -59 -146.5t-182 -44.5t-182 44.5t-59 146.5v28q0 57 24.5 96t78.5 58q-43 20 -66 57t-23 88v15q0 93 53 136t174 43zM288 316q-41 0 -67 -7t-41 -22t-21 -38
t-6 -55v-6q0 -32 5.5 -55t20.5 -37.5t41.5 -21.5t67.5 -7t67.5 7t41.5 21.5t20.5 37.5t5.5 55v6q0 32 -6 55t-21 38t-41 22t-67 7zM289 618q-70 0 -98.5 -22.5t-28.5 -78.5v-15q0 -31 6 -51.5t20.5 -32.5t39 -17t60.5 -5t60.5 5t39 17t20.5 32.5t6 51.5v15q0 55 -26.5 78
t-98.5 23z" />
    <glyph glyph-name="nine" unicode="9" horiz-adv-x="550" 
d="M402 275q-47 -42 -145 -42q-57 0 -98 12t-67.5 38t-39 68.5t-12.5 102.5v21q0 112 54.5 166.5t178.5 54.5q64 0 108 -14t71.5 -44.5t40 -80.5t12.5 -122v-156q0 -58 -8.5 -109t-33.5 -89.5t-71 -60.5t-120 -22q-54 0 -104.5 0.5t-83.5 1.5l17 90q30 -1 53.5 -1.5
t43.5 -0.5h38.5h40.5q42 0 66.5 13t37.5 34.5t17 50t4 59.5v30zM273 613q-36 0 -60.5 -6.5t-39.5 -23t-21.5 -44t-6.5 -70.5v-9q0 -44 6 -72t19.5 -44t36 -22t55.5 -6q38 0 65 5.5t43.5 21t24 44t7.5 74.5v9q0 42 -7.5 69.5t-23 44t-40 23t-58.5 6.5z" />
    <glyph glyph-name="colon" unicode=":" horiz-adv-x="208" 
d="M173 62q0 -35 -16.5 -52t-52.5 -17t-52.5 17t-16.5 52t16.5 52t52.5 17t52.5 -17t16.5 -52zM173 455q0 -35 -16.5 -52t-52.5 -17t-52.5 17t-16.5 52t16.5 52t52.5 17t52.5 -17t16.5 -52z" />
    <glyph glyph-name="semicolon" unicode=";" horiz-adv-x="208" 
d="M79 -164h-68l59 168q-17 8 -26.5 23t-9.5 38q0 31 16.5 49t53.5 18q33 0 51.5 -18t18.5 -50q0 -24 -8 -48t-28 -62zM173 455q0 -35 -16.5 -52t-52.5 -17t-52.5 17t-16.5 52t16.5 52t52.5 17t52.5 -17t16.5 -52z" />
    <glyph glyph-name="less" unicode="&#x3c;" horiz-adv-x="595" 
d="M81 384l432 177v-91l-323 -129l323 -125v-96l-432 177v87z" />
    <glyph glyph-name="equal" unicode="=" horiz-adv-x="595" 
d="M81 481h432v-87h-432v87zM81 287h432v-87h-432v87z" />
    <glyph glyph-name="greater" unicode="&#x3e;" horiz-adv-x="595" 
d="M513 297l-432 -177v96l323 125l-323 129v91l432 -177v-87z" />
    <glyph glyph-name="question" unicode="?" horiz-adv-x="459" 
d="M255 416q19 9 31 18t19.5 20.5t10.5 27t3 37.5q0 28 -4 48t-15.5 33t-31.5 19.5t-51 6.5q-40 0 -91.5 -0.5t-115.5 -1.5l14 87q60 1 107 1.5t82 0.5q111 0 161 -42.5t50 -129.5v-26q0 -35 -7 -61t-21 -45.5t-35.5 -34.5t-49.5 -28l-50 -23q-18 -8 -28.5 -16t-16 -18.5
t-7.5 -25.5t-2 -39v-27h-103v27q0 37 6.5 64t19.5 46t32 33t45 26zM223 61q0 -35 -16 -51.5t-52 -16.5t-52 16.5t-16 51.5t16 51.5t52 16.5t52 -16.5t16 -51.5z" />
    <glyph glyph-name="at" unicode="@" horiz-adv-x="722" 
d="M672 100q0 -45 -20 -64t-78 -19h-137q-44 0 -79 8t-59 26t-36.5 47t-12.5 71v25q0 83 48.5 119t138.5 36q48 0 81.5 -8.5t53.5 -20.5v18q0 42 -10 68.5t-32.5 42.5t-57.5 22t-84 6q-72 0 -119 -11.5t-74 -37t-37.5 -66.5t-10.5 -101v-150q0 -69 12 -114.5t45.5 -72
t92.5 -37t153 -10.5h35t43 0.5l43 1t36 1.5l-17 -86q-16 -1 -35.5 -2t-39 -1.5t-37.5 -0.5h-31q-117 0 -193.5 15.5t-121.5 53t-63.5 99t-18.5 153.5v150q0 79 18.5 136t58.5 94t104 54.5t156 17.5q146 0 215.5 -52.5t69.5 -172.5v-238zM572 103v92q0 21 -5 34.5t-18 21.5
t-35.5 11.5t-56.5 3.5q-35 0 -56.5 -3.5t-33.5 -11.5t-16 -21.5t-4 -34.5v-19q0 -40 19.5 -56.5t69.5 -16.5h136z" />
    <glyph glyph-name="A" unicode="A" horiz-adv-x="690" 
d="M488 204h-293l-74 -204h-106l272 712h116l272 -712h-112zM227 294h228l-114 312z" />
    <glyph glyph-name="B" unicode="B" horiz-adv-x="628" 
d="M72 712h290q111 0 161 -43t50 -134v-8q0 -57 -23 -95.5t-75 -56.5q53 -13 85.5 -54.5t32.5 -111.5v-16q0 -101 -61 -147t-167 -46h-293v712zM177 92h188q65 0 91.5 23.5t26.5 83.5v13q0 63 -28.5 88t-97.5 25h-180v-233zM466 533q0 47 -24.5 67t-79.5 20h-185v-203h173
q63 0 89.5 24.5t26.5 77.5v14z" />
    <glyph glyph-name="C" unicode="C" horiz-adv-x="565" 
d="M160 320q0 -71 8 -115.5t29 -69.5t57.5 -34t93.5 -9h81t106 2l-19 -94q-54 -2 -100 -2h-68q-86 0 -143.5 17.5t-92 55.5t-48.5 99.5t-14 149.5v73q0 92 15.5 153.5t50.5 99t91.5 53t139.5 15.5h79t103 -2l-19 -94q-15 0 -36 0.5l-43.5 1t-44.5 0.5h-41q-58 0 -94 -8
t-56.5 -32.5t-27.5 -69t-7 -117.5v-73z" />
    <glyph glyph-name="D" unicode="D" horiz-adv-x="687" 
d="M72 712h258q89 0 148 -20t94.5 -59.5t50 -98.5t14.5 -137v-81q0 -79 -14.5 -138t-50 -98.5t-94.5 -59.5t-148 -20h-258v712zM177 94h153q54 0 92 9t61 34t33.5 70t10.5 116v67q0 72 -10.5 116.5t-33.5 69t-61 33.5t-92 9h-153v-524z" />
    <glyph glyph-name="E" unicode="E" horiz-adv-x="603" 
d="M560 712l-19 -94h-364v-205h358l-19 -94h-339v-225h383l-19 -94h-469v712h488z" />
    <glyph glyph-name="F" unicode="F" horiz-adv-x="570" 
d="M545 712l-19 -94h-349v-211h334l-19 -94h-315v-313h-105v712h473z" />
    <glyph glyph-name="G" unicode="G" horiz-adv-x="645" 
d="M590 373v-279q0 -48 -16 -71t-53 -23h-173q-89 0 -147 19.5t-91.5 57.5t-46.5 95.5t-13 133.5v101q0 73 12.5 130.5t46.5 96.5t93.5 59.5t154.5 20.5h111t102 -2l-17 -94q-42 1 -72.5 1.5t-54 0.5h-41.5h-35q-59 0 -96 -8t-58 -31t-28.5 -66t-7.5 -112v-93
q0 -71 8.5 -114t29.5 -65.5t57 -29.5t90 -7h140v189h-132l19 90h218z" />
    <glyph glyph-name="H" unicode="H" horiz-adv-x="709" 
d="M637 712v-712h-105v317h-355v-317h-105v712h105v-301h355v301h105z" />
    <glyph glyph-name="I" unicode="I" horiz-adv-x="249" 
d="M177 712v-712h-105v712h105z" />
    <glyph glyph-name="J" unicode="J" horiz-adv-x="466" 
d="M39 93q29 -1 56.5 -1h69.5q37 0 62 5t40.5 24t22 56.5t6.5 102.5v432h105v-453q0 -72 -11 -122t-38 -81t-72.5 -44.5t-114.5 -13.5q-54 0 -91 0.5t-54 1.5z" />
    <glyph glyph-name="K" unicode="K" horiz-adv-x="639" 
d="M177 400l302 312h125l-323 -337l358 -375h-145l-317 335v-335h-105v712h105v-312z" />
    <glyph glyph-name="L" unicode="L" horiz-adv-x="558" 
d="M177 712v-618h361l-19 -94h-447v712h105z" />
    <glyph glyph-name="M" unicode="M" horiz-adv-x="823" 
d="M366 203l-189 340v-543h-105v712h117l228 -408l215 408h119v-712h-105v552l-187 -349h-93z" />
    <glyph glyph-name="N" unicode="N" horiz-adv-x="709" 
d="M165 712l367 -537v537h105v-712h-95l-365 534v-534h-105v712h93z" />
    <glyph glyph-name="O" unicode="O" horiz-adv-x="710" 
d="M355 73q60 0 97.5 8.5t59.5 34.5t30 73.5t8 125.5v83q0 77 -8 124.5t-30 73.5t-59.5 35t-97.5 9t-97.5 -8.5t-59.5 -34.5t-30 -73.5t-8 -125.5v-83q0 -77 8 -124.5t30 -73.5t59.5 -35t97.5 -9zM355 -18q-95 0 -154.5 21t-93 62.5t-45.5 103t-12 142.5v91q0 77 11.5 138
t44.5 103.5t92.5 65t156.5 22.5q95 0 154.5 -21t93 -62.5t45.5 -103t12 -142.5v-91q0 -77 -11.5 -138t-44.5 -103.5t-92.5 -65t-156.5 -22.5z" />
    <glyph glyph-name="P" unicode="P" horiz-adv-x="625" 
d="M177 278v-278h-105v712h268q131 0 188 -49t57 -146v-44q0 -103 -60 -149t-185 -46h-163zM480 501q0 36 -7.5 59t-24 36t-43 17.5t-65.5 4.5h-163v-246h163q39 0 65.5 4.5t43 17.5t24 36t7.5 59v12z" />
    <glyph glyph-name="Q" unicode="Q" horiz-adv-x="710" 
d="M491 -131l-136 113q-95 0 -154.5 21t-93 62.5t-45.5 103t-12 142.5v91q0 77 11.5 138t44.5 103.5t92.5 65t156.5 22.5q95 0 154.5 -21t93 -62.5t45.5 -103t12 -142.5v-91q0 -62 -7 -113.5t-26.5 -91.5t-53.5 -68t-89 -42l156 -127h-149zM355 73q60 0 97.5 8.5t59.5 34.5
t30 73.5t8 125.5v83q0 77 -8 124.5t-30 73.5t-59.5 35t-97.5 9t-97.5 -8.5t-59.5 -34.5t-30 -73.5t-8 -125.5v-83q0 -77 8 -124.5t30 -73.5t59.5 -35t97.5 -9z" />
    <glyph glyph-name="R" unicode="R" horiz-adv-x="638" 
d="M177 0h-105v712h268q125 0 185 -47t60 -154v-32q0 -81 -34.5 -127.5t-106.5 -63.5l174 -288h-122l-160 278h-159v-278zM480 498q0 38 -7 61.5t-23 36.5t-43 17.5t-67 4.5h-163v-246h163q40 0 67 4.5t43 18t23 37t7 61.5v5z" />
    <glyph glyph-name="S" unicode="S" horiz-adv-x="576" 
d="M377 397q47 -8 79 -22.5t51.5 -37.5t28 -55t8.5 -75v-17q0 -48 -13 -84t-44 -60t-82 -36t-127 -12h-90.5t-152.5 2l18 94q40 -1 70.5 -1.5t56.5 -0.5h49h49q49 0 80.5 4.5t49.5 16t24.5 31t6.5 49.5q0 26 -3.5 44t-14 30.5t-30.5 20.5t-53 14l-135 22q-50 8 -82.5 23.5
t-51 38t-25.5 53t-7 69.5v19q0 43 13.5 77.5t44 59t80 37.5t122.5 13h51h48t54.5 -0.5t71.5 -1.5l-18 -94q-71 2 -121 2h-95q-44 0 -72.5 -4.5t-45 -16t-22.5 -30t-6 -46.5q0 -24 3.5 -41t13.5 -29t29 -20t50 -13z" />
    <glyph glyph-name="T" unicode="T" horiz-adv-x="651" 
d="M631 712l-19 -94h-237v-618h-105v618h-250l19 94h592z" />
    <glyph glyph-name="U" unicode="U" horiz-adv-x="680" 
d="M340 -18q-86 0 -139.5 20t-83.5 59t-41 96t-11 130v425h105v-427q0 -63 7 -104t26 -65t52 -33.5t85 -9.5t85 9.5t52 33.5t26 65t7 104v427h105v-425q0 -73 -11 -130t-41 -96t-84 -59t-139 -20z" />
    <glyph glyph-name="V" unicode="V" horiz-adv-x="653" 
d="M132 712l198 -578l198 578h110l-252 -712h-116l-255 712h117z" />
    <glyph glyph-name="W" unicode="W" horiz-adv-x="895" 
d="M767 712h103l-158 -712h-117l-147 567l-151 -567h-117l-155 712h109l112 -566l154 566h100l152 -566z" />
    <glyph glyph-name="X" unicode="X" horiz-adv-x="648" 
d="M381 375l263 -375h-127l-196 292l-195 -292h-122l260 375l-232 337h121l174 -257l169 257h121z" />
    <glyph glyph-name="Y" unicode="Y" horiz-adv-x="652" 
d="M129 712l201 -322l198 322h114l-262 -413v-299h-105v299l-265 413h119z" />
    <glyph glyph-name="Z" unicode="Z" horiz-adv-x="615" 
d="M38 89l386 529h-375l19 94h479v-89l-385 -529h411l-19 -94h-516v89z" />
    <glyph glyph-name="bracketleft" unicode="[" horiz-adv-x="352" 
d="M331 712l-19 -90h-142v-707h161l-19 -90h-240v887h259z" />
    <glyph glyph-name="backslash" unicode="\" horiz-adv-x="401" 
d="M130 712l251 -712h-110l-251 712h110z" />
    <glyph glyph-name="bracketright" unicode="]" horiz-adv-x="352" 
d="M21 -175l19 90h142v707h-161l19 90h240v-887h-259z" />
    <glyph glyph-name="asciicircum" unicode="^" horiz-adv-x="595" 
d="M245 712h105l161 -310h-105l-109 211l-107 -211h-105z" />
    <glyph glyph-name="underscore" unicode="_" horiz-adv-x="500" 
d="M0 -92h500v-93h-500v93z" />
    <glyph glyph-name="grave" unicode="`" horiz-adv-x="500" 
d="M360 599h-103l-117 126h117z" />
    <glyph glyph-name="a" unicode="a" horiz-adv-x="546" 
d="M138 155q0 -35 21 -52.5t77 -17.5h152v92q0 19 -4 33t-16 22.5t-35 12.5t-61 4h-23q-33 0 -54.5 -3.5t-34 -12t-17.5 -22.5t-5 -35v-21zM488 86q0 -48 -22 -67t-80 -19h-150q-105 0 -150.5 38.5t-45.5 115.5v22q0 84 49.5 120t154.5 36q60 0 94 -9.5t50 -20.5v30
q0 25 -3.5 43.5t-17 31t-39 19t-69.5 6.5q-42 0 -89.5 -0.5t-81.5 -1.5l19 87q28 1 69 1.5t83 0.5q121 0 175 -42.5t54 -125.5v-265z" />
    <glyph glyph-name="b" unicode="b" horiz-adv-x="584" 
d="M300 447q-43 0 -69.5 -6t-41.5 -22t-20.5 -43.5t-5.5 -69.5v-75q0 -53 5 -84.5t20 -48.5t41 -22.5t68 -5.5q39 0 65 5t41 21.5t21.5 48.5t6.5 86v50q0 54 -6 86.5t-20.5 50.5t-40 23.5t-64.5 5.5zM310 533q66 0 109.5 -15.5t70 -46.5t37.5 -77t11 -107v-56
q0 -62 -10.5 -108.5t-38.5 -77.5t-75.5 -46t-120.5 -15q-62 0 -106 12t-73 40.5t-42.5 76t-13.5 118.5v512h105v-251q23 20 57 30.5t90 10.5z" />
    <glyph glyph-name="c" unicode="c" horiz-adv-x="471" 
d="M287 432q-41 0 -67 -4.5t-41 -20t-20.5 -44.5t-5.5 -78v-53q0 -49 6 -78t21.5 -44.5t41.5 -20t65 -4.5q55 0 86.5 0.5t55.5 1.5l-18 -87q-26 -1 -62 -1.5t-62 -0.5q-67 0 -113 12t-74.5 40t-41 72.5t-12.5 109.5v53q0 65 12.5 109.5t41 72.5t74.5 40t113 12
q29 0 66.5 -0.5t73.5 -2.5l-18 -87q-41 2 -69 2.5t-53 0.5z" />
    <glyph glyph-name="d" unicode="d" horiz-adv-x="580" 
d="M417 86v233q0 39 -6 64t-21 39.5t-41 19.5t-66 5q-42 0 -67.5 -6.5t-39.5 -24t-18.5 -48.5t-4.5 -80v-38q0 -52 4.5 -84t18.5 -50t40 -24t69 -6h132zM279 0q-66 0 -111 13.5t-72 43.5t-38.5 77.5t-11.5 115.5v38q0 61 10 106.5t36 76.5t70.5 46.5t112.5 15.5
q48 0 85.5 -10.5t56.5 -27.5v248h105v-657q0 -46 -21 -66t-81 -20h-141z" />
    <glyph glyph-name="e" unicode="e" horiz-adv-x="543" 
d="M151 220q0 -42 4.5 -68t18 -41t37.5 -20.5t64 -5.5h73.5t115.5 2l-18 -87q-31 -1 -53 -1.5t-40.5 -0.5h-36.5h-41q-71 0 -115.5 16.5t-70 47t-34.5 74t-9 96.5v56q0 57 9.5 102.5t35 77t71 48.5t118.5 17q67 0 109.5 -15.5t67 -42t33.5 -61t9 -71.5v-15q0 -36 -4 -57
t-13 -32.5t-22.5 -15t-32.5 -3.5h-276zM275 450q-40 0 -64 -6t-37.5 -22.5t-18 -45.5t-4.5 -75h249v34q0 33 -5.5 55.5t-20 35.5t-38.5 18.5t-61 5.5z" />
    <glyph glyph-name="f" unicode="f" horiz-adv-x="372" 
d="M301 658q-43 0 -70 -5t-42 -20.5t-20.5 -43t-5.5 -72.5h196l-18 -87h-178v-430h-105v512q0 64 11.5 108t38 72t70.5 40.5t109 12.5q23 0 56.5 -0.5t58.5 -1.5l-18 -87q-19 1 -43.5 1.5t-39.5 0.5z" />
    <glyph glyph-name="g" unicode="g" horiz-adv-x="579" 
d="M285 104q42 0 67.5 6t40 21t19.5 39.5t5 62.5v48q0 51 -3.5 83.5t-16.5 50.5t-39.5 25t-72.5 7t-72.5 -7t-39.5 -25t-16.5 -50.5t-3.5 -83.5v-11q0 -51 3.5 -83.5t17 -50.5t39.5 -25t72 -7zM417 59q-20 -18 -52 -29.5t-89 -11.5q-70 0 -114.5 16.5t-70 48t-35.5 77
t-10 104.5v23q0 57 9 102.5t35 77.5t72.5 49t121.5 17t121.5 -17t72 -47.5t34.5 -73t9 -93.5v-252q0 -62 -13.5 -105t-42.5 -70t-74.5 -39.5t-108.5 -12.5h-43h-41t-45 0.5t-54 1.5l20 87q50 -2 86.5 -2h75.5q37 0 63 6.5t42.5 22t23.5 42.5t7 69v9z" />
    <glyph glyph-name="h" unicode="h" horiz-adv-x="574" 
d="M58 0v743h105v-256q15 17 49.5 31.5t99.5 14.5q46 0 83.5 -9t64.5 -29t41.5 -52t14.5 -78v-365h-105v344q0 25 -3 44t-15 32t-35 19.5t-63 6.5q-41 0 -66.5 -7t-40 -23t-20 -41t-5.5 -62v-313h-105z" />
    <glyph glyph-name="i" unicode="i" horiz-adv-x="221" 
d="M58 517h105v-517h-105v517zM176 670q0 -35 -15.5 -50.5t-50.5 -15.5t-50.5 15.5t-15.5 50.5t15.5 50.5t50.5 15.5t50.5 -15.5t15.5 -50.5z" />
    <glyph glyph-name="j" unicode="j" horiz-adv-x="221" 
d="M176 670q0 -35 -15.5 -50.5t-50.5 -15.5t-50.5 15.5t-15.5 50.5t15.5 50.5t50.5 15.5t50.5 -15.5t15.5 -50.5zM-88 -92q14 -1 28.5 -1h34.5q24 0 39.5 3t25.5 13.5t14 29.5t4 52v512h105v-512q0 -53 -10 -88t-32 -56t-57 -29.5t-86 -8.5q-38 0 -57 0.5t-27 1.5z" />
    <glyph glyph-name="k" unicode="k" horiz-adv-x="538" 
d="M163 314l216 203h133l-251 -229l277 -288h-138l-237 249v-249h-105v743h105v-429z" />
    <glyph glyph-name="l" unicode="l" horiz-adv-x="221" 
d="M58 743h105v-743h-105v743z" />
    <glyph glyph-name="m" unicode="m" horiz-adv-x="845" 
d="M58 0v365q0 92 52.5 130t155.5 38q52 0 94 -15.5t62 -42.5q20 27 62 42.5t94 15.5q103 0 156 -38t53 -130v-365h-105v344q0 25 -2.5 44t-13 32t-31 19.5t-57.5 6.5q-34 0 -54 -5.5t-31 -17t-14.5 -28t-3.5 -37.5v-358h-105v344q0 25 -2.5 44t-13 32t-31 19.5t-57.5 6.5
q-36 0 -57 -6.5t-31 -19.5t-12.5 -32t-2.5 -44v-344h-105z" />
    <glyph glyph-name="n" unicode="n" horiz-adv-x="574" 
d="M58 0v365q0 90 55.5 129t173.5 39t173.5 -39t55.5 -129v-365h-105v344q0 25 -3 44t-15 32t-37 19.5t-69 6.5t-69 -6.5t-37 -19.5t-15 -32t-3 -44v-344h-105z" />
    <glyph glyph-name="o" unicode="o" horiz-adv-x="574" 
d="M287 533q65 0 110.5 -11.5t74.5 -40t42.5 -76t13.5 -119.5v-55q0 -72 -13.5 -119.5t-42.5 -76t-74.5 -40t-110.5 -11.5t-110.5 11.5t-74.5 40t-42.5 76t-13.5 119.5v55q0 72 13.5 119.5t42.5 76t74.5 40t110.5 11.5zM421 286q0 53 -5.5 84.5t-20 48.5t-40.5 22.5t-68 5.5
t-68 -5.5t-40.5 -22.5t-20 -48.5t-5.5 -84.5v-55q0 -53 5.5 -84.5t20 -48.5t40.5 -22.5t68 -5.5t68 5.5t40.5 22.5t20 48.5t5.5 84.5v55z" />
    <glyph glyph-name="p" unicode="p" horiz-adv-x="580" 
d="M296 70q42 0 67.5 6t40 24t19 50.5t4.5 85.5v45q0 55 -5 87.5t-19.5 50t-40 23t-66.5 5.5q-40 0 -66 -5.5t-41 -22.5t-20.5 -48.5t-5.5 -84.5v-71q0 -44 6 -72t21 -44.5t41 -22.5t65 -6zM297 533q64 0 109 -11.5t73.5 -40.5t41.5 -77.5t13 -122.5v-45q0 -66 -10.5 -113.5
t-37 -78t-72.5 -45.5t-118 -15q-47 0 -79.5 11.5t-52.5 29.5v-200h-106v461q0 71 13.5 118.5t42.5 76t74 40.5t109 12z" />
    <glyph glyph-name="q" unicode="q" horiz-adv-x="580" 
d="M280 70q43 0 69.5 6t41.5 22t20.5 43.5t5.5 69.5v75q0 53 -5 84.5t-20 48.5t-41 22.5t-68 5.5q-39 0 -64 -5t-40 -21.5t-20.5 -48.5t-5.5 -86v-50q0 -54 5 -86.5t19.5 -50.5t39 -23.5t63.5 -5.5zM270 -16q-66 0 -109 15.5t-68.5 46.5t-36 77t-10.5 107v56q0 62 10 108.5
t37 77t73.5 46t120.5 15.5q61 0 105.5 -12t73.5 -40.5t42.5 -76t13.5 -118.5v-461h-105v200q-23 -20 -57 -30.5t-90 -10.5z" />
    <glyph glyph-name="r" unicode="r" horiz-adv-x="380" 
d="M58 0v354q0 45 14 76.5t39.5 51t61.5 28.5t80 9h74t43 -1l-18 -87h-10t-22 0.5t-28 0.5h-29q-35 0 -55 -6.5t-30 -19.5t-12.5 -32t-2.5 -43v-331h-105z" />
    <glyph glyph-name="s" unicode="s" horiz-adv-x="519" 
d="M331 305q45 -4 73 -18.5t43 -35t20.5 -44t5.5 -45.5v-14q0 -71 -51 -110.5t-157 -39.5q-45 0 -104.5 0.5t-119.5 1.5l18 87q54 -1 110 -1.5t101 -0.5q58 0 79.5 13t21.5 51q0 12 -2.5 22.5t-10 18.5t-21.5 13.5t-38 7.5l-120 11q-37 3 -63 15.5t-42 31t-23.5 41.5
t-7.5 47v17q0 68 47 106.5t154 38.5h100t117 -2l-18 -87q-42 1 -74 1.5t-56.5 0.5h-44h-35.5q-51 0 -71 -12.5t-20 -44.5q0 -13 2.5 -23t10 -17t22 -12t38.5 -7z" />
    <glyph glyph-name="t" unicode="t" horiz-adv-x="373" 
d="M58 639l105 19v-141h190l-18 -87h-172v-240q0 -33 3.5 -54t13.5 -32t28.5 -15t47.5 -4h91l-18 -85h-72q-60 0 -98.5 9t-61 30.5t-31 57.5t-8.5 90v452z" />
    <glyph glyph-name="u" unicode="u" horiz-adv-x="569" 
d="M285 -16q-113 0 -170 38t-57 130v365h105v-344q0 -25 3 -44t15 -32t36.5 -19.5t67.5 -6.5t67 6.5t36 19.5t15 32t3 44v344h105v-365q0 -92 -57 -130t-169 -38z" />
    <glyph glyph-name="v" unicode="v" horiz-adv-x="541" 
d="M131 517l141 -403l145 403h109l-200 -517h-111l-200 517h116z" />
    <glyph glyph-name="w" unicode="w" horiz-adv-x="770" 
d="M385 391l-104 -391h-108l-153 517h105l103 -407l109 407h102l104 -409l109 409h98l-156 -517h-108z" />
    <glyph glyph-name="x" unicode="x" horiz-adv-x="531" 
d="M152 517l114 -177l119 177h111l-173 -242l193 -275h-119l-135 203l-136 -203h-111l190 269l-172 248h119z" />
    <glyph glyph-name="y" unicode="y" horiz-adv-x="569" 
d="M107 -88q50 -2 87 -2h76q37 0 63 6.5t42.5 22t23.5 42.5t7 69v11q-9 -8 -20 -16t-27.5 -14t-41 -9.5t-60.5 -3.5q-96 0 -147.5 36.5t-51.5 128.5v334h105v-310q0 -25 2.5 -44t13 -32t33 -19.5t61.5 -6.5q43 0 69 5.5t40 19t19 35t5 53.5v299h105v-467q0 -62 -13.5 -105
t-43 -70t-75 -39.5t-108.5 -12.5h-43h-41t-45 0.5t-54 1.5z" />
    <glyph glyph-name="z" unicode="z" horiz-adv-x="507" 
d="M162 87h315l-18 -87h-423v82l301 348h-300l18 87h407v-82z" />
    <glyph glyph-name="braceleft" unicode="{" horiz-adv-x="367" 
d="M353 712l-19 -88h-58q-23 0 -38 -5t-23.5 -14.5t-11.5 -23t-3 -30.5v-186q0 -26 -11.5 -52t-45.5 -44q34 -18 45.5 -44t11.5 -52v-187q0 -17 3 -30.5t11.5 -23t23.5 -14.5t38 -5h77l-19 -88h-55q-54 0 -88.5 11.5t-54 31t-26.5 45t-7 54.5v197q0 24 -14 42.5t-59 18.5
h-15v88h15q45 0 59 18.5t14 42.5v196q0 28 7 54t26.5 45.5t54 31t88.5 11.5h74z" />
    <glyph glyph-name="bar" unicode="|" horiz-adv-x="217" 
d="M58 743h101v-918h-101v918z" />
    <glyph glyph-name="braceright" unicode="}" horiz-adv-x="367" 
d="M14 -175l19 88h58q46 0 61 19.5t15 53.5v187q0 26 11.5 52t45.5 44q-34 18 -45.5 44t-11.5 52v186q0 34 -15 53.5t-61 19.5h-77l19 88h55q54 0 88.5 -11.5t54 -31t26.5 -45.5t7 -54v-196q0 -24 14 -42.5t59 -18.5h15v-88h-15q-45 0 -59 -18.5t-14 -42.5v-197
q0 -29 -7 -54.5t-26.5 -45t-54 -31t-88.5 -11.5h-74z" />
    <glyph glyph-name="asciitilde" unicode="~" horiz-adv-x="595" 
d="M316 382q33 -16 50 -22.5t31 -6.5q17 0 25.5 10.5t8.5 40.5v13h94v-13q0 -83 -28 -117t-77 -34q-29 0 -56.5 10t-61.5 27l-23 11q-33 16 -50 22.5t-31 6.5q-17 0 -25.5 -10.5t-8.5 -40.5v-13h-94v13q0 83 27.5 117t77.5 34q29 0 56.5 -10t61.5 -27z" />
    <glyph glyph-name="uni00A0" unicode="&#xa0;" horiz-adv-x="250" 
 />
    <glyph glyph-name="exclamdown" unicode="&#xa1;" horiz-adv-x="236" 
d="M170 114q2 -22 2 -43v-46v-221h-108v221v46t2 43l11 203h81zM50 456q0 35 16 51.5t52 16.5t52 -16.5t16 -51.5t-16 -51.5t-52 -16.5t-52 16.5t-16 51.5z" />
    <glyph glyph-name="cent" unicode="&#xa2;" horiz-adv-x="595" 
d="M379 519h5q25 0 55 -0.5t49 -1.5l-18 -86q-20 1 -44 1.5t-42 0.5h-5v-349h8h55t53 1l-18 -85q-20 -1 -44.5 -1.5t-53.5 -0.5v-94h-80v95q-56 2 -93 15.5t-59.5 41t-32 70.5t-9.5 106v62q0 55 11 95.5t34.5 67.5t60.5 41.5t88 18.5v96h80v-94zM212 232q0 -41 3.5 -68.5
t13 -44.5t26.5 -24.5t44 -9.5v347q-27 -2 -44 -9.5t-26.5 -23t-13 -41t-3.5 -64.5v-62z" />
    <glyph glyph-name="sterling" unicode="&#xa3;" horiz-adv-x="595" 
d="M516 0h-450l19 90h50v214h-69l18 90h51v73q0 112 57 163.5t185 51.5q42 0 85.5 -0.5t68.5 -1.5l-14 -90q-43 2 -78.5 2h-69.5q-41 0 -67 -6t-40.5 -21.5t-20 -42t-5.5 -66.5v-62h221l-18 -90h-203v-214h298z" />
    <glyph glyph-name="currency" unicode="&#xa4;" horiz-adv-x="595" 
d="M147 354q0 -29 11 -55.5t31 -46.5t47.5 -31.5t60.5 -11.5t60.5 11.5t47.5 31.5t31 46.5t11 55.5t-11 55.5t-31 46.5t-47.5 31.5t-60.5 11.5t-60.5 -11.5t-47.5 -31.5t-31 -46.5t-11 -55.5zM525 354q0 -64 -41 -123l59 -59l-59 -58l-59 59q-59 -41 -128 -41t-128 41
l-59 -59l-59 58l59 59q-41 59 -41 123t41 123l-59 59l59 58l59 -59q59 41 128 41t128 -41l59 59l59 -58l-59 -59q41 -59 41 -123z" />
    <glyph glyph-name="yen" unicode="&#xa5;" horiz-adv-x="595" 
d="M89 374h114l-184 306h115l166 -285l168 285h109l-187 -306h116v-80h-157v-76h157v-80h-157v-138h-104v138h-156v80h156v76h-156v80z" />
    <glyph glyph-name="brokenbar" unicode="&#xa6;" horiz-adv-x="217" 
d="M58 437v306h101v-306h-101zM159 -175h-101v306h101v-306z" />
    <glyph glyph-name="section" unicode="&#xa7;" horiz-adv-x="595" 
d="M364 457q85 -8 128 -48.5t43 -129.5v-8q0 -37 -15 -74t-52 -66q35 -20 50 -56.5t15 -71.5v-13q0 -36 -11 -67.5t-37.5 -55.5t-69 -37.5t-105.5 -13.5q-61 0 -123 0.5t-116 1.5l18 87q47 -1 104 -1.5t122 -0.5t91.5 19.5t26.5 67.5q0 14 -2.5 27.5t-10 25t-21.5 19.5
t-38 10l-138 14q-41 4 -71 14.5t-50.5 30.5t-30.5 51t-10 76v12q0 42 19.5 80t54.5 56q-23 12 -37 27t-22 31.5t-10.5 34t-2.5 35.5v16q0 34 11 64t35.5 52.5t63 35.5t92.5 13q75 0 135 -0.5t111 -1.5l-18 -87q-42 1 -98.5 1.5t-134.5 0.5q-31 0 -50.5 -5t-30.5 -15
t-15 -24.5t-4 -32.5q0 -36 13 -56.5t60 -24.5zM280 372q-29 3 -39 3q-39 0 -60.5 -25.5t-21.5 -81.5q0 -48 19 -68.5t73 -26.5l65 -7q28 -3 39 -3q39 0 60.5 25.5t21.5 81.5q0 51 -19 70.5t-70 24.5z" />
    <glyph glyph-name="dieresis" unicode="&#xa8;" horiz-adv-x="500" 
d="M223 663q0 -31 -13.5 -45t-45.5 -14t-45.5 14t-13.5 45t13.5 45t45.5 14t45.5 -14t13.5 -45zM395 663q0 -31 -13.5 -45t-45.5 -14t-45.5 14t-13.5 45t13.5 45t45.5 14t45.5 -14t13.5 -45z" />
    <glyph glyph-name="copyright" unicode="&#xa9;" horiz-adv-x="832" 
d="M525 493q-26 1 -41 1h-38q-32 0 -51.5 -3.5t-30.5 -15.5t-14.5 -35t-3.5 -63v-42q0 -39 4 -62t16.5 -35.5t35 -16t60.5 -3.5h41.5t39.5 1l-19 -81q-17 -1 -40 -1.5t-46 -0.5q-54 0 -90 12t-58 36.5t-31 61.5t-9 87v45q0 48 7.5 84.5t28 62t57 38.5t94.5 13
q30 0 59.5 -0.5t47.5 -1.5zM792 356q0 -100 -19 -169.5t-63 -113t-116 -63t-178 -19.5q-104 0 -175.5 18.5t-116 61t-64.5 112.5t-20 173q0 100 19 169.5t63 113t116 63t178 19.5q104 0 175.5 -18.5t116 -61t64.5 -112.5t20 -173zM705 356q0 84 -11.5 139t-43.5 88t-88 46
t-146 13t-146 -12.5t-88 -45t-43.5 -88t-11.5 -140.5q0 -84 11.5 -139.5t43.5 -88t88 -45.5t146 -13t146 12.5t88 45t43.5 87.5t11.5 141z" />
    <glyph glyph-name="ordfeminine" unicode="&#xaa;" horiz-adv-x="430" 
d="M115 427q0 -32 20 -41.5t55 -9.5h107v65q0 16 -2 26.5t-10.5 17.5t-26 10t-47.5 3h-8q-52 0 -70 -12t-18 -45v-14zM382 372q0 -31 -12.5 -49t-38.5 -18h-144q-36 0 -64.5 6t-48.5 20.5t-31 37.5t-11 57v19q0 68 39 95.5t120 27.5q47 0 70 -7.5t36 -16.5v22q0 19 -2 33
t-11.5 23t-28.5 13.5t-52 4.5q-32 0 -69 -0.5t-64 -1.5l15 75q22 1 54.5 1h64.5q87 0 132.5 -29.5t45.5 -102.5v-210z" />
    <glyph glyph-name="guillemotleft" unicode="&#xab;" horiz-adv-x="560" 
d="M40 311l219 173v-112l-144 -113l144 -112v-112l-219 173v103zM301 311l219 173v-112l-144 -113l144 -112v-112l-219 173v103z" />
    <glyph glyph-name="logicalnot" unicode="&#xac;" horiz-adv-x="595" 
d="M68 384v87h432v-261h-97v174h-335z" />
    <glyph glyph-name="uni00AD" unicode="&#xad;" horiz-adv-x="338" 
d="M20 240l19 94h279l-19 -94h-279z" />
    <glyph glyph-name="registered" unicode="&#xae;" horiz-adv-x="590" 
d="M558 484q0 -71 -14.5 -120t-46 -79t-81.5 -43.5t-121 -13.5t-121 13.5t-81.5 43.5t-46 79t-14.5 120t14.5 120t46 79t81.5 43.5t121 13.5t121 -13.5t81.5 -43.5t46 -79t14.5 -120zM106 484q0 -57 8.5 -94.5t30 -59t58 -30t92.5 -8.5t92.5 8.5t58 30t30 59t8.5 94.5
t-8.5 94t-30 59t-58 30.5t-92.5 8.5t-92.5 -8.5t-58 -30.5t-30 -59t-8.5 -94zM407 525q0 -29 -9.5 -46t-34.5 -28l57 -94h-79l-44 83h-33v-83h-71v263h128q43 0 64.5 -18.5t21.5 -60.5v-16zM337 534q0 19 -8 24.5t-31 5.5h-35v-68h35q23 0 31 5.5t8 24.5v8z" />
    <glyph glyph-name="macron" unicode="&#xaf;" horiz-adv-x="500" 
d="M105 700h289v-81h-289v81z" />
    <glyph glyph-name="degree" unicode="&#xb0;" horiz-adv-x="348" 
d="M336 598q0 -76 -42 -114.5t-120 -38.5t-120 38.5t-42 114.5t42 114.5t120 38.5t120 -38.5t42 -114.5zM252 598q0 46 -18 63.5t-60 17.5t-60 -17.5t-18 -63.5q0 -47 18 -64t60 -17t60 17t18 64z" />
    <glyph glyph-name="plusminus" unicode="&#xb1;" horiz-adv-x="595" 
d="M81 88h432v-87h-432v87zM346 404h167v-87h-167v-179h-97v179h-168v87h168v179h97v-179z" />
    <glyph glyph-name="uni00B2" unicode="&#xb2;" 
d="M186 444q-17 -5 -27.5 -10t-15.5 -12.5t-6.5 -19.5t-1.5 -31v-9h198l-12 -74h-273v71q0 67 23.5 101t83.5 51l44 13q31 9 39.5 17.5t8.5 28.5q0 23 -10.5 31t-44.5 8q-43 0 -78.5 -0.5t-55.5 -1.5l11 72q23 1 52 1.5t65 0.5q81 0 114 -25.5t33 -77.5v-12q0 -41 -18 -65
t-71 -40z" />
    <glyph glyph-name="uni00B3" unicode="&#xb3;" 
d="M324 574q0 -28 -11 -49t-44 -31q34 -10 49.5 -34t15.5 -53v-9q0 -54 -36.5 -82.5t-118.5 -28.5q-45 0 -75.5 0.5t-58.5 1.5l11 73q25 -1 59 -1.5t76 -0.5q31 0 43 8t12 34v5q0 26 -12 35t-43 9h-112l11 72h87q38 0 50 9t12 33v5q0 22 -12 29.5t-50 7.5q-29 0 -63 -0.5
t-57 -1.5l11 74q32 1 66 1.5t51 0.5q75 0 107 -25.5t32 -76.5v-5z" />
    <glyph glyph-name="acute" unicode="&#xb4;" horiz-adv-x="500" 
d="M243 725h117l-117 -126h-103z" />
    <glyph glyph-name="uni00B5" unicode="&#xb5;" horiz-adv-x="574" 
d="M301 0q-54 0 -87 8.5t-52 27.5v-211h-104v692h105v-302q0 -38 6 -63t21.5 -40t42.5 -21t68 -6h110v432h105v-431q0 -46 -21 -66t-81 -20h-113z" />
    <glyph glyph-name="paragraph" unicode="&#xb6;" horiz-adv-x="650" 
d="M402 -175h-85v448h-54q-64 0 -106 19.5t-67 50t-35.5 67t-10.5 69.5v31q0 37 11.5 73.5t36.5 65t63.5 46t91.5 17.5h336v-887h-85v806h-96v-806z" />
    <glyph glyph-name="periodcentered" unicode="&#xb7;" horiz-adv-x="208" 
d="M173 341q0 -35 -16.5 -52t-52.5 -17t-52.5 17t-16.5 52t16.5 52t52.5 17t52.5 -17t16.5 -52z" />
    <glyph glyph-name="cedilla" unicode="&#xb8;" horiz-adv-x="500" 
d="M260 -117q0 13 -6 18t-23 5h-23.5t-24.5 -1l17 60q10 1 24 1h28q52 0 74.5 -17t22.5 -59v-9q0 -45 -25 -64t-90 -19q-23 0 -47.5 1t-34.5 2l20 61q14 -1 30.5 -1.5t28.5 -0.5q17 0 23 5t6 18z" />
    <glyph glyph-name="uni00B9" unicode="&#xb9;" 
d="M343 362l-12 -74h-262l12 74h82v248h-93l14 70h166v-318h93z" />
    <glyph glyph-name="ordmasculine" unicode="&#xba;" horiz-adv-x="472" 
d="M236 372q33 0 53 5t30.5 18t14 36t3.5 59v38q0 36 -3.5 59t-14 36t-30.5 18t-53 5t-53 -5t-30.5 -18t-14 -36t-3.5 -59v-38q0 -36 3.5 -59t14 -36t30.5 -18t53 -5zM236 298q-53 0 -90.5 9t-61 31t-34 57.5t-10.5 89.5v48q0 54 10.5 89.5t34 57.5t61 31t90.5 9t90.5 -9
t61 -31t34 -57.5t10.5 -89.5v-48q0 -54 -10.5 -89.5t-34 -57.5t-61 -31t-90.5 -9z" />
    <glyph glyph-name="guillemotright" unicode="&#xbb;" horiz-adv-x="560" 
d="M520 208l-219 -173v112l144 112l-144 113v112l219 -173v-103zM259 208l-219 -173v112l144 112l-144 113v112l219 -173v-103z" />
    <glyph glyph-name="onequarter" unicode="&#xbc;" horiz-adv-x="880" 
d="M603 680h94l-420 -680h-94zM625 144h104v102l84 12v-114h50l-14 -67h-36v-77h-84v77h-191v66l139 249h90zM343 362l-12 -74h-262l12 74h82v248h-93l14 70h166v-318h93z" />
    <glyph glyph-name="onehalf" unicode="&#xbd;" horiz-adv-x="880" 
d="M603 680h94l-420 -680h-94zM688 156q-17 -5 -27.5 -10t-15.5 -12.5t-6.5 -19.5t-1.5 -31v-9h198l-12 -74h-273v71q0 67 23.5 101t83.5 51l44 13q31 9 39.5 17.5t8.5 28.5q0 23 -10.5 31t-44.5 8q-43 0 -78.5 -0.5t-55.5 -1.5l11 72q23 1 52 1.5t65 0.5q81 0 114 -25.5
t33 -77.5v-12q0 -41 -18 -65t-71 -40zM343 362l-12 -74h-262l12 74h82v248h-93l14 70h166v-318h93z" />
    <glyph glyph-name="threequarters" unicode="&#xbe;" horiz-adv-x="880" 
d="M624 680h94l-420 -680h-94zM625 144h104v102l84 12v-114h50l-14 -67h-36v-77h-84v77h-191v66l139 249h90zM324 574q0 -28 -11 -49t-44 -31q34 -10 49.5 -34t15.5 -53v-9q0 -54 -36.5 -82.5t-118.5 -28.5q-45 0 -75.5 0.5t-58.5 1.5l11 73q25 -1 59 -1.5t76 -0.5
q31 0 43 8t12 34v5q0 26 -12 35t-43 9h-112l11 72h87q38 0 50 9t12 33v5q0 22 -12 29.5t-50 7.5q-29 0 -63 -0.5t-57 -1.5l11 74q32 1 66 1.5t51 0.5q75 0 107 -25.5t32 -76.5v-5z" />
    <glyph glyph-name="questiondown" unicode="&#xbf;" horiz-adv-x="459" 
d="M204 101q-19 -9 -31 -18t-19.5 -20.5t-10.5 -27t-3 -37.5q0 -28 4 -48t15.5 -33t31 -19.5t51.5 -6.5q25 0 57.5 0.5t63.5 0.5t55 0.5t31 0.5l-14 -87q-4 0 -25 -0.5t-49.5 -0.5t-59.5 -0.5t-55 -0.5q-111 0 -161 43t-50 129v26q0 35 7 61t21 45.5t35 34.5t50 28l50 23
q18 8 28.5 16t16 18.5t7.5 25.5t2 39v27h103v-27q0 -38 -6.5 -64.5t-19.5 -45.5t-32.5 -33t-44.5 -26zM236 456q0 35 16 51.5t52 16.5t52 -16.5t16 -51.5t-16 -51.5t-52 -16.5t-52 16.5t-16 51.5z" />
    <glyph glyph-name="Agrave" unicode="&#xc0;" horiz-adv-x="690" 
d="M488 204h-293l-74 -204h-106l272 712h116l272 -712h-112zM227 294h228l-114 312zM298 892l114 -119h-109l-137 119h132z" />
    <glyph glyph-name="Aacute" unicode="&#xc1;" horiz-adv-x="690" 
d="M488 204h-293l-74 -204h-106l272 712h116l272 -712h-112zM227 294h228l-114 312zM526 892l-137 -119h-109l114 119h132z" />
    <glyph glyph-name="Acircumflex" unicode="&#xc2;" horiz-adv-x="690" 
d="M488 204h-293l-74 -204h-106l272 712h116l272 -712h-112zM227 294h228l-114 312zM345 836l-69 -63h-106l117 118h117l117 -118h-106z" />
    <glyph glyph-name="Atilde" unicode="&#xc3;" horiz-adv-x="690" 
d="M488 204h-293l-74 -204h-106l272 712h116l272 -712h-112zM227 294h228l-114 312zM330 792q-18 7 -33.5 12t-26.5 5t-17.5 -5t-6.5 -25v-16h-74v17q0 63 23.5 87t58.5 24q17 0 38.5 -5t50.5 -16l17 -6l37.5 -13t22.5 -4t17.5 5t6.5 25v16h74v-17q0 -63 -23.5 -87
t-58.5 -24q-17 0 -38.5 5t-50.5 16z" />
    <glyph glyph-name="Adieresis" unicode="&#xc4;" horiz-adv-x="690" 
d="M488 204h-293l-74 -204h-106l272 712h116l272 -712h-112zM227 294h228l-114 312zM312 831q0 -32 -14 -46t-46 -14t-46 14t-14 46t14 46t46 14t46 -14t14 -46zM498 831q0 -32 -14 -46t-46 -14t-46 14t-14 46t14 46t46 14t46 -14t14 -46z" />
    <glyph glyph-name="Aring" unicode="&#xc5;" horiz-adv-x="690" 
d="M216 786q0 62 33.5 91.5t95.5 29.5t95.5 -29.5t33.5 -91.5q0 -80 -58 -108l259 -678h-112l-75 204h-293l-74 -204h-106l259 678q-58 27 -58 108zM227 294h228l-114 312zM403 786q0 35 -12.5 46.5t-45.5 11.5t-45.5 -11.5t-12.5 -46.5t12.5 -46.5t45.5 -11.5t45.5 11.5
t12.5 46.5z" />
    <glyph glyph-name="AE" unicode="&#xc6;" horiz-adv-x="984" 
d="M453 310v308h-7l-167 -308h174zM231 220l-119 -220h-107l395 712h541l-19 -94h-364v-205h359l-19 -94h-340v-225h383l-19 -94h-469v220h-222z" />
    <glyph glyph-name="Ccedilla" unicode="&#xc7;" horiz-adv-x="565" 
d="M160 320q0 -71 8 -115.5t29 -69.5t57.5 -34t93.5 -9h81t106 2l-19 -94q-54 -2 -100 -2h-68q-86 0 -143.5 17.5t-92 55.5t-48.5 99.5t-14 149.5v73q0 92 15.5 153.5t50.5 99t91.5 53t139.5 15.5h79t103 -2l-19 -94q-15 0 -36 0.5l-43.5 1t-44.5 0.5h-41q-58 0 -94 -8
t-56.5 -32.5t-27.5 -69t-7 -117.5v-73zM295 -95h-27t-28 -1l17 61q10 1 31 1h35q54 0 75 -18.5t21 -58.5v-10q0 -45 -25.5 -63t-90.5 -18q-54 0 -94 3l20 62q14 -1 34 -1.5t32 -0.5q17 0 23 4.5t6 18.5q0 13 -6 17t-23 4z" />
    <glyph glyph-name="Egrave" unicode="&#xc8;" horiz-adv-x="603" 
d="M560 712l-19 -94h-364v-205h358l-19 -94h-339v-225h383l-19 -94h-469v712h488zM299 892l114 -119h-109l-137 119h132z" />
    <glyph glyph-name="Eacute" unicode="&#xc9;" horiz-adv-x="603" 
d="M560 712l-19 -94h-364v-205h358l-19 -94h-339v-225h383l-19 -94h-469v712h488zM474 892l-137 -119h-109l114 119h132z" />
    <glyph glyph-name="Ecircumflex" unicode="&#xca;" horiz-adv-x="603" 
d="M560 712l-19 -94h-364v-205h358l-19 -94h-339v-225h383l-19 -94h-469v712h488zM316 836l-69 -63h-106l117 118h117l117 -118h-106z" />
    <glyph glyph-name="Edieresis" unicode="&#xcb;" horiz-adv-x="603" 
d="M560 712l-19 -94h-364v-205h358l-19 -94h-339v-225h383l-19 -94h-469v712h488zM274 831q0 -32 -14 -46t-46 -14t-46 14t-14 46t14 46t46 14t46 -14t14 -46zM460 831q0 -32 -14 -46t-46 -14t-46 14t-14 46t14 46t46 14t46 -14t14 -46z" />
    <glyph glyph-name="Igrave" unicode="&#xcc;" horiz-adv-x="249" 
d="M177 712v-712h-105v712h105zM89 892l114 -119h-109l-137 119h132z" />
    <glyph glyph-name="Iacute" unicode="&#xcd;" horiz-adv-x="249" 
d="M177 712v-712h-105v712h105zM303 892l-137 -119h-109l114 119h132z" />
    <glyph glyph-name="Icircumflex" unicode="&#xce;" horiz-adv-x="249" 
d="M177 712v-712h-105v712h105zM125 836l-69 -63h-106l117 118h117l117 -118h-106z" />
    <glyph glyph-name="Idieresis" unicode="&#xcf;" horiz-adv-x="249" 
d="M177 712v-712h-105v712h105zM92 831q0 -32 -14 -46t-46 -14t-46 14t-14 46t14 46t46 14t46 -14t14 -46zM278 831q0 -32 -14 -46t-46 -14t-46 14t-14 46t14 46t46 14t46 -14t14 -46z" />
    <glyph glyph-name="Eth" unicode="&#xd0;" horiz-adv-x="706" 
d="M91 316h-66v85h66v311h258q89 0 148 -20t94.5 -59.5t50 -98.5t14.5 -137v-81q0 -79 -14.5 -138t-50 -98.5t-94.5 -59.5t-148 -20h-258v316zM196 316v-222h153q54 0 92 9t61 34t33.5 70t10.5 116v67q0 72 -10.5 116.5t-33.5 69t-61 33.5t-92 9h-153v-217h163v-85h-163z
" />
    <glyph glyph-name="Ntilde" unicode="&#xd1;" horiz-adv-x="709" 
d="M165 712l367 -537v537h105v-712h-95l-365 534v-534h-105v712h93zM346 792q-18 7 -33.5 12t-26.5 5t-17.5 -5t-6.5 -25v-16h-74v17q0 63 23.5 87t58.5 24q17 0 38.5 -5t50.5 -16l17 -6l37.5 -13t22.5 -4t17.5 5t6.5 25v16h74v-17q0 -63 -23.5 -87t-58.5 -24q-17 0 -38.5 5
t-50.5 16z" />
    <glyph glyph-name="Ograve" unicode="&#xd2;" horiz-adv-x="710" 
d="M355 73q60 0 97.5 8.5t59.5 34.5t30 73.5t8 125.5v83q0 77 -8 124.5t-30 73.5t-59.5 35t-97.5 9t-97.5 -8.5t-59.5 -34.5t-30 -73.5t-8 -125.5v-83q0 -77 8 -124.5t30 -73.5t59.5 -35t97.5 -9zM355 -18q-95 0 -154.5 21t-93 62.5t-45.5 103t-12 142.5v91q0 77 11.5 138
t44.5 103.5t92.5 65t156.5 22.5q95 0 154.5 -21t93 -62.5t45.5 -103t12 -142.5v-91q0 -77 -11.5 -138t-44.5 -103.5t-92.5 -65t-156.5 -22.5zM346 892l114 -119h-109l-137 119h132z" />
    <glyph glyph-name="Oacute" unicode="&#xd3;" horiz-adv-x="710" 
d="M355 73q60 0 97.5 8.5t59.5 34.5t30 73.5t8 125.5v83q0 77 -8 124.5t-30 73.5t-59.5 35t-97.5 9t-97.5 -8.5t-59.5 -34.5t-30 -73.5t-8 -125.5v-83q0 -77 8 -124.5t30 -73.5t59.5 -35t97.5 -9zM355 -18q-95 0 -154.5 21t-93 62.5t-45.5 103t-12 142.5v91q0 77 11.5 138
t44.5 103.5t92.5 65t156.5 22.5q95 0 154.5 -21t93 -62.5t45.5 -103t12 -142.5v-91q0 -77 -11.5 -138t-44.5 -103.5t-92.5 -65t-156.5 -22.5zM501 892l-137 -119h-109l114 119h132z" />
    <glyph glyph-name="Ocircumflex" unicode="&#xd4;" horiz-adv-x="710" 
d="M355 73q60 0 97.5 8.5t59.5 34.5t30 73.5t8 125.5v83q0 77 -8 124.5t-30 73.5t-59.5 35t-97.5 9t-97.5 -8.5t-59.5 -34.5t-30 -73.5t-8 -125.5v-83q0 -77 8 -124.5t30 -73.5t59.5 -35t97.5 -9zM355 -18q-95 0 -154.5 21t-93 62.5t-45.5 103t-12 142.5v91q0 77 11.5 138
t44.5 103.5t92.5 65t156.5 22.5q95 0 154.5 -21t93 -62.5t45.5 -103t12 -142.5v-91q0 -77 -11.5 -138t-44.5 -103.5t-92.5 -65t-156.5 -22.5zM355 836l-69 -63h-106l117 118h117l117 -118h-106z" />
    <glyph glyph-name="Otilde" unicode="&#xd5;" horiz-adv-x="710" 
d="M355 73q60 0 97.5 8.5t59.5 34.5t30 73.5t8 125.5v83q0 77 -8 124.5t-30 73.5t-59.5 35t-97.5 9t-97.5 -8.5t-59.5 -34.5t-30 -73.5t-8 -125.5v-83q0 -77 8 -124.5t30 -73.5t59.5 -35t97.5 -9zM355 -18q-95 0 -154.5 21t-93 62.5t-45.5 103t-12 142.5v91q0 77 11.5 138
t44.5 103.5t92.5 65t156.5 22.5q95 0 154.5 -21t93 -62.5t45.5 -103t12 -142.5v-91q0 -77 -11.5 -138t-44.5 -103.5t-92.5 -65t-156.5 -22.5zM340 792q-18 7 -33.5 12t-26.5 5t-17.5 -5t-6.5 -25v-16h-74v17q0 63 23.5 87t58.5 24q17 0 38.5 -5t50.5 -16l17 -6l37.5 -13
t22.5 -4t17.5 5t6.5 25v16h74v-17q0 -63 -23.5 -87t-58.5 -24q-17 0 -38.5 5t-50.5 16z" />
    <glyph glyph-name="Odieresis" unicode="&#xd6;" horiz-adv-x="710" 
d="M355 73q60 0 97.5 8.5t59.5 34.5t30 73.5t8 125.5v83q0 77 -8 124.5t-30 73.5t-59.5 35t-97.5 9t-97.5 -8.5t-59.5 -34.5t-30 -73.5t-8 -125.5v-83q0 -77 8 -124.5t30 -73.5t59.5 -35t97.5 -9zM355 -18q-95 0 -154.5 21t-93 62.5t-45.5 103t-12 142.5v91q0 77 11.5 138
t44.5 103.5t92.5 65t156.5 22.5q95 0 154.5 -21t93 -62.5t45.5 -103t12 -142.5v-91q0 -77 -11.5 -138t-44.5 -103.5t-92.5 -65t-156.5 -22.5zM322 831q0 -32 -14 -46t-46 -14t-46 14t-14 46t14 46t46 14t46 -14t14 -46zM508 831q0 -32 -14 -46t-46 -14t-46 14t-14 46t14 46
t46 14t46 -14t14 -46z" />
    <glyph glyph-name="multiply" unicode="&#xd7;" horiz-adv-x="595" 
d="M365 337l140 -138l-68 -68l-138 139l-140 -141l-69 68l142 142l-140 140l68 66l139 -140l136 136l68 -66z" />
    <glyph glyph-name="Oslash" unicode="&#xd8;" horiz-adv-x="710" 
d="M69 -90l67 127q-51 41 -68.5 109t-17.5 165v91q0 77 11.5 138t44.5 103.5t92.5 65t156.5 22.5q79 0 135 -15l46 87h91l-63 -120q57 -40 76.5 -110t19.5 -171v-91q0 -77 -11.5 -138t-44.5 -103.5t-92.5 -65t-156.5 -22.5q-45 0 -81.5 5t-66.5 14l-47 -91h-91zM355 73
q60 0 97.5 8.5t59.5 34.5t30 73.5t8 125.5v83q0 74 -7 120t-27 73l-265 -507q20 -6 46 -8.5t58 -2.5zM160 315q0 -66 5.5 -110t20.5 -71l261 498q-19 5 -41.5 6.5t-50.5 1.5q-60 0 -97.5 -8.5t-59.5 -34.5t-30 -73.5t-8 -125.5v-83z" />
    <glyph glyph-name="Ugrave" unicode="&#xd9;" horiz-adv-x="680" 
d="M340 -18q-86 0 -139.5 20t-83.5 59t-41 96t-11 130v425h105v-427q0 -63 7 -104t26 -65t52 -33.5t85 -9.5t85 9.5t52 33.5t26 65t7 104v427h105v-425q0 -73 -11 -130t-41 -96t-84 -59t-139 -20zM310 892l114 -119h-109l-137 119h132z" />
    <glyph glyph-name="Uacute" unicode="&#xda;" horiz-adv-x="680" 
d="M340 -18q-86 0 -139.5 20t-83.5 59t-41 96t-11 130v425h105v-427q0 -63 7 -104t26 -65t52 -33.5t85 -9.5t85 9.5t52 33.5t26 65t7 104v427h105v-425q0 -73 -11 -130t-41 -96t-84 -59t-139 -20zM496 892l-137 -119h-109l114 119h132z" />
    <glyph glyph-name="Ucircumflex" unicode="&#xdb;" horiz-adv-x="680" 
d="M340 -18q-86 0 -139.5 20t-83.5 59t-41 96t-11 130v425h105v-427q0 -63 7 -104t26 -65t52 -33.5t85 -9.5t85 9.5t52 33.5t26 65t7 104v427h105v-425q0 -73 -11 -130t-41 -96t-84 -59t-139 -20zM340 836l-69 -63h-106l117 118h117l117 -118h-106z" />
    <glyph glyph-name="Udieresis" unicode="&#xdc;" horiz-adv-x="680" 
d="M340 -18q-86 0 -139.5 20t-83.5 59t-41 96t-11 130v425h105v-427q0 -63 7 -104t26 -65t52 -33.5t85 -9.5t85 9.5t52 33.5t26 65t7 104v427h105v-425q0 -73 -11 -130t-41 -96t-84 -59t-139 -20zM307 831q0 -32 -14 -46t-46 -14t-46 14t-14 46t14 46t46 14t46 -14t14 -46z
M493 831q0 -32 -14 -46t-46 -14t-46 14t-14 46t14 46t46 14t46 -14t14 -46z" />
    <glyph glyph-name="Yacute" unicode="&#xdd;" horiz-adv-x="652" 
d="M129 712l201 -322l198 322h114l-262 -413v-299h-105v299l-265 413h119zM478 892l-137 -119h-109l114 119h132z" />
    <glyph glyph-name="Thorn" unicode="&#xde;" horiz-adv-x="615" 
d="M177 576h163q125 0 185 -46t60 -149v-44q0 -103 -60 -149t-185 -46h-163v-142h-105v712h105v-136zM480 365q0 36 -7.5 59t-24 36t-43 17.5t-65.5 4.5h-163v-246h163q39 0 65.5 4.5t43 17.5t24 36t7.5 59v12z" />
    <glyph glyph-name="germandbls" unicode="&#xdf;" horiz-adv-x="568" 
d="M497 555q0 -53 -26 -91t-67 -52q67 -13 95.5 -56.5t28.5 -118.5v-31q0 -102 -54 -155t-182 -53q-18 0 -34 0.5t-27 1.5l18 87q11 -1 26 -1.5t26 -0.5q31 0 53.5 5t37.5 18.5t22.5 37t7.5 60.5v30q0 66 -25 96.5t-92 30.5h-71l18 87h40q54 0 79.5 23t25.5 78v14
q0 53 -24.5 78t-86.5 25q-67 0 -95 -33t-28 -111v-524h-105v524q0 110 56.5 168t171.5 58q59 0 99.5 -12t65 -35t35.5 -57t11 -77v-14z" />
    <glyph glyph-name="agrave" unicode="&#xe0;" horiz-adv-x="546" 
d="M138 155q0 -35 21 -52.5t77 -17.5h152v92q0 19 -4 33t-16 22.5t-35 12.5t-61 4h-23q-33 0 -54.5 -3.5t-34 -12t-17.5 -22.5t-5 -35v-21zM488 86q0 -48 -22 -67t-80 -19h-150q-105 0 -150.5 38.5t-45.5 115.5v22q0 84 49.5 120t154.5 36q60 0 94 -9.5t50 -20.5v30
q0 25 -3.5 43.5t-17 31t-39 19t-69.5 6.5q-42 0 -89.5 -0.5t-81.5 -1.5l19 87q28 1 69 1.5t83 0.5q121 0 175 -42.5t54 -125.5v-265zM360 599h-103l-117 126h117z" />
    <glyph glyph-name="aacute" unicode="&#xe1;" horiz-adv-x="546" 
d="M138 155q0 -35 21 -52.5t77 -17.5h152v92q0 19 -4 33t-16 22.5t-35 12.5t-61 4h-23q-33 0 -54.5 -3.5t-34 -12t-17.5 -22.5t-5 -35v-21zM488 86q0 -48 -22 -67t-80 -19h-150q-105 0 -150.5 38.5t-45.5 115.5v22q0 84 49.5 120t154.5 36q60 0 94 -9.5t50 -20.5v30
q0 25 -3.5 43.5t-17 31t-39 19t-69.5 6.5q-42 0 -89.5 -0.5t-81.5 -1.5l19 87q28 1 69 1.5t83 0.5q121 0 175 -42.5t54 -125.5v-265zM297 725h117l-117 -126h-103z" />
    <glyph glyph-name="acircumflex" unicode="&#xe2;" horiz-adv-x="546" 
d="M138 155q0 -35 21 -52.5t77 -17.5h152v92q0 19 -4 33t-16 22.5t-35 12.5t-61 4h-23q-33 0 -54.5 -3.5t-34 -12t-17.5 -22.5t-5 -35v-21zM488 86q0 -48 -22 -67t-80 -19h-150q-105 0 -150.5 38.5t-45.5 115.5v22q0 84 49.5 120t154.5 36q60 0 94 -9.5t50 -20.5v30
q0 25 -3.5 43.5t-17 31t-39 19t-69.5 6.5q-42 0 -89.5 -0.5t-81.5 -1.5l19 87q28 1 69 1.5t83 0.5q121 0 175 -42.5t54 -125.5v-265zM329 726l105 -127h-96l-64 72l-64 -72h-96l105 127h110z" />
    <glyph glyph-name="atilde" unicode="&#xe3;" horiz-adv-x="546" 
d="M138 155q0 -35 21 -52.5t77 -17.5h152v92q0 19 -4 33t-16 22.5t-35 12.5t-61 4h-23q-33 0 -54.5 -3.5t-34 -12t-17.5 -22.5t-5 -35v-21zM488 86q0 -48 -22 -67t-80 -19h-150q-105 0 -150.5 38.5t-45.5 115.5v22q0 84 49.5 120t154.5 36q60 0 94 -9.5t50 -20.5v30
q0 25 -3.5 43.5t-17 31t-39 19t-69.5 6.5q-42 0 -89.5 -0.5t-81.5 -1.5l19 87q28 1 69 1.5t83 0.5q121 0 175 -42.5t54 -125.5v-265zM241 632q-9 5 -17.5 8t-18.5 3q-11 0 -17.5 -6t-6.5 -27v-13h-74v15q0 33 6.5 54.5t18 33.5t27.5 16.5t36 4.5q19 0 35.5 -4.5t39.5 -15.5
l32 -15q9 -5 17.5 -8t18.5 -3q11 0 17.5 6t6.5 27v13h74v-15q0 -33 -6.5 -54.5t-18 -33.5t-28 -16.5t-35.5 -4.5t-35.5 4.5t-39.5 15.5z" />
    <glyph glyph-name="adieresis" unicode="&#xe4;" horiz-adv-x="546" 
d="M138 155q0 -35 21 -52.5t77 -17.5h152v92q0 19 -4 33t-16 22.5t-35 12.5t-61 4h-23q-33 0 -54.5 -3.5t-34 -12t-17.5 -22.5t-5 -35v-21zM488 86q0 -48 -22 -67t-80 -19h-150q-105 0 -150.5 38.5t-45.5 115.5v22q0 84 49.5 120t154.5 36q60 0 94 -9.5t50 -20.5v30
q0 25 -3.5 43.5t-17 31t-39 19t-69.5 6.5q-42 0 -89.5 -0.5t-81.5 -1.5l19 87q28 1 69 1.5t83 0.5q121 0 175 -42.5t54 -125.5v-265zM257 663q0 -31 -13.5 -45t-45.5 -14t-45.5 14t-13.5 45t13.5 45t45.5 14t45.5 -14t13.5 -45zM429 663q0 -31 -13.5 -45t-45.5 -14t-45.5 14
t-13.5 45t13.5 45t45.5 14t45.5 -14t13.5 -45z" />
    <glyph glyph-name="aring" unicode="&#xe5;" horiz-adv-x="546" 
d="M138 155q0 -35 21 -52.5t77 -17.5h152v92q0 19 -4 33t-16 22.5t-35 12.5t-61 4h-23q-33 0 -54.5 -3.5t-34 -12t-17.5 -22.5t-5 -35v-21zM488 86q0 -48 -22 -67t-80 -19h-150q-105 0 -150.5 38.5t-45.5 115.5v22q0 84 49.5 120t154.5 36q60 0 94 -9.5t50 -20.5v30
q0 25 -3.5 43.5t-17 31t-39 19t-69.5 6.5q-42 0 -89.5 -0.5t-81.5 -1.5l19 87q28 1 69 1.5t83 0.5q121 0 175 -42.5t54 -125.5v-265zM142 689q0 62 33.5 91.5t95.5 29.5t95.5 -29.5t33.5 -91.5t-33.5 -91.5t-95.5 -29.5t-95.5 29.5t-33.5 91.5zM329 689q0 35 -12.5 46.5
t-45.5 11.5t-45.5 -11.5t-12.5 -46.5t12.5 -46.5t45.5 -11.5t45.5 11.5t12.5 46.5z" />
    <glyph glyph-name="ae" unicode="&#xe6;" horiz-adv-x="876" 
d="M832 341q0 -36 -4 -57t-13 -32.5t-22.5 -15t-32.5 -3.5h-274q0 -47 4 -75.5t16.5 -45t36 -22t62.5 -5.5h43.5h40t46 0.5t62.5 1.5l-18 -87q-48 -1 -87.5 -1.5t-85.5 -0.5q-65 0 -107.5 13t-68.5 55q-14 -19 -30.5 -31.5t-38.5 -20t-49.5 -11t-63.5 -3.5h-12
q-45 0 -81.5 8t-62 26t-39 47.5t-13.5 72.5v11q0 86 48 120.5t134 34.5h164v19q0 27 -7.5 45t-23.5 28.5t-42.5 15t-63.5 4.5q-40 0 -83.5 -0.5t-77.5 -1.5l19 87q28 1 67.5 1.5t89.5 0.5q61 0 106 -12.5t66 -46.5q21 35 66.5 54t111.5 19q108 0 163 -44.5t55 -137.5v-10z
M247 85q42 0 69 5t42.5 20t21.5 42t6 71v15h-163q-48 0 -66.5 -15t-18.5 -57v-11q0 -41 25 -55.5t69 -14.5h15zM610 450q-37 0 -61 -5t-38 -20t-19.5 -41.5t-5.5 -69.5h247v23q0 34 -6 56t-20.5 34.5t-38 17.5t-58.5 5z" />
    <glyph glyph-name="ccedilla" unicode="&#xe7;" horiz-adv-x="471" 
d="M287 432q-41 0 -67 -4.5t-41 -20t-20.5 -44.5t-5.5 -78v-53q0 -49 6 -78t21.5 -44.5t41.5 -20t65 -4.5q55 0 86.5 0.5t55.5 1.5l-18 -87q-26 -1 -62 -1.5t-62 -0.5q-67 0 -113 12t-74.5 40t-41 72.5t-12.5 109.5v53q0 65 12.5 109.5t41 72.5t74.5 40t113 12
q29 0 66.5 -0.5t73.5 -2.5l-18 -87q-41 2 -69 2.5t-53 0.5zM253 -117q0 13 -6 18t-23 5h-23.5t-24.5 -1l17 60q10 1 24 1h28q52 0 74.5 -17t22.5 -59v-9q0 -45 -25 -64t-90 -19q-23 0 -47.5 1t-34.5 2l20 61q14 -1 30.5 -1.5t28.5 -0.5q17 0 23 5t6 18z" />
    <glyph glyph-name="egrave" unicode="&#xe8;" horiz-adv-x="543" 
d="M151 220q0 -42 4.5 -68t18 -41t37.5 -20.5t64 -5.5h73.5t115.5 2l-18 -87q-31 -1 -53 -1.5t-40.5 -0.5h-36.5h-41q-71 0 -115.5 16.5t-70 47t-34.5 74t-9 96.5v56q0 57 9.5 102.5t35 77t71 48.5t118.5 17q67 0 109.5 -15.5t67 -42t33.5 -61t9 -71.5v-15q0 -36 -4 -57
t-13 -32.5t-22.5 -15t-32.5 -3.5h-276zM275 450q-40 0 -64 -6t-37.5 -22.5t-18 -45.5t-4.5 -75h249v34q0 33 -5.5 55.5t-20 35.5t-38.5 18.5t-61 5.5zM371 599h-103l-117 126h117z" />
    <glyph glyph-name="eacute" unicode="&#xe9;" horiz-adv-x="543" 
d="M151 220q0 -42 4.5 -68t18 -41t37.5 -20.5t64 -5.5h73.5t115.5 2l-18 -87q-31 -1 -53 -1.5t-40.5 -0.5h-36.5h-41q-71 0 -115.5 16.5t-70 47t-34.5 74t-9 96.5v56q0 57 9.5 102.5t35 77t71 48.5t118.5 17q67 0 109.5 -15.5t67 -42t33.5 -61t9 -71.5v-15q0 -36 -4 -57
t-13 -32.5t-22.5 -15t-32.5 -3.5h-276zM275 450q-40 0 -64 -6t-37.5 -22.5t-18 -45.5t-4.5 -75h249v34q0 33 -5.5 55.5t-20 35.5t-38.5 18.5t-61 5.5zM299 725h117l-117 -126h-103z" />
    <glyph glyph-name="ecircumflex" unicode="&#xea;" horiz-adv-x="543" 
d="M151 220q0 -42 4.5 -68t18 -41t37.5 -20.5t64 -5.5h73.5t115.5 2l-18 -87q-31 -1 -53 -1.5t-40.5 -0.5h-36.5h-41q-71 0 -115.5 16.5t-70 47t-34.5 74t-9 96.5v56q0 57 9.5 102.5t35 77t71 48.5t118.5 17q67 0 109.5 -15.5t67 -42t33.5 -61t9 -71.5v-15q0 -36 -4 -57
t-13 -32.5t-22.5 -15t-32.5 -3.5h-276zM275 450q-40 0 -64 -6t-37.5 -22.5t-18 -45.5t-4.5 -75h249v34q0 33 -5.5 55.5t-20 35.5t-38.5 18.5t-61 5.5zM329 726l105 -127h-96l-64 72l-64 -72h-96l105 127h110z" />
    <glyph glyph-name="edieresis" unicode="&#xeb;" horiz-adv-x="543" 
d="M151 220q0 -42 4.5 -68t18 -41t37.5 -20.5t64 -5.5h73.5t115.5 2l-18 -87q-31 -1 -53 -1.5t-40.5 -0.5h-36.5h-41q-71 0 -115.5 16.5t-70 47t-34.5 74t-9 96.5v56q0 57 9.5 102.5t35 77t71 48.5t118.5 17q67 0 109.5 -15.5t67 -42t33.5 -61t9 -71.5v-15q0 -36 -4 -57
t-13 -32.5t-22.5 -15t-32.5 -3.5h-276zM275 450q-40 0 -64 -6t-37.5 -22.5t-18 -45.5t-4.5 -75h249v34q0 33 -5.5 55.5t-20 35.5t-38.5 18.5t-61 5.5zM256 663q0 -31 -13.5 -45t-45.5 -14t-45.5 14t-13.5 45t13.5 45t45.5 14t45.5 -14t13.5 -45zM428 663q0 -31 -13.5 -45
t-45.5 -14t-45.5 14t-13.5 45t13.5 45t45.5 14t45.5 -14t13.5 -45z" />
    <glyph glyph-name="igrave" unicode="&#xec;" horiz-adv-x="221" 
d="M58 517h105v-517h-105v517zM178 599h-103l-117 126h117z" />
    <glyph glyph-name="iacute" unicode="&#xed;" horiz-adv-x="221" 
d="M58 517h105v-517h-105v517zM148 725h117l-117 -126h-103z" />
    <glyph glyph-name="icircumflex" unicode="&#xee;" horiz-adv-x="221" 
d="M58 517h105v-517h-105v517zM166 726l105 -127h-96l-64 72l-64 -72h-96l105 127h110z" />
    <glyph glyph-name="idieresis" unicode="&#xef;" horiz-adv-x="221" 
d="M58 517h105v-517h-105v517zM84 663q0 -31 -13.5 -45t-45.5 -14t-45.5 14t-13.5 45t13.5 45t45.5 14t45.5 -14t13.5 -45zM256 663q0 -31 -13.5 -45t-45.5 -14t-45.5 14t-13.5 45t13.5 45t45.5 14t45.5 -14t13.5 -45z" />
    <glyph glyph-name="eth" unicode="&#xf0;" horiz-adv-x="583" 
d="M537 614l-59 -20q26 -48 38 -113t12 -157v-118q0 -51 -9 -92.5t-35.5 -70t-73.5 -44t-123 -15.5t-123 15.5t-73.5 44t-35.5 70t-9 92.5v46q0 62 13 104.5t40 68.5t70 37.5t103 11.5q54 0 89.5 -10t59.5 -30q-3 76 -35 128l-141 -49l-22 66l112 40q-33 27 -84 52l60 71
q38 -19 69 -40.5t55 -47.5l79 28zM421 268q0 36 -5 59t-19 36.5t-40.5 19t-69.5 5.5q-41 0 -67 -5t-41 -20t-20.5 -43.5t-5.5 -75.5v-30q0 -44 3.5 -71.5t17 -44t40 -22.5t73.5 -6t74 6t40.5 22.5t16.5 44t3 71.5v54z" />
    <glyph glyph-name="ntilde" unicode="&#xf1;" horiz-adv-x="574" 
d="M58 0v365q0 90 55.5 129t173.5 39t173.5 -39t55.5 -129v-365h-105v344q0 25 -3 44t-15 32t-37 19.5t-69 6.5t-69 -6.5t-37 -19.5t-15 -32t-3 -44v-344h-105zM257 632q-9 5 -17.5 8t-18.5 3q-11 0 -17.5 -6t-6.5 -27v-13h-74v15q0 33 6.5 54.5t18 33.5t27.5 16.5t36 4.5
q19 0 35.5 -4.5t39.5 -15.5l32 -15q9 -5 17.5 -8t18.5 -3q11 0 17.5 6t6.5 27v13h74v-15q0 -33 -6.5 -54.5t-18 -33.5t-28 -16.5t-35.5 -4.5t-35.5 4.5t-39.5 15.5z" />
    <glyph glyph-name="ograve" unicode="&#xf2;" horiz-adv-x="574" 
d="M287 533q65 0 110.5 -11.5t74.5 -40t42.5 -76t13.5 -119.5v-55q0 -72 -13.5 -119.5t-42.5 -76t-74.5 -40t-110.5 -11.5t-110.5 11.5t-74.5 40t-42.5 76t-13.5 119.5v55q0 72 13.5 119.5t42.5 76t74.5 40t110.5 11.5zM421 286q0 53 -5.5 84.5t-20 48.5t-40.5 22.5t-68 5.5
t-68 -5.5t-40.5 -22.5t-20 -48.5t-5.5 -84.5v-55q0 -53 5.5 -84.5t20 -48.5t40.5 -22.5t68 -5.5t68 5.5t40.5 22.5t20 48.5t5.5 84.5v55zM370 599h-103l-117 126h117z" />
    <glyph glyph-name="oacute" unicode="&#xf3;" horiz-adv-x="574" 
d="M287 533q65 0 110.5 -11.5t74.5 -40t42.5 -76t13.5 -119.5v-55q0 -72 -13.5 -119.5t-42.5 -76t-74.5 -40t-110.5 -11.5t-110.5 11.5t-74.5 40t-42.5 76t-13.5 119.5v55q0 72 13.5 119.5t42.5 76t74.5 40t110.5 11.5zM421 286q0 53 -5.5 84.5t-20 48.5t-40.5 22.5t-68 5.5
t-68 -5.5t-40.5 -22.5t-20 -48.5t-5.5 -84.5v-55q0 -53 5.5 -84.5t20 -48.5t40.5 -22.5t68 -5.5t68 5.5t40.5 22.5t20 48.5t5.5 84.5v55zM307 725h117l-117 -126h-103z" />
    <glyph glyph-name="ocircumflex" unicode="&#xf4;" horiz-adv-x="574" 
d="M287 533q65 0 110.5 -11.5t74.5 -40t42.5 -76t13.5 -119.5v-55q0 -72 -13.5 -119.5t-42.5 -76t-74.5 -40t-110.5 -11.5t-110.5 11.5t-74.5 40t-42.5 76t-13.5 119.5v55q0 72 13.5 119.5t42.5 76t74.5 40t110.5 11.5zM421 286q0 53 -5.5 84.5t-20 48.5t-40.5 22.5t-68 5.5
t-68 -5.5t-40.5 -22.5t-20 -48.5t-5.5 -84.5v-55q0 -53 5.5 -84.5t20 -48.5t40.5 -22.5t68 -5.5t68 5.5t40.5 22.5t20 48.5t5.5 84.5v55zM342 726l105 -127h-96l-64 72l-64 -72h-96l105 127h110z" />
    <glyph glyph-name="otilde" unicode="&#xf5;" horiz-adv-x="574" 
d="M287 533q65 0 110.5 -11.5t74.5 -40t42.5 -76t13.5 -119.5v-55q0 -72 -13.5 -119.5t-42.5 -76t-74.5 -40t-110.5 -11.5t-110.5 11.5t-74.5 40t-42.5 76t-13.5 119.5v55q0 72 13.5 119.5t42.5 76t74.5 40t110.5 11.5zM421 286q0 53 -5.5 84.5t-20 48.5t-40.5 22.5t-68 5.5
t-68 -5.5t-40.5 -22.5t-20 -48.5t-5.5 -84.5v-55q0 -53 5.5 -84.5t20 -48.5t40.5 -22.5t68 -5.5t68 5.5t40.5 22.5t20 48.5t5.5 84.5v55zM257 632q-9 5 -17.5 8t-18.5 3q-11 0 -17.5 -6t-6.5 -27v-13h-74v15q0 33 6.5 54.5t18 33.5t27.5 16.5t36 4.5q19 0 35.5 -4.5
t39.5 -15.5l32 -15q9 -5 17.5 -8t18.5 -3q11 0 17.5 6t6.5 27v13h74v-15q0 -33 -6.5 -54.5t-18 -33.5t-28 -16.5t-35.5 -4.5t-35.5 4.5t-39.5 15.5z" />
    <glyph glyph-name="odieresis" unicode="&#xf6;" horiz-adv-x="574" 
d="M287 533q65 0 110.5 -11.5t74.5 -40t42.5 -76t13.5 -119.5v-55q0 -72 -13.5 -119.5t-42.5 -76t-74.5 -40t-110.5 -11.5t-110.5 11.5t-74.5 40t-42.5 76t-13.5 119.5v55q0 72 13.5 119.5t42.5 76t74.5 40t110.5 11.5zM421 286q0 53 -5.5 84.5t-20 48.5t-40.5 22.5t-68 5.5
t-68 -5.5t-40.5 -22.5t-20 -48.5t-5.5 -84.5v-55q0 -53 5.5 -84.5t20 -48.5t40.5 -22.5t68 -5.5t68 5.5t40.5 22.5t20 48.5t5.5 84.5v55zM260 663q0 -31 -13.5 -45t-45.5 -14t-45.5 14t-13.5 45t13.5 45t45.5 14t45.5 -14t13.5 -45zM432 663q0 -31 -13.5 -45t-45.5 -14
t-45.5 14t-13.5 45t13.5 45t45.5 14t45.5 -14t13.5 -45z" />
    <glyph glyph-name="divide" unicode="&#xf7;" horiz-adv-x="595" 
d="M81 384h432v-87h-432v87zM297 243q39 0 51 -16t12 -47t-12 -47t-51 -16t-51 16t-12 47t12 47t51 16zM297 563q39 0 51 -16t12 -47t-12 -47t-51 -16t-51 16t-12 47t12 47t51 16z" />
    <glyph glyph-name="oslash" unicode="&#xf8;" horiz-adv-x="574" 
d="M287 533q26 0 48.5 -2t42.5 -6l31 62h79l-42 -85q43 -26 62.5 -77.5t19.5 -138.5v-55q0 -72 -13.5 -119.5t-42.5 -76t-74.5 -40t-110.5 -11.5q-50 0 -93 8l-30 -62h-79l42 85q-43 26 -62 77.5t-19 138.5v55q0 72 13.5 119.5t42.5 76t74.5 40t110.5 11.5zM421 286
q0 48 -4.5 78t-15.5 47l-167 -339q11 -2 24 -2h29q42 0 68 5.5t40.5 22.5t20 48.5t5.5 84.5v55zM153 231q0 -47 4 -77t15 -48l166 338q-21 3 -51 3q-42 0 -68 -5.5t-40.5 -22.5t-20 -48.5t-5.5 -84.5v-55z" />
    <glyph glyph-name="ugrave" unicode="&#xf9;" horiz-adv-x="569" 
d="M285 -16q-113 0 -170 38t-57 130v365h105v-344q0 -25 3 -44t15 -32t36.5 -19.5t67.5 -6.5t67 6.5t36 19.5t15 32t3 44v344h105v-365q0 -92 -57 -130t-169 -38zM373 599h-103l-117 126h117z" />
    <glyph glyph-name="uacute" unicode="&#xfa;" horiz-adv-x="569" 
d="M285 -16q-113 0 -170 38t-57 130v365h105v-344q0 -25 3 -44t15 -32t36.5 -19.5t67.5 -6.5t67 6.5t36 19.5t15 32t3 44v344h105v-365q0 -92 -57 -130t-169 -38zM304 725h117l-117 -126h-103z" />
    <glyph glyph-name="ucircumflex" unicode="&#xfb;" horiz-adv-x="569" 
d="M285 -16q-113 0 -170 38t-57 130v365h105v-344q0 -25 3 -44t15 -32t36.5 -19.5t67.5 -6.5t67 6.5t36 19.5t15 32t3 44v344h105v-365q0 -92 -57 -130t-169 -38zM339 726l105 -127h-96l-64 72l-64 -72h-96l105 127h110z" />
    <glyph glyph-name="udieresis" unicode="&#xfc;" horiz-adv-x="569" 
d="M285 -16q-113 0 -170 38t-57 130v365h105v-344q0 -25 3 -44t15 -32t36.5 -19.5t67.5 -6.5t67 6.5t36 19.5t15 32t3 44v344h105v-365q0 -92 -57 -130t-169 -38zM257 663q0 -31 -13.5 -45t-45.5 -14t-45.5 14t-13.5 45t13.5 45t45.5 14t45.5 -14t13.5 -45zM429 663
q0 -31 -13.5 -45t-45.5 -14t-45.5 14t-13.5 45t13.5 45t45.5 14t45.5 -14t13.5 -45z" />
    <glyph glyph-name="yacute" unicode="&#xfd;" horiz-adv-x="569" 
d="M107 -88q50 -2 87 -2h76q37 0 63 6.5t42.5 22t23.5 42.5t7 69v11q-9 -8 -20 -16t-27.5 -14t-41 -9.5t-60.5 -3.5q-96 0 -147.5 36.5t-51.5 128.5v334h105v-310q0 -25 2.5 -44t13 -32t33 -19.5t61.5 -6.5q43 0 69 5.5t40 19t19 35t5 53.5v299h105v-467q0 -62 -13.5 -105
t-43 -70t-75 -39.5t-108.5 -12.5h-43h-41t-45 0.5t-54 1.5zM304 725h117l-117 -126h-103z" />
    <glyph glyph-name="thorn" unicode="&#xfe;" horiz-adv-x="580" 
d="M295 447q-40 0 -65.5 -6t-40.5 -22t-20.5 -43.5t-5.5 -69.5v-104q0 -38 6.5 -63t22 -40.5t41 -22t62.5 -6.5q44 0 70 7t40 25t18 50.5t4 83.5v45q0 51 -5 83.5t-19.5 50.5t-40.5 25t-67 7zM309 533q68 0 112 -17t69 -49t34.5 -77.5t9.5 -102.5v-57q0 -60 -10 -105.5
t-35.5 -77t-70 -47.5t-114.5 -16q-54 0 -87 11.5t-53 29.5v-200h-106v918h105v-251q19 17 54 29t92 12z" />
    <glyph glyph-name="ydieresis" unicode="&#xff;" horiz-adv-x="569" 
d="M107 -88q50 -2 87 -2h76q37 0 63 6.5t42.5 22t23.5 42.5t7 69v11q-9 -8 -20 -16t-27.5 -14t-41 -9.5t-60.5 -3.5q-96 0 -147.5 36.5t-51.5 128.5v334h105v-310q0 -25 2.5 -44t13 -32t33 -19.5t61.5 -6.5q43 0 69 5.5t40 19t19 35t5 53.5v299h105v-467q0 -62 -13.5 -105
t-43 -70t-75 -39.5t-108.5 -12.5h-43h-41t-45 0.5t-54 1.5zM257 663q0 -31 -13.5 -45t-45.5 -14t-45.5 14t-13.5 45t13.5 45t45.5 14t45.5 -14t13.5 -45zM429 663q0 -31 -13.5 -45t-45.5 -14t-45.5 14t-13.5 45t13.5 45t45.5 14t45.5 -14t13.5 -45z" />
    <glyph glyph-name="Amacron" unicode="&#x100;" horiz-adv-x="690" 
d="M488 204h-293l-74 -204h-106l272 712h116l272 -712h-112zM227 294h228l-114 312zM201 872h289v-81h-289v81z" />
    <glyph glyph-name="amacron" unicode="&#x101;" horiz-adv-x="546" 
d="M138 155q0 -35 21 -52.5t77 -17.5h152v92q0 19 -4 33t-16 22.5t-35 12.5t-61 4h-23q-33 0 -54.5 -3.5t-34 -12t-17.5 -22.5t-5 -35v-21zM488 86q0 -48 -22 -67t-80 -19h-150q-105 0 -150.5 38.5t-45.5 115.5v22q0 84 49.5 120t154.5 36q60 0 94 -9.5t50 -20.5v30
q0 25 -3.5 43.5t-17 31t-39 19t-69.5 6.5q-42 0 -89.5 -0.5t-81.5 -1.5l19 87q28 1 69 1.5t83 0.5q121 0 175 -42.5t54 -125.5v-265zM135 700h289v-81h-289v81z" />
    <glyph glyph-name="Abreve" unicode="&#x102;" horiz-adv-x="690" 
d="M488 204h-293l-74 -204h-106l272 712h116l272 -712h-112zM227 294h228l-114 312zM345 768q-84 0 -120.5 32t-37.5 102h93q0 -32 14 -47.5t51 -15.5t51 15.5t14 47.5h93q-1 -70 -37.5 -102t-120.5 -32z" />
    <glyph glyph-name="abreve" unicode="&#x103;" horiz-adv-x="546" 
d="M138 155q0 -35 21 -52.5t77 -17.5h152v92q0 19 -4 33t-16 22.5t-35 12.5t-61 4h-23q-33 0 -54.5 -3.5t-34 -12t-17.5 -22.5t-5 -35v-21zM488 86q0 -48 -22 -67t-80 -19h-150q-105 0 -150.5 38.5t-45.5 115.5v22q0 84 49.5 120t154.5 36q60 0 94 -9.5t50 -20.5v30
q0 25 -3.5 43.5t-17 31t-39 19t-69.5 6.5q-42 0 -89.5 -0.5t-81.5 -1.5l19 87q28 1 69 1.5t83 0.5q121 0 175 -42.5t54 -125.5v-265zM274 594q-84 0 -119.5 32.5t-36.5 97.5h93q0 -28 13 -43t50 -15t50 15t13 43h93q-1 -65 -36.5 -97.5t-119.5 -32.5z" />
    <glyph glyph-name="Aogonek" unicode="&#x104;" horiz-adv-x="690" 
d="M488 204h-293l-74 -204h-106l272 712h116l272 -712q-42 -32 -60.5 -54t-18.5 -41q0 -11 6.5 -15.5t26.5 -4.5h45l-17 -79h-58q-44 0 -67.5 15t-23.5 56q0 28 19 61t57 62h-21zM227 294h228l-114 312z" />
    <glyph glyph-name="aogonek" unicode="&#x105;" horiz-adv-x="546" 
d="M236 0q-45 0 -81.5 8t-62 26t-39 47.5t-13.5 72.5v22q0 85 49 120.5t155 35.5q60 0 94 -9.5t50 -20.5v30q0 25 -3.5 43.5t-17 31t-39 19t-69.5 6.5q-42 0 -89.5 -0.5t-81.5 -1.5l19 87q28 1 69.5 1.5t83.5 0.5q108 0 168 -38t60 -130v-265q0 -23 -4.5 -39t-15.5 -27
q-36 -35 -51.5 -65.5t-15.5 -49.5q0 -11 6.5 -15.5t26.5 -4.5h45l-17 -79h-58q-44 0 -67.5 15t-23.5 56q0 30 14.5 62.5t36.5 60.5h-128zM138 155q0 -41 25 -55.5t69 -14.5h156v92q0 19 -4 33t-16 22.5t-35 12.5t-61 4h-23q-33 0 -54.5 -3.5t-34 -12t-17.5 -22.5t-5 -35v-21
z" />
    <glyph glyph-name="Cacute" unicode="&#x106;" horiz-adv-x="565" 
d="M160 320q0 -71 8 -115.5t29 -69.5t57.5 -34t93.5 -9h81t106 2l-19 -94q-54 -2 -100 -2h-68q-86 0 -143.5 17.5t-92 55.5t-48.5 99.5t-14 149.5v73q0 92 15.5 153.5t50.5 99t91.5 53t139.5 15.5h79t103 -2l-19 -94q-15 0 -36 0.5l-43.5 1t-44.5 0.5h-41q-58 0 -94 -8
t-56.5 -32.5t-27.5 -69t-7 -117.5v-73zM484 892l-137 -119h-109l114 119h132z" />
    <glyph glyph-name="cacute" unicode="&#x107;" horiz-adv-x="471" 
d="M287 432q-41 0 -67 -4.5t-41 -20t-20.5 -44.5t-5.5 -78v-53q0 -49 6 -78t21.5 -44.5t41.5 -20t65 -4.5q55 0 86.5 0.5t55.5 1.5l-18 -87q-26 -1 -62 -1.5t-62 -0.5q-67 0 -113 12t-74.5 40t-41 72.5t-12.5 109.5v53q0 65 12.5 109.5t41 72.5t74.5 40t113 12
q29 0 66.5 -0.5t73.5 -2.5l-18 -87q-41 2 -69 2.5t-53 0.5zM299 725h117l-117 -126h-103z" />
    <glyph glyph-name="Ccircumflex" unicode="&#x108;" horiz-adv-x="565" 
d="M160 320q0 -71 8 -115.5t29 -69.5t57.5 -34t93.5 -9h81t106 2l-19 -94q-54 -2 -100 -2h-68q-86 0 -143.5 17.5t-92 55.5t-48.5 99.5t-14 149.5v73q0 92 15.5 153.5t50.5 99t91.5 53t139.5 15.5h79t103 -2l-19 -94q-15 0 -36 0.5l-43.5 1t-44.5 0.5h-41q-58 0 -94 -8
t-56.5 -32.5t-27.5 -69t-7 -117.5v-73zM338 836l-69 -63h-106l117 118h117l117 -118h-106z" />
    <glyph glyph-name="ccircumflex" unicode="&#x109;" horiz-adv-x="471" 
d="M287 432q-41 0 -67 -4.5t-41 -20t-20.5 -44.5t-5.5 -78v-53q0 -49 6 -78t21.5 -44.5t41.5 -20t65 -4.5q55 0 86.5 0.5t55.5 1.5l-18 -87q-26 -1 -62 -1.5t-62 -0.5q-67 0 -113 12t-74.5 40t-41 72.5t-12.5 109.5v53q0 65 12.5 109.5t41 72.5t74.5 40t113 12
q29 0 66.5 -0.5t73.5 -2.5l-18 -87q-41 2 -69 2.5t-53 0.5zM316 726l105 -127h-96l-64 72l-64 -72h-96l105 127h110z" />
    <glyph glyph-name="Cdotaccent" unicode="&#x10a;" horiz-adv-x="565" 
d="M160 320q0 -71 8 -115.5t29 -69.5t57.5 -34t93.5 -9h81t106 2l-19 -94q-54 -2 -100 -2h-68q-86 0 -143.5 17.5t-92 55.5t-48.5 99.5t-14 149.5v73q0 92 15.5 153.5t50.5 99t91.5 53t139.5 15.5h79t103 -2l-19 -94q-15 0 -36 0.5l-43.5 1t-44.5 0.5h-41q-58 0 -94 -8
t-56.5 -32.5t-27.5 -69t-7 -117.5v-73zM407 828q0 -35 -15.5 -50.5t-50.5 -15.5t-50.5 15.5t-15.5 50.5t15.5 50.5t50.5 15.5t50.5 -15.5t15.5 -50.5z" />
    <glyph glyph-name="cdotaccent" unicode="&#x10b;" horiz-adv-x="471" 
d="M287 432q-41 0 -67 -4.5t-41 -20t-20.5 -44.5t-5.5 -78v-53q0 -49 6 -78t21.5 -44.5t41.5 -20t65 -4.5q55 0 86.5 0.5t55.5 1.5l-18 -87q-26 -1 -62 -1.5t-62 -0.5q-67 0 -113 12t-74.5 40t-41 72.5t-12.5 109.5v53q0 65 12.5 109.5t41 72.5t74.5 40t113 12
q29 0 66.5 -0.5t73.5 -2.5l-18 -87q-41 2 -69 2.5t-53 0.5zM337 670q0 -35 -15.5 -50.5t-50.5 -15.5t-50.5 15.5t-15.5 50.5t15.5 50.5t50.5 15.5t50.5 -15.5t15.5 -50.5z" />
    <glyph glyph-name="Ccaron" unicode="&#x10c;" horiz-adv-x="565" 
d="M160 320q0 -71 8 -115.5t29 -69.5t57.5 -34t93.5 -9h81t106 2l-19 -94q-54 -2 -100 -2h-68q-86 0 -143.5 17.5t-92 55.5t-48.5 99.5t-14 149.5v73q0 92 15.5 153.5t50.5 99t91.5 53t139.5 15.5h79t103 -2l-19 -94q-15 0 -36 0.5l-43.5 1t-44.5 0.5h-41q-58 0 -94 -8
t-56.5 -32.5t-27.5 -69t-7 -117.5v-73zM271 891l69 -63l70 63h106l-117 -118h-117l-117 118h106z" />
    <glyph glyph-name="ccaron" unicode="&#x10d;" horiz-adv-x="471" 
d="M287 432q-41 0 -67 -4.5t-41 -20t-20.5 -44.5t-5.5 -78v-53q0 -49 6 -78t21.5 -44.5t41.5 -20t65 -4.5q55 0 86.5 0.5t55.5 1.5l-18 -87q-26 -1 -62 -1.5t-62 -0.5q-67 0 -113 12t-74.5 40t-41 72.5t-12.5 109.5v53q0 65 12.5 109.5t41 72.5t74.5 40t113 12
q29 0 66.5 -0.5t73.5 -2.5l-18 -87q-41 2 -69 2.5t-53 0.5zM208 599l-105 127h96l64 -72l64 72h96l-105 -127h-110z" />
    <glyph glyph-name="Dcaron" unicode="&#x10e;" horiz-adv-x="687" 
d="M72 712h258q89 0 148 -20t94.5 -59.5t50 -98.5t14.5 -137v-81q0 -79 -14.5 -138t-50 -98.5t-94.5 -59.5t-148 -20h-258v712zM177 94h153q54 0 92 9t61 34t33.5 70t10.5 116v67q0 72 -10.5 116.5t-33.5 69t-61 33.5t-92 9h-153v-524zM262 891l69 -63l70 63h106l-117 -118
h-117l-117 118h106z" />
    <glyph glyph-name="dcaron" unicode="&#x10f;" horiz-adv-x="655" 
d="M417 86v233q0 39 -6 64t-21 39.5t-41 19.5t-66 5q-42 0 -67.5 -6.5t-39.5 -24t-18.5 -48.5t-4.5 -80v-38q0 -52 4.5 -84t18.5 -50t40 -24t69 -6h132zM279 0q-66 0 -111 13.5t-72 43.5t-38.5 77.5t-11.5 115.5v38q0 61 10 106.5t36 76.5t70.5 46.5t112.5 15.5
q48 0 85.5 -10.5t56.5 -27.5v248h105v-657q0 -46 -21 -66t-81 -20h-141zM671 743l-30 -193h-77l7 193h100z" />
    <glyph glyph-name="Dcroat" unicode="&#x110;" horiz-adv-x="706" 
d="M91 316h-66v85h66v311h258q89 0 148 -20t94.5 -59.5t50 -98.5t14.5 -137v-81q0 -79 -14.5 -138t-50 -98.5t-94.5 -59.5t-148 -20h-258v316zM196 316v-222h153q54 0 92 9t61 34t33.5 70t10.5 116v67q0 72 -10.5 116.5t-33.5 69t-61 33.5t-92 9h-153v-217h163v-85h-163z
" />
    <glyph glyph-name="dcroat" unicode="&#x111;" horiz-adv-x="580" 
d="M522 592v-506q0 -46 -21 -66t-81 -20h-141q-66 0 -111 13.5t-72 43.5t-38.5 77.5t-11.5 115.5v38q0 61 10 106.5t36 76.5t70.5 46.5t112.5 15.5q48 0 85.5 -10.5t56.5 -27.5v97h-182v76h182v75h105v-75h53v-76h-53zM417 86v233q0 39 -6 64t-21 39.5t-41 19.5t-66 5
q-42 0 -67.5 -6.5t-39.5 -24t-18.5 -48.5t-4.5 -80v-38q0 -52 4.5 -84t18.5 -50t40 -24t69 -6h132z" />
    <glyph glyph-name="Emacron" unicode="&#x112;" horiz-adv-x="603" 
d="M560 712l-19 -94h-364v-205h358l-19 -94h-339v-225h383l-19 -94h-469v712h488zM165 872h289v-81h-289v81z" />
    <glyph glyph-name="emacron" unicode="&#x113;" horiz-adv-x="543" 
d="M151 220q0 -42 4.5 -68t18 -41t37.5 -20.5t64 -5.5h73.5t115.5 2l-18 -87q-31 -1 -53 -1.5t-40.5 -0.5h-36.5h-41q-71 0 -115.5 16.5t-70 47t-34.5 74t-9 96.5v56q0 57 9.5 102.5t35 77t71 48.5t118.5 17q67 0 109.5 -15.5t67 -42t33.5 -61t9 -71.5v-15q0 -36 -4 -57
t-13 -32.5t-22.5 -15t-32.5 -3.5h-276zM275 450q-40 0 -64 -6t-37.5 -22.5t-18 -45.5t-4.5 -75h249v34q0 33 -5.5 55.5t-20 35.5t-38.5 18.5t-61 5.5zM134 700h289v-81h-289v81z" />
    <glyph glyph-name="Ebreve" unicode="&#x114;" horiz-adv-x="603" 
d="M560 712l-19 -94h-364v-205h358l-19 -94h-339v-225h383l-19 -94h-469v712h488zM325 768q-84 0 -120.5 32t-37.5 102h93q0 -32 14 -47.5t51 -15.5t51 15.5t14 47.5h93q-1 -70 -37.5 -102t-120.5 -32z" />
    <glyph glyph-name="ebreve" unicode="&#x115;" horiz-adv-x="543" 
d="M151 220q0 -42 4.5 -68t18 -41t37.5 -20.5t64 -5.5h73.5t115.5 2l-18 -87q-31 -1 -53 -1.5t-40.5 -0.5h-36.5h-41q-71 0 -115.5 16.5t-70 47t-34.5 74t-9 96.5v56q0 57 9.5 102.5t35 77t71 48.5t118.5 17q67 0 109.5 -15.5t67 -42t33.5 -61t9 -71.5v-15q0 -36 -4 -57
t-13 -32.5t-22.5 -15t-32.5 -3.5h-276zM275 450q-40 0 -64 -6t-37.5 -22.5t-18 -45.5t-4.5 -75h249v34q0 33 -5.5 55.5t-20 35.5t-38.5 18.5t-61 5.5zM276 594q-84 0 -119.5 32.5t-36.5 97.5h93q0 -28 13 -43t50 -15t50 15t13 43h93q-1 -65 -36.5 -97.5t-119.5 -32.5z" />
    <glyph glyph-name="Edotaccent" unicode="&#x116;" horiz-adv-x="603" 
d="M560 712l-19 -94h-364v-205h358l-19 -94h-339v-225h383l-19 -94h-469v712h488zM381 828q0 -35 -15.5 -50.5t-50.5 -15.5t-50.5 15.5t-15.5 50.5t15.5 50.5t50.5 15.5t50.5 -15.5t15.5 -50.5z" />
    <glyph glyph-name="edotaccent" unicode="&#x117;" horiz-adv-x="543" 
d="M151 220q0 -42 4.5 -68t18 -41t37.5 -20.5t64 -5.5h73.5t115.5 2l-18 -87q-31 -1 -53 -1.5t-40.5 -0.5h-36.5h-41q-71 0 -115.5 16.5t-70 47t-34.5 74t-9 96.5v56q0 57 9.5 102.5t35 77t71 48.5t118.5 17q67 0 109.5 -15.5t67 -42t33.5 -61t9 -71.5v-15q0 -36 -4 -57
t-13 -32.5t-22.5 -15t-32.5 -3.5h-276zM275 450q-40 0 -64 -6t-37.5 -22.5t-18 -45.5t-4.5 -75h249v34q0 33 -5.5 55.5t-20 35.5t-38.5 18.5t-61 5.5zM338 670q0 -35 -15.5 -50.5t-50.5 -15.5t-50.5 15.5t-15.5 50.5t15.5 50.5t50.5 15.5t50.5 -15.5t15.5 -50.5z" />
    <glyph glyph-name="Eogonek" unicode="&#x118;" horiz-adv-x="603" 
d="M523 -194h-58q-44 0 -67.5 15t-23.5 56q0 28 19 61t57 62h-378v712h488l-19 -94h-364v-205h358l-19 -94h-339v-225h383l-19 -94q-42 -32 -60.5 -54t-18.5 -41q0 -11 6.5 -15.5t26.5 -4.5h45z" />
    <glyph glyph-name="eogonek" unicode="&#x119;" horiz-adv-x="543" 
d="M428 -194h-58q-44 0 -67.5 15t-23.5 56q0 28 18 60.5t56 61.5q-20 -1 -40.5 -1h-37.5q-71 0 -115.5 16.5t-70 47t-34.5 74t-9 96.5v56q0 57 9.5 102.5t35 77t71 48.5t118.5 17q67 0 109.5 -15.5t67 -42t33.5 -61t9 -71.5v-15q0 -36 -4 -57t-13 -32.5t-22.5 -15
t-32.5 -3.5h-276q0 -42 4.5 -68t18 -41t37.5 -20.5t64 -5.5q46 0 88 0.5t101 1.5l-18 -87q-42 -32 -60.5 -54t-18.5 -41q0 -11 6.5 -15.5t26.5 -4.5h45zM275 450q-40 0 -64 -6t-37.5 -22.5t-18 -45.5t-4.5 -75h249v34q0 33 -5.5 55.5t-20 35.5t-38.5 18.5t-61 5.5z" />
    <glyph glyph-name="Ecaron" unicode="&#x11a;" horiz-adv-x="603" 
d="M560 712l-19 -94h-364v-205h358l-19 -94h-339v-225h383l-19 -94h-469v712h488zM251 891l69 -63l70 63h106l-117 -118h-117l-117 118h106z" />
    <glyph glyph-name="ecaron" unicode="&#x11b;" horiz-adv-x="543" 
d="M151 220q0 -42 4.5 -68t18 -41t37.5 -20.5t64 -5.5h73.5t115.5 2l-18 -87q-31 -1 -53 -1.5t-40.5 -0.5h-36.5h-41q-71 0 -115.5 16.5t-70 47t-34.5 74t-9 96.5v56q0 57 9.5 102.5t35 77t71 48.5t118.5 17q67 0 109.5 -15.5t67 -42t33.5 -61t9 -71.5v-15q0 -36 -4 -57
t-13 -32.5t-22.5 -15t-32.5 -3.5h-276zM275 450q-40 0 -64 -6t-37.5 -22.5t-18 -45.5t-4.5 -75h249v34q0 33 -5.5 55.5t-20 35.5t-38.5 18.5t-61 5.5zM222 599l-105 127h96l64 -72l64 72h96l-105 -127h-110z" />
    <glyph glyph-name="Gcircumflex" unicode="&#x11c;" horiz-adv-x="645" 
d="M590 373v-279q0 -48 -16 -71t-53 -23h-173q-89 0 -147 19.5t-91.5 57.5t-46.5 95.5t-13 133.5v101q0 73 12.5 130.5t46.5 96.5t93.5 59.5t154.5 20.5h111t102 -2l-17 -94q-42 1 -72.5 1.5t-54 0.5h-41.5h-35q-59 0 -96 -8t-58 -31t-28.5 -66t-7.5 -112v-93
q0 -71 8.5 -114t29.5 -65.5t57 -29.5t90 -7h140v189h-132l19 90h218zM361 836l-69 -63h-106l117 118h117l117 -118h-106z" />
    <glyph glyph-name="gcircumflex" unicode="&#x11d;" horiz-adv-x="579" 
d="M285 104q42 0 67.5 6t40 21t19.5 39.5t5 62.5v48q0 51 -3.5 83.5t-16.5 50.5t-39.5 25t-72.5 7t-72.5 -7t-39.5 -25t-16.5 -50.5t-3.5 -83.5v-11q0 -51 3.5 -83.5t17 -50.5t39.5 -25t72 -7zM417 59q-20 -18 -52 -29.5t-89 -11.5q-70 0 -114.5 16.5t-70 48t-35.5 77
t-10 104.5v23q0 57 9 102.5t35 77.5t72.5 49t121.5 17t121.5 -17t72 -47.5t34.5 -73t9 -93.5v-252q0 -62 -13.5 -105t-42.5 -70t-74.5 -39.5t-108.5 -12.5h-43h-41t-45 0.5t-54 1.5l20 87q50 -2 86.5 -2h75.5q37 0 63 6.5t42.5 22t23.5 42.5t7 69v9zM339 726l105 -127h-96
l-64 72l-64 -72h-96l105 127h110z" />
    <glyph glyph-name="Gbreve" unicode="&#x11e;" horiz-adv-x="645" 
d="M590 373v-279q0 -48 -16 -71t-53 -23h-173q-89 0 -147 19.5t-91.5 57.5t-46.5 95.5t-13 133.5v101q0 73 12.5 130.5t46.5 96.5t93.5 59.5t154.5 20.5h111t102 -2l-17 -94q-42 1 -72.5 1.5t-54 0.5h-41.5h-35q-59 0 -96 -8t-58 -31t-28.5 -66t-7.5 -112v-93
q0 -71 8.5 -114t29.5 -65.5t57 -29.5t90 -7h140v189h-132l19 90h218zM341 768q-84 0 -120.5 32t-37.5 102h93q0 -32 14 -47.5t51 -15.5t51 15.5t14 47.5h93q-1 -70 -37.5 -102t-120.5 -32z" />
    <glyph glyph-name="gbreve" unicode="&#x11f;" horiz-adv-x="579" 
d="M285 104q42 0 67.5 6t40 21t19.5 39.5t5 62.5v48q0 51 -3.5 83.5t-16.5 50.5t-39.5 25t-72.5 7t-72.5 -7t-39.5 -25t-16.5 -50.5t-3.5 -83.5v-11q0 -51 3.5 -83.5t17 -50.5t39.5 -25t72 -7zM417 59q-20 -18 -52 -29.5t-89 -11.5q-70 0 -114.5 16.5t-70 48t-35.5 77
t-10 104.5v23q0 57 9 102.5t35 77.5t72.5 49t121.5 17t121.5 -17t72 -47.5t34.5 -73t9 -93.5v-252q0 -62 -13.5 -105t-42.5 -70t-74.5 -39.5t-108.5 -12.5h-43h-41t-45 0.5t-54 1.5l20 87q50 -2 86.5 -2h75.5q37 0 63 6.5t42.5 22t23.5 42.5t7 69v9zM279 594
q-84 0 -119.5 32.5t-36.5 97.5h93q0 -28 13 -43t50 -15t50 15t13 43h93q-1 -65 -36.5 -97.5t-119.5 -32.5z" />
    <glyph glyph-name="Gdotaccent" unicode="&#x120;" horiz-adv-x="645" 
d="M590 373v-279q0 -48 -16 -71t-53 -23h-173q-89 0 -147 19.5t-91.5 57.5t-46.5 95.5t-13 133.5v101q0 73 12.5 130.5t46.5 96.5t93.5 59.5t154.5 20.5h111t102 -2l-17 -94q-42 1 -72.5 1.5t-54 0.5h-41.5h-35q-59 0 -96 -8t-58 -31t-28.5 -66t-7.5 -112v-93
q0 -71 8.5 -114t29.5 -65.5t57 -29.5t90 -7h140v189h-132l19 90h218zM426 828q0 -35 -15.5 -50.5t-50.5 -15.5t-50.5 15.5t-15.5 50.5t15.5 50.5t50.5 15.5t50.5 -15.5t15.5 -50.5z" />
    <glyph glyph-name="gdotaccent" unicode="&#x121;" horiz-adv-x="579" 
d="M285 104q42 0 67.5 6t40 21t19.5 39.5t5 62.5v48q0 51 -3.5 83.5t-16.5 50.5t-39.5 25t-72.5 7t-72.5 -7t-39.5 -25t-16.5 -50.5t-3.5 -83.5v-11q0 -51 3.5 -83.5t17 -50.5t39.5 -25t72 -7zM417 59q-20 -18 -52 -29.5t-89 -11.5q-70 0 -114.5 16.5t-70 48t-35.5 77
t-10 104.5v23q0 57 9 102.5t35 77.5t72.5 49t121.5 17t121.5 -17t72 -47.5t34.5 -73t9 -93.5v-252q0 -62 -13.5 -105t-42.5 -70t-74.5 -39.5t-108.5 -12.5h-43h-41t-45 0.5t-54 1.5l20 87q50 -2 86.5 -2h75.5q37 0 63 6.5t42.5 22t23.5 42.5t7 69v9zM350 670
q0 -35 -15.5 -50.5t-50.5 -15.5t-50.5 15.5t-15.5 50.5t15.5 50.5t50.5 15.5t50.5 -15.5t15.5 -50.5z" />
    <glyph glyph-name="Gcommaaccent" unicode="&#x122;" horiz-adv-x="645" 
d="M590 373v-279q0 -48 -16 -71t-53 -23h-173q-89 0 -147 19.5t-91.5 57.5t-46.5 95.5t-13 133.5v101q0 73 12.5 130.5t46.5 96.5t93.5 59.5t154.5 20.5h111t102 -2l-17 -94q-42 1 -72.5 1.5t-54 0.5h-41.5h-35q-59 0 -96 -8t-58 -31t-28.5 -66t-7.5 -112v-93
q0 -71 8.5 -114t29.5 -65.5t57 -29.5t90 -7h140v189h-132l19 90h218zM284 -235l28 77q-14 5 -21 18t-7 30q0 23 15 39t47 16q31 0 45 -15t14 -38q0 -13 -4 -25.5t-12 -29.5l-34 -72h-71z" />
    <glyph glyph-name="gcommaaccent" unicode="&#x123;" horiz-adv-x="579" 
d="M285 104q42 0 67.5 6t40 21t19.5 39.5t5 62.5v48q0 51 -3.5 83.5t-16.5 50.5t-39.5 25t-72.5 7t-72.5 -7t-39.5 -25t-16.5 -50.5t-3.5 -83.5v-11q0 -51 3.5 -83.5t17 -50.5t39.5 -25t72 -7zM417 59q-20 -18 -52 -29.5t-89 -11.5q-70 0 -114.5 16.5t-70 48t-35.5 77
t-10 104.5v23q0 57 9 102.5t35 77.5t72.5 49t121.5 17t121.5 -17t72 -47.5t34.5 -73t9 -93.5v-252q0 -62 -13.5 -105t-42.5 -70t-74.5 -39.5t-108.5 -12.5h-43h-41t-45 0.5t-54 1.5l20 87q50 -2 86.5 -2h75.5q37 0 63 6.5t42.5 22t23.5 42.5t7 69v9zM343 784l-28 -77
q14 -5 21 -18t7 -30q0 -23 -15 -39t-47 -16q-31 0 -45 15t-14 38q0 13 4 25.5t12 29.5l34 72h71z" />
    <glyph glyph-name="Hcircumflex" unicode="&#x124;" horiz-adv-x="709" 
d="M637 712v-712h-105v317h-355v-317h-105v712h105v-301h355v301h105zM353 836l-69 -63h-106l117 118h117l117 -118h-106z" />
    <glyph glyph-name="hcircumflex" unicode="&#x125;" horiz-adv-x="574" 
d="M58 0v743h105v-256q15 17 49.5 31.5t99.5 14.5q46 0 83.5 -9t64.5 -29t41.5 -52t14.5 -78v-365h-105v344q0 25 -3 44t-15 32t-35 19.5t-63 6.5q-41 0 -66.5 -7t-40 -23t-20 -41t-5.5 -62v-313h-105zM221 831l-63 -59h-99l107 113h111l107 -113h-99z" />
    <glyph glyph-name="Hbar" unicode="&#x126;" horiz-adv-x="751" 
d="M658 712v-102h68v-81h-68v-529h-105v317h-355v-317h-105v529h-68v81h68v102h105v-102h355v102h105zM553 411v118h-355v-118h355z" />
    <glyph glyph-name="hbar" unicode="&#x127;" horiz-adv-x="574" 
d="M58 0v592h-53v76h53v75h105v-75h180v-76h-180v-105q15 17 49.5 31.5t99.5 14.5q46 0 83.5 -9t64.5 -29t41.5 -52t14.5 -78v-365h-105v344q0 25 -3 44t-15 32t-35 19.5t-63 6.5q-41 0 -66.5 -7t-40 -23t-20 -41t-5.5 -62v-313h-105z" />
    <glyph glyph-name="Itilde" unicode="&#x128;" horiz-adv-x="249" 
d="M177 712v-712h-105v712h105zM110 792q-18 7 -33.5 12t-26.5 5t-17.5 -5t-6.5 -25v-16h-74v17q0 63 23.5 87t58.5 24q17 0 38.5 -5t50.5 -16l17 -6l37.5 -13t22.5 -4t17.5 5t6.5 25v16h74v-17q0 -63 -23.5 -87t-58.5 -24q-17 0 -38.5 5t-50.5 16z" />
    <glyph glyph-name="itilde" unicode="&#x129;" horiz-adv-x="221" 
d="M58 517h105v-517h-105v517zM81 632q-9 5 -17.5 8t-18.5 3q-11 0 -17.5 -6t-6.5 -27v-13h-74v15q0 33 6.5 54.5t18 33.5t27.5 16.5t36 4.5q19 0 35.5 -4.5t39.5 -15.5l32 -15q9 -5 17.5 -8t18.5 -3q11 0 17.5 6t6.5 27v13h74v-15q0 -33 -6.5 -54.5t-18 -33.5t-28 -16.5
t-35.5 -4.5t-35.5 4.5t-39.5 15.5z" />
    <glyph glyph-name="Imacron" unicode="&#x12a;" horiz-adv-x="249" 
d="M177 712v-712h-105v712h105zM-19 872h289v-81h-289v81z" />
    <glyph glyph-name="imacron" unicode="&#x12b;" horiz-adv-x="221" 
d="M58 517h105v-517h-105v517zM-33 700h289v-81h-289v81z" />
    <glyph glyph-name="Ibreve" unicode="&#x12c;" horiz-adv-x="249" 
d="M177 712v-712h-105v712h105zM125 768q-84 0 -120.5 32t-37.5 102h93q0 -32 14 -47.5t51 -15.5t51 15.5t14 47.5h93q-1 -70 -37.5 -102t-120.5 -32z" />
    <glyph glyph-name="ibreve" unicode="&#x12d;" horiz-adv-x="221" 
d="M58 517h105v-517h-105v517zM111 594q-84 0 -119.5 32.5t-36.5 97.5h93q0 -28 13 -43t50 -15t50 15t13 43h93q-1 -65 -36.5 -97.5t-119.5 -32.5z" />
    <glyph glyph-name="Iogonek" unicode="&#x12e;" horiz-adv-x="249" 
d="M159 -194h-58q-44 0 -67.5 15t-23.5 56q0 28 19 61t57 62h-14v712h105v-712q-42 -32 -60.5 -54t-18.5 -41q0 -11 6.5 -15.5t26.5 -4.5h45z" />
    <glyph glyph-name="iogonek" unicode="&#x12f;" horiz-adv-x="221" 
d="M163 517v-517q-42 -32 -60.5 -54t-18.5 -41q0 -11 6.5 -15.5t26.5 -4.5h45l-17 -79h-58q-44 0 -67.5 15t-23.5 56q0 28 19 61t57 62h-14v517h105zM177 670q0 -35 -15.5 -50.5t-50.5 -15.5t-50.5 15.5t-15.5 50.5t15.5 50.5t50.5 15.5t50.5 -15.5t15.5 -50.5z" />
    <glyph glyph-name="Idotaccent" unicode="&#x130;" horiz-adv-x="249" 
d="M177 712v-712h-105v712h105zM191 828q0 -35 -15.5 -50.5t-50.5 -15.5t-50.5 15.5t-15.5 50.5t15.5 50.5t50.5 15.5t50.5 -15.5t15.5 -50.5z" />
    <glyph glyph-name="dotlessi" unicode="&#x131;" horiz-adv-x="221" 
d="M58 517h105v-517h-105v517z" />
    <glyph glyph-name="IJ" unicode="&#x132;" horiz-adv-x="715" 
d="M177 712v-712h-105v712h105zM288 93q29 -1 56.5 -1h69.5q37 0 62 5t40.5 24t22 56.5t6.5 102.5v432h105v-453q0 -72 -11 -122t-38 -81t-72.5 -44.5t-114.5 -13.5q-54 0 -91 0.5t-54 1.5z" />
    <glyph glyph-name="ij" unicode="&#x133;" horiz-adv-x="442" 
d="M58 517h105v-517h-105v517zM176 670q0 -35 -15.5 -50.5t-50.5 -15.5t-50.5 15.5t-15.5 50.5t15.5 50.5t50.5 15.5t50.5 -15.5t15.5 -50.5zM397 670q0 -35 -15.5 -50.5t-50.5 -15.5t-50.5 15.5t-15.5 50.5t15.5 50.5t50.5 15.5t50.5 -15.5t15.5 -50.5zM133 -92
q14 -1 28.5 -1h34.5q24 0 39.5 3t25.5 13.5t14 29.5t4 52v512h105v-512q0 -53 -10 -88t-32 -56t-57 -29.5t-86 -8.5q-38 0 -57 0.5t-27 1.5z" />
    <glyph glyph-name="Jcircumflex" unicode="&#x134;" horiz-adv-x="466" 
d="M39 93q29 -1 56.5 -1h69.5q37 0 62 5t40.5 24t22 56.5t6.5 102.5v432h105v-453q0 -72 -11 -122t-38 -81t-72.5 -44.5t-114.5 -13.5q-54 0 -91 0.5t-54 1.5zM337 836l-69 -63h-106l117 118h117l117 -118h-106z" />
    <glyph glyph-name="jcircumflex" unicode="&#x135;" horiz-adv-x="221" 
d="M-88 -92q14 -1 28.5 -1h34.5q24 0 39.5 3t25.5 13.5t14 29.5t4 52v512h105v-512q0 -53 -10 -88t-32 -56t-57 -29.5t-86 -8.5q-38 0 -57 0.5t-27 1.5zM166 726l105 -127h-96l-64 72l-64 -72h-96l105 127h110z" />
    <glyph glyph-name="Kcommaaccent" unicode="&#x136;" horiz-adv-x="639" 
d="M177 400l302 312h125l-323 -337l358 -375h-145l-317 335v-335h-105v712h105v-312zM251 -235l28 77q-14 5 -21 18t-7 30q0 23 15 39t47 16q31 0 45 -15t14 -38q0 -13 -4 -25.5t-12 -29.5l-34 -72h-71z" />
    <glyph glyph-name="kcommaaccent" unicode="&#x137;" horiz-adv-x="538" 
d="M163 314l216 203h133l-251 -229l277 -288h-138l-237 249v-249h-105v743h105v-429zM203 -110q0 25 16.5 40t44.5 15q31 0 45.5 -15.5t14.5 -38.5q0 -14 -3.5 -25.5t-11.5 -28.5l-35 -72h-71l28 78q-28 12 -28 47z" />
    <glyph glyph-name="kgreenlandic" unicode="&#x138;" horiz-adv-x="535" 
d="M163 301l223 216h128l-251 -242l272 -275h-137l-235 236v-236h-105v517h105v-216z" />
    <glyph glyph-name="Lacute" unicode="&#x139;" horiz-adv-x="558" 
d="M177 712v-618h361l-19 -94h-447v712h105zM337 892l-137 -119h-109l114 119h132z" />
    <glyph glyph-name="lacute" unicode="&#x13a;" horiz-adv-x="221" 
d="M58 743h105v-743h-105v743zM306 876l-154 -104h-106l127 104h133z" />
    <glyph glyph-name="Lcommaaccent" unicode="&#x13b;" horiz-adv-x="558" 
d="M177 712v-618h361l-19 -94h-447v712h105zM234 -235l28 77q-14 5 -21 18t-7 30q0 23 15 39t47 16q31 0 45 -15t14 -38q0 -13 -4 -25.5t-12 -29.5l-34 -72h-71z" />
    <glyph glyph-name="lcommaaccent" unicode="&#x13c;" horiz-adv-x="221" 
d="M58 743h105v-743h-105v743zM51 -110q0 25 16.5 40t44.5 15q31 0 45.5 -15.5t14.5 -38.5q0 -14 -3.5 -25.5t-11.5 -28.5l-35 -72h-71l28 78q-28 12 -28 47z" />
    <glyph glyph-name="Lcaron" unicode="&#x13d;" horiz-adv-x="558" 
d="M177 712v-618h361l-19 -94h-447v712h105zM372 763l-30 -193h-77l7 193h100z" />
    <glyph glyph-name="lcaron" unicode="&#x13e;" horiz-adv-x="296" 
d="M58 743h105v-743h-105v743zM312 743l-30 -193h-77l7 193h100z" />
    <glyph glyph-name="Ldot" unicode="&#x13f;" horiz-adv-x="558" 
d="M177 712v-618h361l-19 -94h-447v712h105zM447 402q0 -35 -16.5 -52t-52.5 -17t-52.5 17t-16.5 52t16.5 52t52.5 17t52.5 -17t16.5 -52z" />
    <glyph glyph-name="ldot" unicode="&#x140;" horiz-adv-x="368" 
d="M58 743h105v-743h-105v743zM366 380q0 -35 -16.5 -52t-52.5 -17t-52.5 17t-16.5 52t16.5 52t52.5 17t52.5 -17t16.5 -52z" />
    <glyph glyph-name="Lslash" unicode="&#x141;" horiz-adv-x="592" 
d="M211 712v-286l184 117v-94l-184 -117v-238h361l-19 -94h-447v265l-81 -51v94l81 51v353h105z" />
    <glyph glyph-name="lslash" unicode="&#x142;" horiz-adv-x="241" 
d="M67 302l-62 -54v100l62 54v341h105v-249l64 56v-100l-64 -56v-394h-105v302z" />
    <glyph glyph-name="Nacute" unicode="&#x143;" horiz-adv-x="709" 
d="M165 712l367 -537v537h105v-712h-95l-365 534v-534h-105v712h93zM521 892l-137 -119h-109l114 119h132z" />
    <glyph glyph-name="nacute" unicode="&#x144;" horiz-adv-x="574" 
d="M58 0v365q0 90 55.5 129t173.5 39t173.5 -39t55.5 -129v-365h-105v344q0 25 -3 44t-15 32t-37 19.5t-69 6.5t-69 -6.5t-37 -19.5t-15 -32t-3 -44v-344h-105zM316 725h117l-117 -126h-103z" />
    <glyph glyph-name="Ncommaaccent" unicode="&#x145;" horiz-adv-x="709" 
d="M165 712l367 -537v537h105v-712h-95l-365 534v-534h-105v712h93zM297 -235l28 77q-14 5 -21 18t-7 30q0 23 15 39t47 16q31 0 45 -15t14 -38q0 -13 -4 -25.5t-12 -29.5l-34 -72h-71z" />
    <glyph glyph-name="ncommaaccent" unicode="&#x146;" horiz-adv-x="574" 
d="M58 0v365q0 90 55.5 129t173.5 39t173.5 -39t55.5 -129v-365h-105v344q0 25 -3 44t-15 32t-37 19.5t-69 6.5t-69 -6.5t-37 -19.5t-15 -32t-3 -44v-344h-105zM227 -110q0 25 16.5 40t44.5 15q31 0 45.5 -15.5t14.5 -38.5q0 -14 -3.5 -25.5t-11.5 -28.5l-35 -72h-71l28 78
q-28 12 -28 47z" />
    <glyph glyph-name="Ncaron" unicode="&#x147;" horiz-adv-x="709" 
d="M165 712l367 -537v537h105v-712h-95l-365 534v-534h-105v712h93zM284 891l69 -63l70 63h106l-117 -118h-117l-117 118h106z" />
    <glyph glyph-name="ncaron" unicode="&#x148;" horiz-adv-x="574" 
d="M58 0v365q0 90 55.5 129t173.5 39t173.5 -39t55.5 -129v-365h-105v344q0 25 -3 44t-15 32t-37 19.5t-69 6.5t-69 -6.5t-37 -19.5t-15 -32t-3 -44v-344h-105zM232 599l-105 127h96l64 -72l64 72h96l-105 -127h-110z" />
    <glyph glyph-name="napostrophe" unicode="&#x149;" horiz-adv-x="622" 
d="M106 0v365q0 90 55.5 129t173.5 39t173.5 -39t55.5 -129v-365h-105v344q0 25 -3 44t-15 32t-37 19.5t-69 6.5t-69 -6.5t-37 -19.5t-15 -32t-3 -44v-344h-105zM95 746q38 0 50.5 -18.5t12.5 -43.5q0 -17 -6.5 -36.5t-14.5 -33.5l-64 -118h-72l55 136q-9 7 -16.5 17
t-7.5 33q0 29 12.5 46.5t50.5 17.5z" />
    <glyph glyph-name="Eng" unicode="&#x14a;" horiz-adv-x="709" 
d="M386 -176q-42 0 -63.5 0.5t-31.5 0.5l19 94q30 -1 49.5 -1h38.5q35 0 58.5 5.5t38.5 17.5t22.5 30t10.5 44v5l-351 513v-533h-105v712h93l367 -536v536h105v-627q0 -65 -10.5 -113.5t-38 -81.5t-76.5 -49.5t-126 -16.5z" />
    <glyph glyph-name="eng" unicode="&#x14b;" horiz-adv-x="574" 
d="M516 -20q0 -44 -12.5 -74t-36.5 -48.5t-58.5 -26.5t-79.5 -8h-44t-38 1l18 84q20 -1 33.5 -1h24.5q28 0 45.5 3t27 12.5t12.5 27.5t3 49v345q0 25 -3 44t-15 32t-37 19.5t-69 6.5t-69 -6.5t-37 -19.5t-15 -32t-3 -44v-344h-105v365q0 92 58 130t171 38t171 -38t58 -130
v-385z" />
    <glyph glyph-name="Omacron" unicode="&#x14c;" horiz-adv-x="710" 
d="M355 73q60 0 97.5 8.5t59.5 34.5t30 73.5t8 125.5v83q0 77 -8 124.5t-30 73.5t-59.5 35t-97.5 9t-97.5 -8.5t-59.5 -34.5t-30 -73.5t-8 -125.5v-83q0 -77 8 -124.5t30 -73.5t59.5 -35t97.5 -9zM355 -18q-95 0 -154.5 21t-93 62.5t-45.5 103t-12 142.5v91q0 77 11.5 138
t44.5 103.5t92.5 65t156.5 22.5q95 0 154.5 -21t93 -62.5t45.5 -103t12 -142.5v-91q0 -77 -11.5 -138t-44.5 -103.5t-92.5 -65t-156.5 -22.5zM211 872h289v-81h-289v81z" />
    <glyph glyph-name="omacron" unicode="&#x14d;" horiz-adv-x="574" 
d="M287 533q65 0 110.5 -11.5t74.5 -40t42.5 -76t13.5 -119.5v-55q0 -72 -13.5 -119.5t-42.5 -76t-74.5 -40t-110.5 -11.5t-110.5 11.5t-74.5 40t-42.5 76t-13.5 119.5v55q0 72 13.5 119.5t42.5 76t74.5 40t110.5 11.5zM421 286q0 53 -5.5 84.5t-20 48.5t-40.5 22.5t-68 5.5
t-68 -5.5t-40.5 -22.5t-20 -48.5t-5.5 -84.5v-55q0 -53 5.5 -84.5t20 -48.5t40.5 -22.5t68 -5.5t68 5.5t40.5 22.5t20 48.5t5.5 84.5v55zM143 700h289v-81h-289v81z" />
    <glyph glyph-name="Obreve" unicode="&#x14e;" horiz-adv-x="710" 
d="M355 73q60 0 97.5 8.5t59.5 34.5t30 73.5t8 125.5v83q0 77 -8 124.5t-30 73.5t-59.5 35t-97.5 9t-97.5 -8.5t-59.5 -34.5t-30 -73.5t-8 -125.5v-83q0 -77 8 -124.5t30 -73.5t59.5 -35t97.5 -9zM355 -18q-95 0 -154.5 21t-93 62.5t-45.5 103t-12 142.5v91q0 77 11.5 138
t44.5 103.5t92.5 65t156.5 22.5q95 0 154.5 -21t93 -62.5t45.5 -103t12 -142.5v-91q0 -77 -11.5 -138t-44.5 -103.5t-92.5 -65t-156.5 -22.5zM355 768q-84 0 -120.5 32t-37.5 102h93q0 -32 14 -47.5t51 -15.5t51 15.5t14 47.5h93q-1 -70 -37.5 -102t-120.5 -32z" />
    <glyph glyph-name="obreve" unicode="&#x14f;" horiz-adv-x="574" 
d="M287 533q65 0 110.5 -11.5t74.5 -40t42.5 -76t13.5 -119.5v-55q0 -72 -13.5 -119.5t-42.5 -76t-74.5 -40t-110.5 -11.5t-110.5 11.5t-74.5 40t-42.5 76t-13.5 119.5v55q0 72 13.5 119.5t42.5 76t74.5 40t110.5 11.5zM421 286q0 53 -5.5 84.5t-20 48.5t-40.5 22.5t-68 5.5
t-68 -5.5t-40.5 -22.5t-20 -48.5t-5.5 -84.5v-55q0 -53 5.5 -84.5t20 -48.5t40.5 -22.5t68 -5.5t68 5.5t40.5 22.5t20 48.5t5.5 84.5v55zM287 594q-84 0 -119.5 32.5t-36.5 97.5h93q0 -28 13 -43t50 -15t50 15t13 43h93q-1 -65 -36.5 -97.5t-119.5 -32.5z" />
    <glyph glyph-name="Ohungarumlaut" unicode="&#x150;" horiz-adv-x="710" 
d="M355 73q60 0 97.5 8.5t59.5 34.5t30 73.5t8 125.5v83q0 77 -8 124.5t-30 73.5t-59.5 35t-97.5 9t-97.5 -8.5t-59.5 -34.5t-30 -73.5t-8 -125.5v-83q0 -77 8 -124.5t30 -73.5t59.5 -35t97.5 -9zM355 -18q-95 0 -154.5 21t-93 62.5t-45.5 103t-12 142.5v91q0 77 11.5 138
t44.5 103.5t92.5 65t156.5 22.5q95 0 154.5 -21t93 -62.5t45.5 -103t12 -142.5v-91q0 -77 -11.5 -138t-44.5 -103.5t-92.5 -65t-156.5 -22.5zM424 892l-131 -119h-109l108 119h132zM610 892l-131 -119h-109l108 119h132z" />
    <glyph glyph-name="ohungarumlaut" unicode="&#x151;" horiz-adv-x="574" 
d="M287 533q65 0 110.5 -11.5t74.5 -40t42.5 -76t13.5 -119.5v-55q0 -72 -13.5 -119.5t-42.5 -76t-74.5 -40t-110.5 -11.5t-110.5 11.5t-74.5 40t-42.5 76t-13.5 119.5v55q0 72 13.5 119.5t42.5 76t74.5 40t110.5 11.5zM421 286q0 53 -5.5 84.5t-20 48.5t-40.5 22.5t-68 5.5
t-68 -5.5t-40.5 -22.5t-20 -48.5t-5.5 -84.5v-55q0 -53 5.5 -84.5t20 -48.5t40.5 -22.5t68 -5.5t68 5.5t40.5 22.5t20 48.5t5.5 84.5v55zM227 725h106l-97 -126h-92zM387 725h106l-97 -126h-92z" />
    <glyph glyph-name="OE" unicode="&#x152;" horiz-adv-x="985" 
d="M923 0h-575q-89 0 -147 20.5t-91.5 60.5t-46.5 99t-13 136v81q0 74 13 132.5t46.5 99t91.5 62t147 21.5h594l-19 -94h-364v-205h358l-19 -94h-339v-225h383zM454 91v529h-109q-54 0 -90 -8.5t-57 -33.5t-29.5 -69t-8.5 -116v-73q0 -71 8.5 -115.5t29.5 -70t57 -34.5
t90 -9h109z" />
    <glyph glyph-name="oe" unicode="&#x153;" horiz-adv-x="913" 
d="M287 70q46 0 73 7t40.5 25t17 50.5t3.5 83.5v45q0 51 -3.5 83.5t-17 50.5t-40.5 25t-73 7q-42 0 -68 -5.5t-40.5 -22.5t-20 -48.5t-5.5 -84.5v-55q0 -53 5.5 -84.5t20 -48.5t40.5 -22.5t68 -5.5zM869 328q0 -36 -4 -57t-13 -32.5t-22.5 -15t-32.5 -3.5h-276
q0 -42 4.5 -68t18 -41t37.5 -20.5t64 -5.5h80t109 2l-18 -87q-31 -2 -75.5 -2h-95.5q-34 0 -59.5 2.5t-45 9.5t-35.5 19t-30 30q-27 -43 -71.5 -59t-116.5 -16q-65 0 -110.5 11.5t-74.5 40t-42.5 76t-13.5 119.5v55q0 72 13.5 119.5t42.5 76t74.5 40t110.5 11.5
q69 0 114 -16t72 -55q26 38 70 54.5t107 16.5q67 0 109.5 -15.5t67 -41.5t33.5 -60.5t9 -71.5v-16zM645 451q-40 0 -64 -6.5t-37.5 -23t-18 -45.5t-4.5 -75h249v35q0 33 -5.5 55.5t-20 35.5t-38.5 18.5t-61 5.5z" />
    <glyph glyph-name="Racute" unicode="&#x154;" horiz-adv-x="638" 
d="M177 0h-105v712h268q125 0 185 -47t60 -154v-32q0 -81 -34.5 -127.5t-106.5 -63.5l174 -288h-122l-160 278h-159v-278zM480 498q0 38 -7 61.5t-23 36.5t-43 17.5t-67 4.5h-163v-246h163q40 0 67 4.5t43 18t23 37t7 61.5v5zM472 892l-137 -119h-109l114 119h132z" />
    <glyph glyph-name="racute" unicode="&#x155;" horiz-adv-x="380" 
d="M58 0v354q0 45 14 76.5t39.5 51t61.5 28.5t80 9h74t43 -1l-18 -87h-10t-22 0.5t-28 0.5h-29q-35 0 -55 -6.5t-30 -19.5t-12.5 -32t-2.5 -43v-331h-105zM248 725h117l-117 -126h-103z" />
    <glyph glyph-name="Rcommaaccent" unicode="&#x156;" horiz-adv-x="638" 
d="M177 0h-105v712h268q125 0 185 -47t60 -154v-32q0 -81 -34.5 -127.5t-106.5 -63.5l174 -288h-122l-160 278h-159v-278zM480 498q0 38 -7 61.5t-23 36.5t-43 17.5t-67 4.5h-163v-246h163q40 0 67 4.5t43 18t23 37t7 61.5v5zM267 -235l28 77q-14 5 -21 18t-7 30q0 23 15 39
t47 16q31 0 45 -15t14 -38q0 -13 -4 -25.5t-12 -29.5l-34 -72h-71z" />
    <glyph glyph-name="rcommaaccent" unicode="&#x157;" horiz-adv-x="380" 
d="M58 0v354q0 45 14 76.5t39.5 51t61.5 28.5t80 9h74t43 -1l-18 -87h-10t-22 0.5t-28 0.5h-29q-35 0 -55 -6.5t-30 -19.5t-12.5 -32t-2.5 -43v-331h-105zM51 -110q0 25 16.5 40t44.5 15q31 0 45.5 -15.5t14.5 -38.5q0 -14 -3.5 -25.5t-11.5 -28.5l-35 -72h-71l28 78
q-28 12 -28 47z" />
    <glyph glyph-name="Rcaron" unicode="&#x158;" horiz-adv-x="638" 
d="M177 0h-105v712h268q125 0 185 -47t60 -154v-32q0 -81 -34.5 -127.5t-106.5 -63.5l174 -288h-122l-160 278h-159v-278zM480 498q0 38 -7 61.5t-23 36.5t-43 17.5t-67 4.5h-163v-246h163q40 0 67 4.5t43 18t23 37t7 61.5v5zM238 891l69 -63l70 63h106l-117 -118h-117
l-117 118h106z" />
    <glyph glyph-name="rcaron" unicode="&#x159;" horiz-adv-x="380" 
d="M58 0v354q0 45 14 76.5t39.5 51t61.5 28.5t80 9h74t43 -1l-18 -87h-10t-22 0.5t-28 0.5h-29q-35 0 -55 -6.5t-30 -19.5t-12.5 -32t-2.5 -43v-331h-105zM172 599l-105 127h96l64 -72l64 72h96l-105 -127h-110z" />
    <glyph glyph-name="Sacute" unicode="&#x15a;" horiz-adv-x="576" 
d="M377 397q47 -8 79 -22.5t51.5 -37.5t28 -55t8.5 -75v-17q0 -48 -13 -84t-44 -60t-82 -36t-127 -12h-90.5t-152.5 2l18 94q40 -1 70.5 -1.5t56.5 -0.5h49h49q49 0 80.5 4.5t49.5 16t24.5 31t6.5 49.5q0 26 -3.5 44t-14 30.5t-30.5 20.5t-53 14l-135 22q-50 8 -82.5 23.5
t-51 38t-25.5 53t-7 69.5v19q0 43 13.5 77.5t44 59t80 37.5t122.5 13h51h48t54.5 -0.5t71.5 -1.5l-18 -94q-71 2 -121 2h-95q-44 0 -72.5 -4.5t-45 -16t-22.5 -30t-6 -46.5q0 -24 3.5 -41t13.5 -29t29 -20t50 -13zM442 892l-137 -119h-109l114 119h132z" />
    <glyph glyph-name="sacute" unicode="&#x15b;" horiz-adv-x="519" 
d="M331 305q45 -4 73 -18.5t43 -35t20.5 -44t5.5 -45.5v-14q0 -71 -51 -110.5t-157 -39.5q-45 0 -104.5 0.5t-119.5 1.5l18 87q54 -1 110 -1.5t101 -0.5q58 0 79.5 13t21.5 51q0 12 -2.5 22.5t-10 18.5t-21.5 13.5t-38 7.5l-120 11q-37 3 -63 15.5t-42 31t-23.5 41.5
t-7.5 47v17q0 68 47 106.5t154 38.5h100t117 -2l-18 -87q-42 1 -74 1.5t-56.5 0.5h-44h-35.5q-51 0 -71 -12.5t-20 -44.5q0 -13 2.5 -23t10 -17t22 -12t38.5 -7zM294 725h117l-117 -126h-103z" />
    <glyph glyph-name="Scircumflex" unicode="&#x15c;" horiz-adv-x="576" 
d="M377 397q47 -8 79 -22.5t51.5 -37.5t28 -55t8.5 -75v-17q0 -48 -13 -84t-44 -60t-82 -36t-127 -12h-90.5t-152.5 2l18 94q40 -1 70.5 -1.5t56.5 -0.5h49h49q49 0 80.5 4.5t49.5 16t24.5 31t6.5 49.5q0 26 -3.5 44t-14 30.5t-30.5 20.5t-53 14l-135 22q-50 8 -82.5 23.5
t-51 38t-25.5 53t-7 69.5v19q0 43 13.5 77.5t44 59t80 37.5t122.5 13h51h48t54.5 -0.5t71.5 -1.5l-18 -94q-71 2 -121 2h-95q-44 0 -72.5 -4.5t-45 -16t-22.5 -30t-6 -46.5q0 -24 3.5 -41t13.5 -29t29 -20t50 -13zM296 836l-69 -63h-106l117 118h117l117 -118h-106z" />
    <glyph glyph-name="scircumflex" unicode="&#x15d;" horiz-adv-x="519" 
d="M331 305q45 -4 73 -18.5t43 -35t20.5 -44t5.5 -45.5v-14q0 -71 -51 -110.5t-157 -39.5q-45 0 -104.5 0.5t-119.5 1.5l18 87q54 -1 110 -1.5t101 -0.5q58 0 79.5 13t21.5 51q0 12 -2.5 22.5t-10 18.5t-21.5 13.5t-38 7.5l-120 11q-37 3 -63 15.5t-42 31t-23.5 41.5
t-7.5 47v17q0 68 47 106.5t154 38.5h100t117 -2l-18 -87q-42 1 -74 1.5t-56.5 0.5h-44h-35.5q-51 0 -71 -12.5t-20 -44.5q0 -13 2.5 -23t10 -17t22 -12t38.5 -7zM316 726l105 -127h-96l-64 72l-64 -72h-96l105 127h110z" />
    <glyph glyph-name="Scedilla" unicode="&#x15e;" horiz-adv-x="576" 
d="M377 397q47 -8 79 -22.5t51.5 -37.5t28 -55t8.5 -75v-17q0 -48 -13 -84t-44 -60t-82 -36t-127 -12h-90.5t-152.5 2l18 94q40 -1 70.5 -1.5t56.5 -0.5h49h49q49 0 80.5 4.5t49.5 16t24.5 31t6.5 49.5q0 26 -3.5 44t-14 30.5t-30.5 20.5t-53 14l-135 22q-50 8 -82.5 23.5
t-51 38t-25.5 53t-7 69.5v19q0 43 13.5 77.5t44 59t80 37.5t122.5 13h51h48t54.5 -0.5t71.5 -1.5l-18 -94q-71 2 -121 2h-95q-44 0 -72.5 -4.5t-45 -16t-22.5 -30t-6 -46.5q0 -24 3.5 -41t13.5 -29t29 -20t50 -13zM253 -95h-27t-28 -1l17 61q10 1 31 1h35q54 0 75 -18.5
t21 -58.5v-10q0 -45 -25.5 -63t-90.5 -18q-54 0 -94 3l20 62q14 -1 34 -1.5t32 -0.5q17 0 23 4.5t6 18.5q0 13 -6 17t-23 4z" />
    <glyph glyph-name="scedilla" unicode="&#x15f;" horiz-adv-x="519" 
d="M331 305q45 -4 73 -18.5t43 -35t20.5 -44t5.5 -45.5v-14q0 -71 -51 -110.5t-157 -39.5q-45 0 -104.5 0.5t-119.5 1.5l18 87q54 -1 110 -1.5t101 -0.5q58 0 79.5 13t21.5 51q0 12 -2.5 22.5t-10 18.5t-21.5 13.5t-38 7.5l-120 11q-37 3 -63 15.5t-42 31t-23.5 41.5
t-7.5 47v17q0 68 47 106.5t154 38.5h100t117 -2l-18 -87q-42 1 -74 1.5t-56.5 0.5h-44h-35.5q-51 0 -71 -12.5t-20 -44.5q0 -13 2.5 -23t10 -17t22 -12t38.5 -7zM253 -117q0 13 -6 18t-23 5h-23.5t-24.5 -1l17 60q10 1 24 1h28q52 0 74.5 -17t22.5 -59v-9q0 -45 -25 -64
t-90 -19q-23 0 -47.5 1t-34.5 2l20 61q14 -1 30.5 -1.5t28.5 -0.5q17 0 23 5t6 18z" />
    <glyph glyph-name="Scaron" unicode="&#x160;" horiz-adv-x="576" 
d="M377 397q47 -8 79 -22.5t51.5 -37.5t28 -55t8.5 -75v-17q0 -48 -13 -84t-44 -60t-82 -36t-127 -12h-90.5t-152.5 2l18 94q40 -1 70.5 -1.5t56.5 -0.5h49h49q49 0 80.5 4.5t49.5 16t24.5 31t6.5 49.5q0 26 -3.5 44t-14 30.5t-30.5 20.5t-53 14l-135 22q-50 8 -82.5 23.5
t-51 38t-25.5 53t-7 69.5v19q0 43 13.5 77.5t44 59t80 37.5t122.5 13h51h48t54.5 -0.5t71.5 -1.5l-18 -94q-71 2 -121 2h-95q-44 0 -72.5 -4.5t-45 -16t-22.5 -30t-6 -46.5q0 -24 3.5 -41t13.5 -29t29 -20t50 -13zM221 891l69 -63l70 63h106l-117 -118h-117l-117 118h106z
" />
    <glyph glyph-name="scaron" unicode="&#x161;" horiz-adv-x="519" 
d="M331 305q45 -4 73 -18.5t43 -35t20.5 -44t5.5 -45.5v-14q0 -71 -51 -110.5t-157 -39.5q-45 0 -104.5 0.5t-119.5 1.5l18 87q54 -1 110 -1.5t101 -0.5q58 0 79.5 13t21.5 51q0 12 -2.5 22.5t-10 18.5t-21.5 13.5t-38 7.5l-120 11q-37 3 -63 15.5t-42 31t-23.5 41.5
t-7.5 47v17q0 68 47 106.5t154 38.5h100t117 -2l-18 -87q-42 1 -74 1.5t-56.5 0.5h-44h-35.5q-51 0 -71 -12.5t-20 -44.5q0 -13 2.5 -23t10 -17t22 -12t38.5 -7zM208 599l-105 127h96l64 -72l64 72h96l-105 -127h-110z" />
    <glyph glyph-name="Tcommaaccent" unicode="&#x162;" horiz-adv-x="651" 
d="M631 712l-19 -94h-237v-618h-105v618h-250l19 94h592zM295 -95h-27t-28 -1l17 61q10 1 31 1h35q54 0 75 -18.5t21 -58.5v-10q0 -45 -25.5 -63t-90.5 -18q-54 0 -94 3l20 62q14 -1 34 -1.5t32 -0.5q17 0 23 4.5t6 18.5q0 13 -6 17t-23 4z" />
    <glyph glyph-name="tcommaaccent" unicode="&#x163;" horiz-adv-x="373" 
d="M58 639l105 19v-141h190l-18 -87h-172v-240q0 -33 3.5 -54t13.5 -32t28.5 -15t47.5 -4h91l-18 -85h-72q-60 0 -98.5 9t-61 30.5t-31 57.5t-8.5 90v452zM204 -117q0 13 -6 18t-23 5h-23.5t-24.5 -1l17 60q10 1 24 1h28q52 0 74.5 -17t22.5 -59v-9q0 -45 -25 -64t-90 -19
q-23 0 -47.5 1t-34.5 2l20 61q14 -1 30.5 -1.5t28.5 -0.5q17 0 23 5t6 18z" />
    <glyph glyph-name="Tcaron" unicode="&#x164;" horiz-adv-x="651" 
d="M631 712l-19 -94h-237v-618h-105v618h-250l19 94h592zM256 891l69 -63l70 63h106l-117 -118h-117l-117 118h106z" />
    <glyph glyph-name="tcaron" unicode="&#x165;" horiz-adv-x="373" 
d="M58 639l105 19v-141h190l-18 -87h-172v-240q0 -33 3.5 -54t13.5 -32t28.5 -15t47.5 -4h91l-18 -85h-72q-60 0 -98.5 9t-61 30.5t-31 57.5t-8.5 90v452zM322 743l-30 -181h-72l6 181h96z" />
    <glyph glyph-name="Tbar" unicode="&#x166;" horiz-adv-x="651" 
d="M631 712l-19 -94h-237v-233h157v-86h-157v-299h-105v299h-158v86h158v233h-250l19 94h592z" />
    <glyph glyph-name="tbar" unicode="&#x167;" horiz-adv-x="388" 
d="M10 317h48v322l105 19v-141h190l-18 -87h-172v-113h172v-81h-172v-46q0 -33 3.5 -54t13.5 -32t28.5 -15t47.5 -4h91l-18 -85h-72q-60 0 -98.5 9t-61 30.5t-31 57.5t-8.5 90v49h-48v81z" />
    <glyph glyph-name="Utilde" unicode="&#x168;" horiz-adv-x="680" 
d="M340 -18q-86 0 -139.5 20t-83.5 59t-41 96t-11 130v425h105v-427q0 -63 7 -104t26 -65t52 -33.5t85 -9.5t85 9.5t52 33.5t26 65t7 104v427h105v-425q0 -73 -11 -130t-41 -96t-84 -59t-139 -20zM325 792q-18 7 -33.5 12t-26.5 5t-17.5 -5t-6.5 -25v-16h-74v17
q0 63 23.5 87t58.5 24q17 0 38.5 -5t50.5 -16l17 -6l37.5 -13t22.5 -4t17.5 5t6.5 25v16h74v-17q0 -63 -23.5 -87t-58.5 -24q-17 0 -38.5 5t-50.5 16z" />
    <glyph glyph-name="utilde" unicode="&#x169;" horiz-adv-x="569" 
d="M285 -16q-113 0 -170 38t-57 130v365h105v-344q0 -25 3 -44t15 -32t36.5 -19.5t67.5 -6.5t67 6.5t36 19.5t15 32t3 44v344h105v-365q0 -92 -57 -130t-169 -38zM254 632q-9 5 -17.5 8t-18.5 3q-11 0 -17.5 -6t-6.5 -27v-13h-74v15q0 33 6.5 54.5t18 33.5t27.5 16.5t36 4.5
q19 0 35.5 -4.5t39.5 -15.5l32 -15q9 -5 17.5 -8t18.5 -3q11 0 17.5 6t6.5 27v13h74v-15q0 -33 -6.5 -54.5t-18 -33.5t-28 -16.5t-35.5 -4.5t-35.5 4.5t-39.5 15.5z" />
    <glyph glyph-name="Umacron" unicode="&#x16a;" horiz-adv-x="680" 
d="M340 -18q-86 0 -139.5 20t-83.5 59t-41 96t-11 130v425h105v-427q0 -63 7 -104t26 -65t52 -33.5t85 -9.5t85 9.5t52 33.5t26 65t7 104v427h105v-425q0 -73 -11 -130t-41 -96t-84 -59t-139 -20zM196 872h289v-81h-289v81z" />
    <glyph glyph-name="umacron" unicode="&#x16b;" horiz-adv-x="569" 
d="M285 -16q-113 0 -170 38t-57 130v365h105v-344q0 -25 3 -44t15 -32t36.5 -19.5t67.5 -6.5t67 6.5t36 19.5t15 32t3 44v344h105v-365q0 -92 -57 -130t-169 -38zM140 700h289v-81h-289v81z" />
    <glyph glyph-name="Ubreve" unicode="&#x16c;" horiz-adv-x="680" 
d="M340 -18q-86 0 -139.5 20t-83.5 59t-41 96t-11 130v425h105v-427q0 -63 7 -104t26 -65t52 -33.5t85 -9.5t85 9.5t52 33.5t26 65t7 104v427h105v-425q0 -73 -11 -130t-41 -96t-84 -59t-139 -20zM340 768q-84 0 -120.5 32t-37.5 102h93q0 -32 14 -47.5t51 -15.5t51 15.5
t14 47.5h93q-1 -70 -37.5 -102t-120.5 -32z" />
    <glyph glyph-name="ubreve" unicode="&#x16d;" horiz-adv-x="569" 
d="M285 -16q-113 0 -170 38t-57 130v365h105v-344q0 -25 3 -44t15 -32t36.5 -19.5t67.5 -6.5t67 6.5t36 19.5t15 32t3 44v344h105v-365q0 -92 -57 -130t-169 -38zM284 594q-84 0 -119.5 32.5t-36.5 97.5h93q0 -28 13 -43t50 -15t50 15t13 43h93q-1 -65 -36.5 -97.5
t-119.5 -32.5z" />
    <glyph glyph-name="Uring" unicode="&#x16e;" horiz-adv-x="680" 
d="M340 -18q-86 0 -139.5 20t-83.5 59t-41 96t-11 130v425h105v-427q0 -63 7 -104t26 -65t52 -33.5t85 -9.5t85 9.5t52 33.5t26 65t7 104v427h105v-425q0 -73 -11 -130t-41 -96t-84 -59t-139 -20zM211 845q0 62 33.5 91.5t95.5 29.5t95.5 -29.5t33.5 -91.5t-33.5 -91.5
t-95.5 -29.5t-95.5 29.5t-33.5 91.5zM398 845q0 35 -12.5 46.5t-45.5 11.5t-45.5 -11.5t-12.5 -46.5t12.5 -46.5t45.5 -11.5t45.5 11.5t12.5 46.5z" />
    <glyph glyph-name="uring" unicode="&#x16f;" horiz-adv-x="569" 
d="M285 -16q-113 0 -170 38t-57 130v365h105v-344q0 -25 3 -44t15 -32t36.5 -19.5t67.5 -6.5t67 6.5t36 19.5t15 32t3 44v344h105v-365q0 -92 -57 -130t-169 -38zM155 689q0 62 33.5 91.5t95.5 29.5t95.5 -29.5t33.5 -91.5t-33.5 -91.5t-95.5 -29.5t-95.5 29.5t-33.5 91.5z
M342 689q0 35 -12.5 46.5t-45.5 11.5t-45.5 -11.5t-12.5 -46.5t12.5 -46.5t45.5 -11.5t45.5 11.5t12.5 46.5z" />
    <glyph glyph-name="Uhungarumlaut" unicode="&#x170;" horiz-adv-x="680" 
d="M340 -18q-86 0 -139.5 20t-83.5 59t-41 96t-11 130v425h105v-427q0 -63 7 -104t26 -65t52 -33.5t85 -9.5t85 9.5t52 33.5t26 65t7 104v427h105v-425q0 -73 -11 -130t-41 -96t-84 -59t-139 -20zM407 892l-131 -119h-109l108 119h132zM593 892l-131 -119h-109l108 119h132z
" />
    <glyph glyph-name="uhungarumlaut" unicode="&#x171;" horiz-adv-x="569" 
d="M285 -16q-113 0 -170 38t-57 130v365h105v-344q0 -25 3 -44t15 -32t36.5 -19.5t67.5 -6.5t67 6.5t36 19.5t15 32t3 44v344h105v-365q0 -92 -57 -130t-169 -38zM227 725h106l-97 -126h-92zM387 725h106l-97 -126h-92z" />
    <glyph glyph-name="Uogonek" unicode="&#x172;" horiz-adv-x="680" 
d="M340 -18q-86 0 -139.5 20t-83.5 59t-41 96t-11 130v425h105v-427q0 -63 7 -104t26 -65t52 -33.5t85 -9.5t85 9.5t52 33.5t26 65t7 104v427h105v-425q0 -51 -5 -94t-18 -77.5t-34.5 -60.5t-55.5 -43q-52 -42 -71 -65t-19 -41q0 -11 8 -16t32 -5h38l-17 -79h-51
q-49 0 -73.5 15.5t-24.5 55.5q0 24 14 52t43 55q-10 -1 -20 -1.5t-21 -0.5z" />
    <glyph glyph-name="uogonek" unicode="&#x173;" horiz-adv-x="569" 
d="M285 -16q-120 0 -173.5 39.5t-53.5 128.5v365h105v-344q0 -25 3 -44t15 -32t36.5 -19.5t67.5 -6.5t67 6.5t36 19.5t15 32t3 44v344h105v-365q0 -46 -13.5 -78t-50.5 -58q-52 -36 -76 -63.5t-24 -46.5q0 -11 8 -16t32 -5h46l-17 -79h-59q-49 0 -73.5 15.5t-24.5 55.5
q0 25 15 53.5t45 55.5q-8 -1 -17 -1.5t-17 -0.5z" />
    <glyph glyph-name="Wcircumflex" unicode="&#x174;" horiz-adv-x="895" 
d="M767 712h103l-158 -712h-117l-147 567l-151 -567h-117l-155 712h109l112 -566l154 566h100l152 -566zM447 836l-69 -63h-106l117 118h117l117 -118h-106z" />
    <glyph glyph-name="wcircumflex" unicode="&#x175;" horiz-adv-x="770" 
d="M385 391l-104 -391h-108l-153 517h105l103 -407l109 407h102l104 -409l109 409h98l-156 -517h-108zM441 726l105 -127h-96l-64 72l-64 -72h-96l105 127h110z" />
    <glyph glyph-name="Ycircumflex" unicode="&#x176;" horiz-adv-x="652" 
d="M129 712l201 -322l198 322h114l-262 -413v-299h-105v299l-265 413h119zM326 836l-69 -63h-106l117 118h117l117 -118h-106z" />
    <glyph glyph-name="ycircumflex" unicode="&#x177;" horiz-adv-x="569" 
d="M107 -88q50 -2 87 -2h76q37 0 63 6.5t42.5 22t23.5 42.5t7 69v11q-9 -8 -20 -16t-27.5 -14t-41 -9.5t-60.5 -3.5q-96 0 -147.5 36.5t-51.5 128.5v334h105v-310q0 -25 2.5 -44t13 -32t33 -19.5t61.5 -6.5q43 0 69 5.5t40 19t19 35t5 53.5v299h105v-467q0 -62 -13.5 -105
t-43 -70t-75 -39.5t-108.5 -12.5h-43h-41t-45 0.5t-54 1.5zM339 726l105 -127h-96l-64 72l-64 -72h-96l105 127h110z" />
    <glyph glyph-name="Ydieresis" unicode="&#x178;" horiz-adv-x="652" 
d="M129 712l201 -322l198 322h114l-262 -413v-299h-105v299l-265 413h119zM293 831q0 -32 -14 -46t-46 -14t-46 14t-14 46t14 46t46 14t46 -14t14 -46zM479 831q0 -32 -14 -46t-46 -14t-46 14t-14 46t14 46t46 14t46 -14t14 -46z" />
    <glyph glyph-name="Zacute" unicode="&#x179;" horiz-adv-x="615" 
d="M38 89l386 529h-375l19 94h479v-89l-385 -529h411l-19 -94h-516v89zM483 892l-137 -119h-109l114 119h132z" />
    <glyph glyph-name="zacute" unicode="&#x17a;" horiz-adv-x="507" 
d="M162 87h315l-18 -87h-423v82l301 348h-300l18 87h407v-82zM281 725h117l-117 -126h-103z" />
    <glyph glyph-name="Zdotaccent" unicode="&#x17b;" horiz-adv-x="615" 
d="M38 89l386 529h-375l19 94h479v-89l-385 -529h411l-19 -94h-516v89zM364 828q0 -35 -15.5 -50.5t-50.5 -15.5t-50.5 15.5t-15.5 50.5t15.5 50.5t50.5 15.5t50.5 -15.5t15.5 -50.5z" />
    <glyph glyph-name="zdotaccent" unicode="&#x17c;" horiz-adv-x="507" 
d="M162 87h315l-18 -87h-423v82l301 348h-300l18 87h407v-82zM323 670q0 -35 -15.5 -50.5t-50.5 -15.5t-50.5 15.5t-15.5 50.5t15.5 50.5t50.5 15.5t50.5 -15.5t15.5 -50.5z" />
    <glyph glyph-name="Zcaron" unicode="&#x17d;" horiz-adv-x="615" 
d="M38 89l386 529h-375l19 94h479v-89l-385 -529h411l-19 -94h-516v89zM245 891l69 -63l70 63h106l-117 -118h-117l-117 118h106z" />
    <glyph glyph-name="zcaron" unicode="&#x17e;" horiz-adv-x="507" 
d="M162 87h315l-18 -87h-423v82l301 348h-300l18 87h407v-82zM200 599l-105 127h96l64 -72l64 72h96l-105 -127h-110z" />
    <glyph glyph-name="longs" unicode="&#x17f;" horiz-adv-x="221" 
d="M163 0h-105v512q0 64 11.5 108t38.5 72t72 40.5t113 12.5q13 0 41 -0.5t53 -1.5l-18 -87q-14 1 -34.5 1.5t-37.5 0.5q-41 0 -67 -5t-41 -20.5t-20.5 -43t-5.5 -72.5v-517z" />
    <glyph glyph-name="florin" unicode="&#x192;" horiz-adv-x="372" 
d="M58 512q0 64 11.5 108t38 72t70.5 40.5t109 12.5q38 0 67 -0.5t48 -1.5l-18 -87q-17 1 -39 1.5t-44 0.5q-43 0 -70 -5t-42 -20.5t-20.5 -43t-5.5 -72.5h196l-18 -87h-178v-426q0 -53 -10 -88t-32 -55.5t-57 -29t-86 -8.5q-38 0 -57 0.5t-27 1.5l18 83q14 -1 28.5 -1h34.5
q24 0 39.5 3t25.5 13t14 29t4 52v508z" />
    <glyph glyph-name="Scommaaccent" unicode="&#x218;" horiz-adv-x="576" 
d="M377 397q47 -8 79 -22.5t51.5 -37.5t28 -55t8.5 -75v-17q0 -48 -13 -84t-44 -60t-82 -36t-127 -12h-90.5t-152.5 2l18 94q40 -1 70.5 -1.5t56.5 -0.5h49h49q49 0 80.5 4.5t49.5 16t24.5 31t6.5 49.5q0 26 -3.5 44t-14 30.5t-30.5 20.5t-53 14l-135 22q-50 8 -82.5 23.5
t-51 38t-25.5 53t-7 69.5v19q0 43 13.5 77.5t44 59t80 37.5t122.5 13h51h48t54.5 -0.5t71.5 -1.5l-18 -94q-71 2 -121 2h-95q-44 0 -72.5 -4.5t-45 -16t-22.5 -30t-6 -46.5q0 -24 3.5 -41t13.5 -29t29 -20t50 -13zM237 -235l28 77q-14 5 -21 18t-7 30q0 23 15 39t47 16
q31 0 45 -15t14 -38q0 -13 -4 -25.5t-12 -29.5l-34 -72h-71z" />
    <glyph glyph-name="scommaaccent" unicode="&#x219;" horiz-adv-x="519" 
d="M331 305q45 -4 73 -18.5t43 -35t20.5 -44t5.5 -45.5v-14q0 -71 -51 -110.5t-157 -39.5q-45 0 -104.5 0.5t-119.5 1.5l18 87q54 -1 110 -1.5t101 -0.5q58 0 79.5 13t21.5 51q0 12 -2.5 22.5t-10 18.5t-21.5 13.5t-38 7.5l-120 11q-37 3 -63 15.5t-42 31t-23.5 41.5
t-7.5 47v17q0 68 47 106.5t154 38.5h100t117 -2l-18 -87q-42 1 -74 1.5t-56.5 0.5h-44h-35.5q-51 0 -71 -12.5t-20 -44.5q0 -13 2.5 -23t10 -17t22 -12t38.5 -7zM195 -110q0 25 16.5 40t44.5 15q31 0 45.5 -15.5t14.5 -38.5q0 -14 -3.5 -25.5t-11.5 -28.5l-35 -72h-71l28 78
q-28 12 -28 47z" />
    <glyph glyph-name="uni021A" unicode="&#x21a;" horiz-adv-x="651" 
d="M631 712l-19 -94h-237v-618h-105v618h-250l19 94h592zM266 -235l28 77q-14 5 -21 18t-7 30q0 23 15 39t47 16q31 0 45 -15t14 -38q0 -13 -4 -25.5t-12 -29.5l-34 -72h-71z" />
    <glyph glyph-name="uni021B" unicode="&#x21b;" horiz-adv-x="373" 
d="M58 639l105 19v-141h190l-18 -87h-172v-240q0 -33 3.5 -54t13.5 -32t28.5 -15t47.5 -4h91l-18 -85h-72q-60 0 -98.5 9t-61 30.5t-31 57.5t-8.5 90v452zM148 -110q0 25 16.5 40t44.5 15q31 0 45.5 -15.5t14.5 -38.5q0 -14 -3.5 -25.5t-11.5 -28.5l-35 -72h-71l28 78
q-28 12 -28 47z" />
    <glyph glyph-name="uni0237" unicode="&#x237;" horiz-adv-x="221" 
d="M-88 -92q14 -1 28.5 -1h34.5q24 0 39.5 3t25.5 13.5t14 29.5t4 52v512h105v-512q0 -53 -10 -88t-32 -56t-57 -29.5t-86 -8.5q-38 0 -57 0.5t-27 1.5z" />
    <glyph glyph-name="afii57929" unicode="&#x2bc;" horiz-adv-x="242" 
d="M136 746q38 0 50.5 -18.5t12.5 -43.5q0 -17 -6.5 -36.5t-14.5 -33.5l-64 -118h-72l55 136q-9 7 -16.5 17t-7.5 33q0 29 12.5 46.5t50.5 17.5z" />
    <glyph glyph-name="circumflex" unicode="&#x2c6;" horiz-adv-x="500" 
d="M305 726l105 -127h-96l-64 72l-64 -72h-96l105 127h110z" />
    <glyph glyph-name="caron" unicode="&#x2c7;" horiz-adv-x="500" 
d="M195 599l-105 127h96l64 -72l64 72h96l-105 -127h-110z" />
    <glyph glyph-name="uni02C9" unicode="&#x2c9;" horiz-adv-x="500" 
d="M105 700h289v-81h-289v81z" />
    <glyph glyph-name="breve" unicode="&#x2d8;" horiz-adv-x="500" 
d="M250 594q-84 0 -119.5 32.5t-36.5 97.5h93q0 -28 13 -43t50 -15t50 15t13 43h93q-1 -65 -36.5 -97.5t-119.5 -32.5z" />
    <glyph glyph-name="dotaccent" unicode="&#x2d9;" horiz-adv-x="500" 
d="M316 670q0 -35 -15.5 -50.5t-50.5 -15.5t-50.5 15.5t-15.5 50.5t15.5 50.5t50.5 15.5t50.5 -15.5t15.5 -50.5z" />
    <glyph glyph-name="ring" unicode="&#x2da;" horiz-adv-x="500" 
d="M121 689q0 62 33.5 91.5t95.5 29.5t95.5 -29.5t33.5 -91.5t-33.5 -91.5t-95.5 -29.5t-95.5 29.5t-33.5 91.5zM308 689q0 35 -12.5 46.5t-45.5 11.5t-45.5 -11.5t-12.5 -46.5t12.5 -46.5t45.5 -11.5t45.5 11.5t12.5 46.5z" />
    <glyph glyph-name="ogonek" unicode="&#x2db;" horiz-adv-x="500" 
d="M312 -194h-58q-44 0 -67.5 15t-23.5 56q0 31 23.5 67.5t71.5 68.5l72 -13q-42 -32 -60.5 -54t-18.5 -41q0 -11 6.5 -15.5t26.5 -4.5h45z" />
    <glyph glyph-name="tilde" unicode="&#x2dc;" horiz-adv-x="500" 
d="M220 632q-9 5 -17.5 8t-18.5 3q-11 0 -17.5 -6t-6.5 -27v-13h-74v15q0 33 6.5 54.5t18 33.5t27.5 16.5t36 4.5q19 0 35.5 -4.5t39.5 -15.5l32 -15q9 -5 17.5 -8t18.5 -3q11 0 17.5 6t6.5 27v13h74v-15q0 -33 -6.5 -54.5t-18 -33.5t-28 -16.5t-35.5 -4.5t-35.5 4.5
t-39.5 15.5z" />
    <glyph glyph-name="hungarumlaut" unicode="&#x2dd;" horiz-adv-x="500" 
d="M159 725h106l-97 -126h-92zM319 725h106l-97 -126h-92z" />
    <glyph glyph-name="Delta" unicode="&#x394;" horiz-adv-x="670" 
d="M15 0l262 712h116l262 -712h-640zM154 92h357l-179 522z" />
    <glyph glyph-name="Omega" unicode="&#x3a9;" horiz-adv-x="716" 
d="M49 405q0 90 18 152t55.5 100.5t95 56t136.5 17.5t136.5 -17.5t95 -56t55.5 -100.5t18 -152v-39q0 -53 -8 -96t-22 -76.5t-33.5 -60t-42.5 -46.5h123l-18 -87h-240v76q29 21 53 43.5t41.5 55t27 79t9.5 115.5v36q0 71 -9 116.5t-31 72t-59.5 36.5t-95.5 10t-95.5 -10
t-59.5 -36.5t-31 -72t-9 -116.5v-36q0 -69 9.5 -115.5t27 -79t41.5 -55t53 -43.5v-76h-250l18 87h96q-23 20 -42 46.5t-33 60t-22 76.5t-8 96v39z" />
    <glyph glyph-name="mu" unicode="&#x3bc;" horiz-adv-x="574" 
d="M301 0q-54 0 -87 8.5t-52 27.5v-211h-104v692h105v-302q0 -38 6 -63t21.5 -40t42.5 -21t68 -6h110v432h105v-431q0 -46 -21 -66t-81 -20h-113z" />
    <glyph glyph-name="pi" unicode="&#x3c0;" horiz-adv-x="616" 
d="M20 430l18 87h558l-18 -87h-61v-430h-105v430h-208v-430h-105v430h-79z" />
    <glyph glyph-name="Wgrave" unicode="&#x1e80;" horiz-adv-x="895" 
d="M767 712h103l-158 -712h-117l-147 567l-151 -567h-117l-155 712h109l112 -566l154 566h100l152 -566zM415 892l114 -119h-109l-137 119h132z" />
    <glyph glyph-name="wgrave" unicode="&#x1e81;" horiz-adv-x="770" 
d="M385 391l-104 -391h-108l-153 517h105l103 -407l109 407h102l104 -409l109 409h98l-156 -517h-108zM451 599h-103l-117 126h117z" />
    <glyph glyph-name="Wacute" unicode="&#x1e82;" horiz-adv-x="895" 
d="M767 712h103l-158 -712h-117l-147 567l-151 -567h-117l-155 712h109l112 -566l154 566h100l152 -566zM617 892l-137 -119h-109l114 119h132z" />
    <glyph glyph-name="wacute" unicode="&#x1e83;" horiz-adv-x="770" 
d="M385 391l-104 -391h-108l-153 517h105l103 -407l109 407h102l104 -409l109 409h98l-156 -517h-108zM409 725h117l-117 -126h-103z" />
    <glyph glyph-name="Wdieresis" unicode="&#x1e84;" horiz-adv-x="895" 
d="M767 712h103l-158 -712h-117l-147 567l-151 -567h-117l-155 712h109l112 -566l154 566h100l152 -566zM414 831q0 -32 -14 -46t-46 -14t-46 14t-14 46t14 46t46 14t46 -14t14 -46zM600 831q0 -32 -14 -46t-46 -14t-46 14t-14 46t14 46t46 14t46 -14t14 -46z" />
    <glyph glyph-name="wdieresis" unicode="&#x1e85;" horiz-adv-x="770" 
d="M385 391l-104 -391h-108l-153 517h105l103 -407l109 407h102l104 -409l109 409h98l-156 -517h-108zM357 663q0 -31 -13.5 -45t-45.5 -14t-45.5 14t-13.5 45t13.5 45t45.5 14t45.5 -14t13.5 -45zM529 663q0 -31 -13.5 -45t-45.5 -14t-45.5 14t-13.5 45t13.5 45t45.5 14
t45.5 -14t13.5 -45z" />
    <glyph glyph-name="Ygrave" unicode="&#x1ef2;" horiz-adv-x="652" 
d="M129 712l201 -322l198 322h114l-262 -413v-299h-105v299l-265 413h119zM310 892l114 -119h-109l-137 119h132z" />
    <glyph glyph-name="ygrave" unicode="&#x1ef3;" horiz-adv-x="569" 
d="M107 -88q50 -2 87 -2h76q37 0 63 6.5t42.5 22t23.5 42.5t7 69v11q-9 -8 -20 -16t-27.5 -14t-41 -9.5t-60.5 -3.5q-96 0 -147.5 36.5t-51.5 128.5v334h105v-310q0 -25 2.5 -44t13 -32t33 -19.5t61.5 -6.5q43 0 69 5.5t40 19t19 35t5 53.5v299h105v-467q0 -62 -13.5 -105
t-43 -70t-75 -39.5t-108.5 -12.5h-43h-41t-45 0.5t-54 1.5zM370 599h-103l-117 126h117z" />
    <glyph glyph-name="endash" unicode="&#x2013;" horiz-adv-x="500" 
d="M0 325h500v-93h-500v93z" />
    <glyph glyph-name="emdash" unicode="&#x2014;" horiz-adv-x="1000" 
d="M0 325h1000v-93h-1000v93z" />
    <glyph glyph-name="quoteleft" unicode="&#x2018;" horiz-adv-x="242" 
d="M141 743h65l-59 -151q15 -8 24 -21t9 -34q0 -31 -15.5 -48.5t-50.5 -17.5q-33 0 -49.5 17t-16.5 47q0 20 8 42.5t27 57.5z" />
    <glyph glyph-name="quoteright" unicode="&#x2019;" horiz-adv-x="242" 
d="M101 471h-65l59 151q-33 14 -33 55q0 35 18 50.5t48 15.5q33 0 49.5 -17t16.5 -47q0 -20 -8 -42.5t-27 -57.5z" />
    <glyph glyph-name="quotesinglbase" unicode="&#x201a;" horiz-adv-x="203" 
d="M81 -158h-65l59 151q-33 14 -33 55q0 35 18 50.5t48 15.5q33 0 49.5 -17t16.5 -47q0 -20 -8 -42.5t-27 -57.5z" />
    <glyph glyph-name="quotedblleft" unicode="&#x201c;" horiz-adv-x="452" 
d="M141 743h65l-59 -151q15 -8 24 -21t9 -34q0 -31 -15.5 -48.5t-50.5 -17.5q-33 0 -49.5 17t-16.5 47q0 20 8 42.5t27 57.5zM351 743h65l-59 -151q15 -8 24 -21t9 -34q0 -31 -15.5 -48.5t-50.5 -17.5q-33 0 -49.5 17t-16.5 47q0 20 8 42.5t27 57.5z" />
    <glyph glyph-name="quotedblright" unicode="&#x201d;" horiz-adv-x="452" 
d="M101 471h-65l59 151q-33 14 -33 55q0 35 18 50.5t48 15.5q33 0 49.5 -17t16.5 -47q0 -20 -8 -42.5t-27 -57.5zM311 471h-65l59 151q-33 14 -33 55q0 35 18 50.5t48 15.5q33 0 49.5 -17t16.5 -47q0 -20 -8 -42.5t-27 -57.5z" />
    <glyph glyph-name="quotedblbase" unicode="&#x201e;" horiz-adv-x="413" 
d="M82 -157h-65l59 151q-33 14 -33 55q0 35 18 50.5t48 15.5q33 0 49.5 -17t16.5 -47q0 -20 -8 -42.5t-27 -57.5zM291 -157h-65l59 151q-33 14 -33 55q0 35 18 50.5t48 15.5q33 0 49.5 -17t16.5 -47q0 -20 -8 -42.5t-27 -57.5z" />
    <glyph glyph-name="dagger" unicode="&#x2020;" horiz-adv-x="495" 
d="M20 390l18 87h161v235h97v-235h179l-18 -87h-161v-565h-97v565h-179z" />
    <glyph glyph-name="daggerdbl" unicode="&#x2021;" horiz-adv-x="495" 
d="M20 52l18 87h161v261h-179l18 87h161v225h97v-225h179l-18 -87h-161v-261h179l-18 -87h-161v-227h-97v227h-179z" />
    <glyph glyph-name="bullet" unicode="&#x2022;" horiz-adv-x="420" 
d="M335 280q0 -63 -28.5 -94t-96.5 -31t-96.5 31t-28.5 94t28.5 94t96.5 31t96.5 -31t28.5 -94z" />
    <glyph glyph-name="ellipsis" unicode="&#x2026;" horiz-adv-x="1000" 
d="M236 62q0 -35 -16.5 -52t-52.5 -17t-52.5 17t-16.5 52t16.5 52t52.5 17t52.5 -17t16.5 -52zM570 62q0 -35 -16.5 -52t-52.5 -17t-52.5 17t-16.5 52t16.5 52t52.5 17t52.5 -17t16.5 -52zM902 62q0 -35 -16.5 -52t-52.5 -17t-52.5 17t-16.5 52t16.5 52t52.5 17t52.5 -17
t16.5 -52z" />
    <glyph glyph-name="perthousand" unicode="&#x2030;" horiz-adv-x="1339" 
d="M631 680h94l-420 -680h-94zM730 65q28 0 44.5 6t24.5 20t10.5 38t2.5 60v14q0 36 -2.5 60t-10.5 38t-24.5 20t-44.5 6t-44.5 -6t-24.5 -20t-10.5 -38t-2.5 -60v-14q0 -36 2.5 -60t10.5 -38t24.5 -20t44.5 -6zM730 -9q-55 0 -88.5 13t-52 37.5t-24.5 59t-6 77.5v36
q0 43 6 77.5t24.5 59t52 37.5t88.5 13t88.5 -13t52 -37.5t24.5 -59t6 -77.5v-36q0 -43 -6 -77.5t-24.5 -59t-52 -37.5t-88.5 -13zM1139 65q28 0 44.5 6t24.5 20t10.5 38t2.5 60v14q0 36 -2.5 60t-10.5 38t-24.5 20t-44.5 6t-44.5 -6t-24.5 -20t-10.5 -38t-2.5 -60v-14
q0 -36 2.5 -60t10.5 -38t24.5 -20t44.5 -6zM1139 -9q-55 0 -88.5 13t-52 37.5t-24.5 59t-6 77.5v36q0 43 6 77.5t24.5 59t52 37.5t88.5 13t88.5 -13t52 -37.5t24.5 -59t6 -77.5v-36q0 -43 -6 -77.5t-24.5 -59t-52 -37.5t-88.5 -13zM200 353q28 0 44.5 6t24.5 20t10.5 38
t2.5 60v14q0 36 -2.5 60t-10.5 38t-24.5 20t-44.5 6t-44.5 -6t-24.5 -20t-10.5 -38t-2.5 -60v-14q0 -36 2.5 -60t10.5 -38t24.5 -20t44.5 -6zM200 279q-55 0 -88.5 13t-52 37.5t-24.5 59t-6 77.5v36q0 43 6 77.5t24.5 59t52 37.5t88.5 13t88.5 -13t52 -37.5t24.5 -59
t6 -77.5v-36q0 -43 -6 -77.5t-24.5 -59t-52 -37.5t-88.5 -13z" />
    <glyph glyph-name="guilsinglleft" unicode="&#x2039;" horiz-adv-x="313" 
d="M40 314l233 170v-112l-156 -113l156 -112v-112l-233 170v109z" />
    <glyph glyph-name="guilsinglright" unicode="&#x203a;" horiz-adv-x="313" 
d="M273 205l-233 -170v112l156 112l-156 113v112l233 -170v-109z" />
    <glyph glyph-name="fraction" unicode="&#x2044;" horiz-adv-x="124" 
d="M225 680h94l-420 -680h-94z" />
    <glyph glyph-name="uni2070" unicode="&#x2070;" 
d="M189 353q28 0 44.5 6t24.5 20t10.5 38t2.5 60v14q0 36 -2.5 60t-10.5 38t-24.5 20t-44.5 6t-44.5 -6t-24.5 -20t-10.5 -38t-2.5 -60v-14q0 -36 2.5 -60t10.5 -38t24.5 -20t44.5 -6zM189 279q-55 0 -88.5 13t-52 37.5t-24.5 59t-6 77.5v36q0 43 6 77.5t24.5 59t52 37.5
t88.5 13t88.5 -13t52 -37.5t24.5 -59t6 -77.5v-36q0 -43 -6 -77.5t-24.5 -59t-52 -37.5t-88.5 -13z" />
    <glyph glyph-name="uni2074" unicode="&#x2074;" 
d="M123 432h104v102l84 12v-114h50l-14 -67h-36v-77h-84v77h-191v66l139 249h90z" />
    <glyph glyph-name="uni2075" unicode="&#x2075;" 
d="M53 459v221h263l-14 -73h-169v-77h65q39 0 65 -6t41.5 -19.5t22 -35t6.5 -52.5v-20q0 -58 -36.5 -84t-117.5 -26h-36.5t-38 0.5t-34.5 1t-27 0.5l14 72q21 -1 53.5 -1.5t78.5 -0.5q35 0 46.5 9.5t11.5 35.5v10q0 26 -11 35.5t-46 9.5h-137z" />
    <glyph glyph-name="uni2076" unicode="&#x2076;" 
d="M301 607q-15 1 -40 1h-45q-55 0 -75.5 -16.5t-20.5 -60.5v-11q14 11 37 18t52 7q68 0 103 -29.5t35 -94.5v-14q0 -128 -154 -128q-76 0 -115.5 33t-39.5 116v89q0 85 41.5 124.5t136.5 39.5h49.5t48.5 -1zM192 478q-39 0 -55.5 -12.5t-16.5 -49.5v-5q0 -37 15.5 -49.5
t55.5 -12.5q41 0 57 12.5t16 49.5v5q0 37 -16 49.5t-56 12.5z" />
    <glyph glyph-name="uni2077" unicode="&#x2077;" 
d="M92 288l146 318h-197l14 74h271v-69l-142 -323h-92z" />
    <glyph glyph-name="uni2078" unicode="&#x2078;" 
d="M189 279q-85 0 -121 30t-36 84v6q0 33 15 57t51 37q-26 8 -40.5 29.5t-14.5 54.5v7q0 48 33.5 76.5t112.5 28.5t112.5 -28.5t33.5 -76.5v-7q0 -33 -15 -54.5t-41 -29.5q36 -13 51.5 -37t15.5 -57v-6q0 -54 -36 -84t-121 -30zM189 342q39 0 55.5 12.5t16.5 43.5v6
q0 31 -16.5 43.5t-55.5 12.5t-55.5 -12.5t-16.5 -43.5v-6q0 -31 16.5 -43.5t55.5 -12.5zM189 524q38 0 51 10.5t13 39.5v5q0 29 -13 39.5t-51 10.5t-51 -10.5t-13 -39.5v-5q0 -29 13 -39.5t51 -10.5z" />
    <glyph glyph-name="uni2079" unicode="&#x2079;" 
d="M76 362q11 -1 36.5 -1.5t48.5 -0.5q55 0 75.5 16.5t20.5 60.5v11q-14 -11 -37 -18t-52 -7q-66 0 -102 29t-36 95v14q0 67 40 97.5t114 30.5q76 0 115.5 -33t39.5 -116v-89q0 -85 -41.5 -124.5t-136.5 -39.5q-21 0 -49.5 0.5t-48.5 1.5zM185 490q39 0 55.5 12.5t16.5 49.5
v5q0 37 -15.5 49.5t-55.5 12.5q-41 0 -57 -12.5t-16 -49.5v-5q0 -37 16 -49.5t56 -12.5z" />
    <glyph glyph-name="uni2080" unicode="&#x2080;" 
d="M189 65q28 0 44.5 6t24.5 20t10.5 38t2.5 60v14q0 36 -2.5 60t-10.5 38t-24.5 20t-44.5 6t-44.5 -6t-24.5 -20t-10.5 -38t-2.5 -60v-14q0 -36 2.5 -60t10.5 -38t24.5 -20t44.5 -6zM189 -9q-55 0 -88.5 13t-52 37.5t-24.5 59t-6 77.5v36q0 43 6 77.5t24.5 59t52 37.5
t88.5 13t88.5 -13t52 -37.5t24.5 -59t6 -77.5v-36q0 -43 -6 -77.5t-24.5 -59t-52 -37.5t-88.5 -13z" />
    <glyph glyph-name="uni2081" unicode="&#x2081;" 
d="M343 74l-12 -74h-262l12 74h82v248h-93l14 70h166v-318h93z" />
    <glyph glyph-name="uni2082" unicode="&#x2082;" 
d="M186 156q-17 -5 -27.5 -10t-15.5 -12.5t-6.5 -19.5t-1.5 -31v-9h198l-12 -74h-273v71q0 67 23.5 101t83.5 51l44 13q31 9 39.5 17.5t8.5 28.5q0 23 -10.5 31t-44.5 8q-43 0 -78.5 -0.5t-55.5 -1.5l11 72q23 1 52 1.5t65 0.5q81 0 114 -25.5t33 -77.5v-12q0 -41 -18 -65
t-71 -40z" />
    <glyph glyph-name="uni2083" unicode="&#x2083;" 
d="M324 286q0 -28 -11 -49t-44 -31q34 -10 49.5 -34t15.5 -53v-9q0 -54 -36.5 -82.5t-118.5 -28.5q-45 0 -75.5 0.5t-58.5 1.5l11 73q25 -1 59 -1.5t76 -0.5q31 0 43 8t12 34v5q0 26 -12 35t-43 9h-112l11 72h87q38 0 50 9t12 33v5q0 22 -12 29.5t-50 7.5q-29 0 -63 -0.5
t-57 -1.5l11 74q32 1 66 1.5t51 0.5q75 0 107 -25.5t32 -76.5v-5z" />
    <glyph glyph-name="uni2084" unicode="&#x2084;" 
d="M123 144h104v102l84 12v-114h50l-14 -67h-36v-77h-84v77h-191v66l139 249h90z" />
    <glyph glyph-name="uni2085" unicode="&#x2085;" 
d="M53 171v221h263l-14 -73h-169v-77h65q39 0 65 -6t41.5 -19.5t22 -35t6.5 -52.5v-20q0 -58 -36.5 -84t-117.5 -26h-36.5t-38 0.5t-34.5 1t-27 0.5l14 72q21 -1 53.5 -1.5t78.5 -0.5q35 0 46.5 9.5t11.5 35.5v10q0 26 -11 35.5t-46 9.5h-137z" />
    <glyph glyph-name="uni2086" unicode="&#x2086;" 
d="M301 319q-15 1 -40 1h-45q-55 0 -75.5 -16.5t-20.5 -60.5v-11q14 11 37 18t52 7q68 0 103 -29.5t35 -94.5v-14q0 -128 -154 -128q-76 0 -115.5 33t-39.5 116v89q0 85 41.5 124.5t136.5 39.5h49.5t48.5 -1zM192 190q-39 0 -55.5 -12.5t-16.5 -49.5v-5q0 -37 15.5 -49.5
t55.5 -12.5q41 0 57 12.5t16 49.5v5q0 37 -16 49.5t-56 12.5z" />
    <glyph glyph-name="uni2087" unicode="&#x2087;" 
d="M92 0l146 318h-197l14 74h271v-69l-142 -323h-92z" />
    <glyph glyph-name="uni2088" unicode="&#x2088;" 
d="M189 -9q-85 0 -121 30t-36 84v6q0 33 15 57t51 37q-26 8 -40.5 29.5t-14.5 54.5v7q0 48 33.5 76.5t112.5 28.5t112.5 -28.5t33.5 -76.5v-7q0 -33 -15 -54.5t-41 -29.5q36 -13 51.5 -37t15.5 -57v-6q0 -54 -36 -84t-121 -30zM189 54q39 0 55.5 12.5t16.5 43.5v6
q0 31 -16.5 43.5t-55.5 12.5t-55.5 -12.5t-16.5 -43.5v-6q0 -31 16.5 -43.5t55.5 -12.5zM189 236q38 0 51 10.5t13 39.5v5q0 29 -13 39.5t-51 10.5t-51 -10.5t-13 -39.5v-5q0 -29 13 -39.5t51 -10.5z" />
    <glyph glyph-name="uni2089" unicode="&#x2089;" 
d="M76 74q11 -1 36.5 -1.5t48.5 -0.5q55 0 75.5 16.5t20.5 60.5v11q-14 -11 -37 -18t-52 -7q-66 0 -102 29t-36 95v14q0 67 40 97.5t114 30.5q76 0 115.5 -33t39.5 -116v-89q0 -85 -41.5 -124.5t-136.5 -39.5q-21 0 -49.5 0.5t-48.5 1.5zM185 202q39 0 55.5 12.5t16.5 49.5
v5q0 37 -15.5 49.5t-55.5 12.5q-41 0 -57 -12.5t-16 -49.5v-5q0 -37 16 -49.5t56 -12.5z" />
    <glyph glyph-name="Euro" unicode="&#x20ac;" horiz-adv-x="595" 
d="M216 387v-93h269l-15 -79h-245q4 -36 15.5 -60.5t32.5 -39.5t53 -21t76 -6q30 0 69 0.5t74 1.5l-19 -90q-22 -1 -38 -1.5t-29.5 -0.5h-27.5h-32q-75 0 -125.5 14t-83 41.5t-49 68t-22.5 93.5h-78l15 79h61v93h-76l15 79h63q7 51 24 91t48.5 68t80.5 42.5t120 14.5
q39 0 77.5 -0.5t64.5 -1.5l-19 -90q-26 1 -55.5 1.5t-67.5 0.5q-44 0 -73.5 -5.5t-49 -20t-29.5 -39t-15 -61.5h260l-15 -79h-254z" />
    <glyph glyph-name="uni20B9" unicode="&#x20b9;" horiz-adv-x="595" 
d="M52 505h275q-2 28 -10 45.5t-24.5 27.5t-43 14t-66.5 4h-131v84h476l-16 -85h-114q28 -33 33 -90h97l-16 -86h-81q-9 -88 -63.5 -126.5t-163.5 -38.5h-7l285 -254h-139l-291 263v72h134q39 0 65.5 3.5t42.5 12.5t23.5 25.5t9.5 42.5h-275v86z" />
    <glyph glyph-name="uni20BA" unicode="&#x20ba;" horiz-adv-x="595" 
d="M437 237l95 20v-35q0 -60 -14 -102.5t-45.5 -69t-81 -38.5t-121.5 -12h-153v201l-65 -28v84l65 28v96l-65 -28v84l65 28v215h99v-171l182 80v-84l-182 -80v-96l182 80v-84l-182 -80v-155h54q48 0 80.5 6t51.5 20.5t27 39t8 62.5v19z" />
    <glyph glyph-name="afii61289" unicode="&#x2113;" horiz-adv-x="404" 
d="M94 178l-51 -48l-43 62l93 82v247q0 101 35 152t110 51q64 0 99 -38t35 -112q0 -46 -13.5 -87t-38.5 -80.5t-61 -78.5t-80 -80v-57q0 -69 16.5 -98t65.5 -29q25 0 47 7t45 19l26 -63q-30 -20 -63.5 -31.5t-75.5 -11.5q-40 0 -67.5 14t-45 38t-25.5 57t-8 72v13zM179 349
q32 33 53 61.5t33 54t17 50t5 50.5q0 40 -11.5 59.5t-40.5 19.5q-28 0 -42 -22t-14 -79v-194z" />
    <glyph glyph-name="trademark" unicode="&#x2122;" horiz-adv-x="833" 
d="M483 712l112 -186l107 186h86v-372h-80v249l-89 -147h-55l-89 147v-249h-78v372h86zM352 712l-14 -69h-117v-303h-83v303h-130l14 69h330z" />
    <glyph glyph-name="uni2126" unicode="&#x2126;" horiz-adv-x="716" 
d="M49 405q0 90 18 152t55.5 100.5t95 56t136.5 17.5t136.5 -17.5t95 -56t55.5 -100.5t18 -152v-39q0 -53 -8 -96t-22 -76.5t-33.5 -60t-42.5 -46.5h123l-18 -87h-240v76q29 21 53 43.5t41.5 55t27 79t9.5 115.5v36q0 71 -9 116.5t-31 72t-59.5 36.5t-95.5 10t-95.5 -10
t-59.5 -36.5t-31 -72t-9 -116.5v-36q0 -69 9.5 -115.5t27 -79t41.5 -55t53 -43.5v-76h-250l18 87h96q-23 20 -42 46.5t-33 60t-22 76.5t-8 96v39z" />
    <glyph glyph-name="estimated" unicode="&#x212e;" horiz-adv-x="785" 
d="M389 656q-70 0 -123 -16.5t-89 -52.5v-211h431v211q-39 33 -93.5 51t-125.5 18zM691 149q-29 -45 -61 -75.5t-68 -49t-78 -26.5t-91 -8q-83 0 -148 27.5t-109.5 74.5t-68 111t-23.5 137t23 136.5t67.5 109.5t108.5 72.5t146 26.5t147 -25t110 -71t69.5 -109.5
t25.5 -139.5h-564v-245q38 -38 89.5 -58t127.5 -20q93 0 159 33.5t116 113.5z" />
    <glyph glyph-name="uni2150" unicode="&#x2150;" horiz-adv-x="880" 
d="M605 680h94l-420 -680h-94zM594 0l146 318h-197l14 74h271v-69l-142 -323h-92zM343 362l-12 -74h-262l12 74h82v248h-93l14 70h166v-318h93z" />
    <glyph glyph-name="uni2151" unicode="&#x2151;" horiz-adv-x="880" 
d="M613 680h94l-420 -680h-94zM578 74q11 -1 36.5 -1.5t48.5 -0.5q55 0 75.5 16.5t20.5 60.5v11q-14 -11 -37 -18t-52 -7q-66 0 -102 29t-36 95v14q0 67 40 97.5t114 30.5q76 0 115.5 -33t39.5 -116v-89q0 -85 -41.5 -124.5t-136.5 -39.5q-21 0 -49.5 0.5t-48.5 1.5z
M687 202q39 0 55.5 12.5t16.5 49.5v5q0 37 -15.5 49.5t-55.5 12.5q-41 0 -57 -12.5t-16 -49.5v-5q0 -37 16 -49.5t56 -12.5zM343 362l-12 -74h-262l12 74h82v248h-93l14 70h166v-318h93z" />
    <glyph glyph-name="onethird" unicode="&#x2153;" horiz-adv-x="880" 
d="M603 680h94l-420 -680h-94zM826 286q0 -28 -11 -49t-44 -31q34 -10 49.5 -34t15.5 -53v-9q0 -54 -36.5 -82.5t-118.5 -28.5q-45 0 -75.5 0.5t-58.5 1.5l11 73q25 -1 59 -1.5t76 -0.5q31 0 43 8t12 34v5q0 26 -12 35t-43 9h-112l11 72h87q38 0 50 9t12 33v5q0 22 -12 29.5
t-50 7.5q-29 0 -63 -0.5t-57 -1.5l11 74q32 1 66 1.5t51 0.5q75 0 107 -25.5t32 -76.5v-5zM343 362l-12 -74h-262l12 74h82v248h-93l14 70h166v-318h93z" />
    <glyph glyph-name="twothirds" unicode="&#x2154;" horiz-adv-x="880" 
d="M603 680h94l-420 -680h-94zM826 286q0 -28 -11 -49t-44 -31q34 -10 49.5 -34t15.5 -53v-9q0 -54 -36.5 -82.5t-118.5 -28.5q-45 0 -75.5 0.5t-58.5 1.5l11 73q25 -1 59 -1.5t76 -0.5q31 0 43 8t12 34v5q0 26 -12 35t-43 9h-112l11 72h87q38 0 50 9t12 33v5q0 22 -12 29.5
t-50 7.5q-29 0 -63 -0.5t-57 -1.5l11 74q32 1 66 1.5t51 0.5q75 0 107 -25.5t32 -76.5v-5zM186 444q-17 -5 -27.5 -10t-15.5 -12.5t-6.5 -19.5t-1.5 -31v-9h198l-12 -74h-273v71q0 67 23.5 101t83.5 51l44 13q31 9 39.5 17.5t8.5 28.5q0 23 -10.5 31t-44.5 8
q-43 0 -78.5 -0.5t-55.5 -1.5l11 72q23 1 52 1.5t65 0.5q81 0 114 -25.5t33 -77.5v-12q0 -41 -18 -65t-71 -40z" />
    <glyph glyph-name="uni2155" unicode="&#x2155;" horiz-adv-x="880" 
d="M603 680h94l-420 -680h-94zM555 171v221h263l-14 -73h-169v-77h65q39 0 65 -6t41.5 -19.5t22 -35t6.5 -52.5v-20q0 -58 -36.5 -84t-117.5 -26h-36.5t-38 0.5t-34.5 1t-27 0.5l14 72q21 -1 53.5 -1.5t78.5 -0.5q35 0 46.5 9.5t11.5 35.5v10q0 26 -11 35.5t-46 9.5h-137z
M343 362l-12 -74h-262l12 74h82v248h-93l14 70h166v-318h93z" />
    <glyph glyph-name="uni2156" unicode="&#x2156;" horiz-adv-x="880" 
d="M600 680h94l-420 -680h-94zM555 171v221h263l-14 -73h-169v-77h65q39 0 65 -6t41.5 -19.5t22 -35t6.5 -52.5v-20q0 -58 -36.5 -84t-117.5 -26h-36.5t-38 0.5t-34.5 1t-27 0.5l14 72q21 -1 53.5 -1.5t78.5 -0.5q35 0 46.5 9.5t11.5 35.5v10q0 26 -11 35.5t-46 9.5h-137z
M186 444q-17 -5 -27.5 -10t-15.5 -12.5t-6.5 -19.5t-1.5 -31v-9h198l-12 -74h-273v71q0 67 23.5 101t83.5 51l44 13q31 9 39.5 17.5t8.5 28.5q0 23 -10.5 31t-44.5 8q-43 0 -78.5 -0.5t-55.5 -1.5l11 72q23 1 52 1.5t65 0.5q81 0 114 -25.5t33 -77.5v-12q0 -41 -18 -65
t-71 -40z" />
    <glyph glyph-name="uni2157" unicode="&#x2157;" horiz-adv-x="880" 
d="M588 680h94l-420 -680h-94zM555 171v221h263l-14 -73h-169v-77h65q39 0 65 -6t41.5 -19.5t22 -35t6.5 -52.5v-20q0 -58 -36.5 -84t-117.5 -26h-36.5t-38 0.5t-34.5 1t-27 0.5l14 72q21 -1 53.5 -1.5t78.5 -0.5q35 0 46.5 9.5t11.5 35.5v10q0 26 -11 35.5t-46 9.5h-137z
M324 574q0 -28 -11 -49t-44 -31q34 -10 49.5 -34t15.5 -53v-9q0 -54 -36.5 -82.5t-118.5 -28.5q-45 0 -75.5 0.5t-58.5 1.5l11 73q25 -1 59 -1.5t76 -0.5q31 0 43 8t12 34v5q0 26 -12 35t-43 9h-112l11 72h87q38 0 50 9t12 33v5q0 22 -12 29.5t-50 7.5q-29 0 -63 -0.5
t-57 -1.5l11 74q32 1 66 1.5t51 0.5q75 0 107 -25.5t32 -76.5v-5z" />
    <glyph glyph-name="uni2158" unicode="&#x2158;" horiz-adv-x="880" 
d="M599 680h94l-420 -680h-94zM555 171v221h263l-14 -73h-169v-77h65q39 0 65 -6t41.5 -19.5t22 -35t6.5 -52.5v-20q0 -58 -36.5 -84t-117.5 -26h-36.5t-38 0.5t-34.5 1t-27 0.5l14 72q21 -1 53.5 -1.5t78.5 -0.5q35 0 46.5 9.5t11.5 35.5v10q0 26 -11 35.5t-46 9.5h-137z
M123 432h104v102l84 12v-114h50l-14 -67h-36v-77h-84v77h-191v66l139 249h90z" />
    <glyph glyph-name="uni2159" unicode="&#x2159;" horiz-adv-x="880" 
d="M624 680h94l-420 -680h-94zM803 319q-15 1 -40 1h-45q-55 0 -75.5 -16.5t-20.5 -60.5v-11q14 11 37 18t52 7q68 0 103 -29.5t35 -94.5v-14q0 -128 -154 -128q-76 0 -115.5 33t-39.5 116v89q0 85 41.5 124.5t136.5 39.5h49.5t48.5 -1zM694 190q-39 0 -55.5 -12.5
t-16.5 -49.5v-5q0 -37 15.5 -49.5t55.5 -12.5q41 0 57 12.5t16 49.5v5q0 37 -16 49.5t-56 12.5zM343 362l-12 -74h-262l12 74h82v248h-93l14 70h166v-318h93z" />
    <glyph glyph-name="uni215A" unicode="&#x215a;" horiz-adv-x="880" 
d="M605 680h94l-420 -680h-94zM803 319q-15 1 -40 1h-45q-55 0 -75.5 -16.5t-20.5 -60.5v-11q14 11 37 18t52 7q68 0 103 -29.5t35 -94.5v-14q0 -128 -154 -128q-76 0 -115.5 33t-39.5 116v89q0 85 41.5 124.5t136.5 39.5h49.5t48.5 -1zM694 190q-39 0 -55.5 -12.5
t-16.5 -49.5v-5q0 -37 15.5 -49.5t55.5 -12.5q41 0 57 12.5t16 49.5v5q0 37 -16 49.5t-56 12.5zM53 459v221h263l-14 -73h-169v-77h65q39 0 65 -6t41.5 -19.5t22 -35t6.5 -52.5v-20q0 -58 -36.5 -84t-117.5 -26h-36.5t-38 0.5t-34.5 1t-27 0.5l14 72q21 -1 53.5 -1.5
t78.5 -0.5q35 0 46.5 9.5t11.5 35.5v10q0 26 -11 35.5t-46 9.5h-137z" />
    <glyph glyph-name="oneeighth" unicode="&#x215b;" horiz-adv-x="880" 
d="M614 680h94l-420 -680h-94zM691 -9q-85 0 -121 30t-36 84v6q0 33 15 57t51 37q-26 8 -40.5 29.5t-14.5 54.5v7q0 48 33.5 76.5t112.5 28.5t112.5 -28.5t33.5 -76.5v-7q0 -33 -15 -54.5t-41 -29.5q36 -13 51.5 -37t15.5 -57v-6q0 -54 -36 -84t-121 -30zM691 54
q39 0 55.5 12.5t16.5 43.5v6q0 31 -16.5 43.5t-55.5 12.5t-55.5 -12.5t-16.5 -43.5v-6q0 -31 16.5 -43.5t55.5 -12.5zM691 236q38 0 51 10.5t13 39.5v5q0 29 -13 39.5t-51 10.5t-51 -10.5t-13 -39.5v-5q0 -29 13 -39.5t51 -10.5zM343 362l-12 -74h-262l12 74h82v248h-93
l14 70h166v-318h93z" />
    <glyph glyph-name="threeeighths" unicode="&#x215c;" horiz-adv-x="880" 
d="M596 680h94l-420 -680h-94zM691 -9q-85 0 -121 30t-36 84v6q0 33 15 57t51 37q-26 8 -40.5 29.5t-14.5 54.5v7q0 48 33.5 76.5t112.5 28.5t112.5 -28.5t33.5 -76.5v-7q0 -33 -15 -54.5t-41 -29.5q36 -13 51.5 -37t15.5 -57v-6q0 -54 -36 -84t-121 -30zM691 54
q39 0 55.5 12.5t16.5 43.5v6q0 31 -16.5 43.5t-55.5 12.5t-55.5 -12.5t-16.5 -43.5v-6q0 -31 16.5 -43.5t55.5 -12.5zM691 236q38 0 51 10.5t13 39.5v5q0 29 -13 39.5t-51 10.5t-51 -10.5t-13 -39.5v-5q0 -29 13 -39.5t51 -10.5zM324 574q0 -28 -11 -49t-44 -31
q34 -10 49.5 -34t15.5 -53v-9q0 -54 -36.5 -82.5t-118.5 -28.5q-45 0 -75.5 0.5t-58.5 1.5l11 73q25 -1 59 -1.5t76 -0.5q31 0 43 8t12 34v5q0 26 -12 35t-43 9h-112l11 72h87q38 0 50 9t12 33v5q0 22 -12 29.5t-50 7.5q-29 0 -63 -0.5t-57 -1.5l11 74q32 1 66 1.5t51 0.5
q75 0 107 -25.5t32 -76.5v-5z" />
    <glyph glyph-name="fiveeighths" unicode="&#x215d;" horiz-adv-x="880" 
d="M603 680h94l-420 -680h-94zM691 -9q-85 0 -121 30t-36 84v6q0 33 15 57t51 37q-26 8 -40.5 29.5t-14.5 54.5v7q0 48 33.5 76.5t112.5 28.5t112.5 -28.5t33.5 -76.5v-7q0 -33 -15 -54.5t-41 -29.5q36 -13 51.5 -37t15.5 -57v-6q0 -54 -36 -84t-121 -30zM691 54
q39 0 55.5 12.5t16.5 43.5v6q0 31 -16.5 43.5t-55.5 12.5t-55.5 -12.5t-16.5 -43.5v-6q0 -31 16.5 -43.5t55.5 -12.5zM691 236q38 0 51 10.5t13 39.5v5q0 29 -13 39.5t-51 10.5t-51 -10.5t-13 -39.5v-5q0 -29 13 -39.5t51 -10.5zM53 459v221h263l-14 -73h-169v-77h65
q39 0 65 -6t41.5 -19.5t22 -35t6.5 -52.5v-20q0 -58 -36.5 -84t-117.5 -26h-36.5t-38 0.5t-34.5 1t-27 0.5l14 72q21 -1 53.5 -1.5t78.5 -0.5q35 0 46.5 9.5t11.5 35.5v10q0 26 -11 35.5t-46 9.5h-137z" />
    <glyph glyph-name="seveneighths" unicode="&#x215e;" horiz-adv-x="880" 
d="M555 680h94l-420 -680h-94zM691 -9q-85 0 -121 30t-36 84v6q0 33 15 57t51 37q-26 8 -40.5 29.5t-14.5 54.5v7q0 48 33.5 76.5t112.5 28.5t112.5 -28.5t33.5 -76.5v-7q0 -33 -15 -54.5t-41 -29.5q36 -13 51.5 -37t15.5 -57v-6q0 -54 -36 -84t-121 -30zM691 54
q39 0 55.5 12.5t16.5 43.5v6q0 31 -16.5 43.5t-55.5 12.5t-55.5 -12.5t-16.5 -43.5v-6q0 -31 16.5 -43.5t55.5 -12.5zM691 236q38 0 51 10.5t13 39.5v5q0 29 -13 39.5t-51 10.5t-51 -10.5t-13 -39.5v-5q0 -29 13 -39.5t51 -10.5zM92 288l146 318h-197l14 74h271v-69
l-142 -323h-92z" />
    <glyph glyph-name="partialdiff" unicode="&#x2202;" horiz-adv-x="598" 
d="M282 463q54 0 95 -14.5t62 -48.5q5 29 7.5 54t2.5 46q0 44 -10.5 72.5t-32.5 45.5t-54.5 24t-77.5 7q-33 0 -65.5 -0.5t-82.5 -2.5l31 86q37 2 70 3t50 1q72 0 123.5 -13.5t84 -43t48 -76.5t15.5 -113q0 -54 -9 -121q-15 -104 -33.5 -177t-49 -119.5t-77 -67.5
t-116.5 -21q-50 0 -92 11t-72 34t-46.5 58.5t-16.5 85.5q0 20 3 44q9 68 28.5 115t49.5 76t71.5 42t93.5 13zM139 197q-1 -6 -1 -11.5v-10.5q0 -59 35 -83.5t91 -24.5q31 0 55.5 8t43 29t30.5 56.5t18 90.5q1 7 1 13v11q0 106 -127 106q-32 0 -56 -8t-42 -29t-29.5 -56.5
t-18.5 -90.5z" />
    <glyph glyph-name="uni2206" unicode="&#x2206;" horiz-adv-x="670" 
d="M15 0l262 712h116l262 -712h-640zM154 92h357l-179 522z" />
    <glyph glyph-name="product" unicode="&#x220f;" horiz-adv-x="717" 
d="M684 625h-61v-713h-108v713h-313v-713h-108v713h-79l18 87h669z" />
    <glyph glyph-name="summation" unicode="&#x2211;" horiz-adv-x="546" 
d="M133 7h398l-19 -94h-497v89l220 322l-200 299v89h491l-19 -94h-347l195 -287z" />
    <glyph glyph-name="minus" unicode="&#x2212;" horiz-adv-x="595" 
d="M81 384h432v-87h-432v87z" />
    <glyph glyph-name="uni2215" unicode="&#x2215;" horiz-adv-x="124" 
d="M225 680h94l-420 -680h-94z" />
    <glyph glyph-name="uni2219" unicode="&#x2219;" horiz-adv-x="208" 
d="M173 357q0 -35 -16.5 -52t-52.5 -17t-52.5 17t-16.5 52t16.5 52t52.5 17t52.5 -17t16.5 -52z" />
    <glyph glyph-name="radical" unicode="&#x221a;" horiz-adv-x="625" 
d="M5 347v98l170 88l150 -415l211 761h99l-252 -884h-111l-158 410z" />
    <glyph glyph-name="infinity" unicode="&#x221e;" horiz-adv-x="712" 
d="M122 345q0 -53 20.5 -73.5t52.5 -20.5q34 0 60.5 19.5t56.5 76.5q-15 29 -29 47.5t-28 29.5t-28.5 15.5t-31.5 4.5q-32 0 -52.5 -20.5t-20.5 -73.5v-5zM356 260q-32 -53 -72 -73.5t-93 -20.5q-77 0 -119 46.5t-42 126.5v17q0 80 42 126.5t119 46.5q53 0 93 -20.5
t72 -73.5q32 53 72 73.5t93 20.5q77 0 119 -46.5t42 -126.5v-17q0 -80 -42 -126.5t-119 -46.5q-53 0 -93 20.5t-72 73.5zM590 350q0 53 -20.5 73.5t-52.5 20.5q-34 0 -60.5 -19.5t-56.5 -76.5q15 -29 29 -47.5t28 -29.5t28.5 -15.5t31.5 -4.5q32 0 52.5 20.5t20.5 73.5v5z
" />
    <glyph glyph-name="integral" unicode="&#x222b;" horiz-adv-x="322" 
d="M25 -102q16 -1 36.5 -1.5t34.5 -0.5q41 0 56.5 13.5t15.5 50.5q0 14 -2.5 41t-7.5 51l-94 547l-6 39l-5.5 38t-3.5 33t-1 24q0 73 47.5 109.5t126.5 36.5q20 0 41 -0.5t47 -2.5l-13 -85q-19 1 -41 1.5t-33 0.5q-38 0 -53.5 -13.5t-15.5 -50.5q0 -14 2.5 -41t7.5 -51
l94 -547q3 -17 5.5 -36.5l5 -37.5t3.5 -34t1 -26q0 -73 -46.5 -109.5t-121.5 -36.5q-27 0 -54.5 0.5t-38.5 1.5z" />
    <glyph glyph-name="approxequal" unicode="&#x2248;" horiz-adv-x="595" 
d="M316 477q33 -16 50 -22.5t31 -6.5q17 0 25.5 10.5t8.5 40.5v13h94v-13q0 -83 -28 -117t-77 -34q-29 0 -56.5 10t-61.5 27l-23 11q-33 16 -50 22.5t-31 6.5q-17 0 -25.5 -10.5t-8.5 -40.5v-13h-94v13q0 83 27.5 117t77.5 34q29 0 56.5 -10t61.5 -27zM316 255
q33 -16 50 -22.5t31 -6.5q17 0 25.5 10.5t8.5 40.5v13h94v-13q0 -83 -28 -117t-77 -34q-29 0 -56.5 10t-61.5 27l-23 11q-33 16 -50 22.5t-31 6.5q-17 0 -25.5 -10.5t-8.5 -40.5v-13h-94v13q0 83 27.5 117t77.5 34q29 0 56.5 -10t61.5 -27z" />
    <glyph glyph-name="notequal" unicode="&#x2260;" horiz-adv-x="595" 
d="M81 481h245l50 95h87l-50 -95h100v-87h-146l-57 -107h203v-87h-249l-50 -96h-87l50 96h-96v87h142l57 107h-199v87z" />
    <glyph glyph-name="lessequal" unicode="&#x2264;" horiz-adv-x="595" 
d="M81 88h432v-87h-432v87zM81 391l432 177v-91l-323 -129l323 -125v-96l-432 177v87z" />
    <glyph glyph-name="greaterequal" unicode="&#x2265;" horiz-adv-x="595" 
d="M81 88h432v-87h-432v87zM513 304l-432 -177v96l323 125l-323 129v91l432 -177v-87z" />
    <glyph glyph-name="lozenge" unicode="&#x25ca;" horiz-adv-x="578" 
d="M335 0h-92l-233 356l233 356h92l233 -356zM289 99l165 257l-165 256l-165 -257z" />
    <glyph glyph-name="uniF001" unicode="&#xf001;" horiz-adv-x="535" 
d="M299 658q-42 0 -68.5 -5.5t-41.5 -20.5t-20.5 -42.5t-5.5 -72.5h159l-18 -87h-141v-430h-105v512q0 63 12.5 107.5t41 72t74.5 40.5t113 13h37h31t35.5 -0.5t49.5 -1.5l-18 -87q-14 0 -31.5 0.5l-35.5 1t-35.5 0.5h-32.5zM477 517v-517h-105v517h105z" />
    <glyph glyph-name="uniF002" unicode="&#xf002;" horiz-adv-x="573" 
d="M287 745q22 0 40.5 -0.5t32.5 -1.5l-18 -87q-11 1 -23.5 1.5t-17.5 0.5q-43 0 -70 -5t-42 -20.5t-20.5 -43t-5.5 -72.5h161l-18 -87h-143v-430h-105v512q0 64 11.5 108t38 72t70.5 40.5t109 12.5zM410 743h105v-743h-105v743z" />
    <glyph glyph-name="uniF507" unicode="&#xf507;" horiz-adv-x="880" 
d="M601 680h94l-420 -680h-94zM594 0l146 318h-197l14 74h271v-69l-142 -323h-92zM186 444q-17 -5 -27.5 -10t-15.5 -12.5t-6.5 -19.5t-1.5 -31v-9h198l-12 -74h-273v71q0 67 23.5 101t83.5 51l44 13q31 9 39.5 17.5t8.5 28.5q0 23 -10.5 31t-44.5 8q-43 0 -78.5 -0.5
t-55.5 -1.5l11 72q23 1 52 1.5t65 0.5q81 0 114 -25.5t33 -77.5v-12q0 -41 -18 -65t-71 -40z" />
    <glyph glyph-name="uniF508" unicode="&#xf508;" horiz-adv-x="880" 
d="M587 680h94l-420 -680h-94zM594 0l146 318h-197l14 74h271v-69l-142 -323h-92zM324 574q0 -28 -11 -49t-44 -31q34 -10 49.5 -34t15.5 -53v-9q0 -54 -36.5 -82.5t-118.5 -28.5q-45 0 -75.5 0.5t-58.5 1.5l11 73q25 -1 59 -1.5t76 -0.5q31 0 43 8t12 34v5q0 26 -12 35
t-43 9h-112l11 72h87q38 0 50 9t12 33v5q0 22 -12 29.5t-50 7.5q-29 0 -63 -0.5t-57 -1.5l11 74q32 1 66 1.5t51 0.5q75 0 107 -25.5t32 -76.5v-5z" />
    <glyph glyph-name="uniF509" unicode="&#xf509;" horiz-adv-x="880" 
d="M598 680h94l-420 -680h-94zM594 0l146 318h-197l14 74h271v-69l-142 -323h-92zM123 432h104v102l84 12v-114h50l-14 -67h-36v-77h-84v77h-191v66l139 249h90z" />
    <glyph glyph-name="uniF50A" unicode="&#xf50a;" horiz-adv-x="880" 
d="M587 680h94l-420 -680h-94zM594 0l146 318h-197l14 74h271v-69l-142 -323h-92zM53 459v221h263l-14 -73h-169v-77h65q39 0 65 -6t41.5 -19.5t22 -35t6.5 -52.5v-20q0 -58 -36.5 -84t-117.5 -26h-36.5t-38 0.5t-34.5 1t-27 0.5l14 72q21 -1 53.5 -1.5t78.5 -0.5
q35 0 46.5 9.5t11.5 35.5v10q0 26 -11 35.5t-46 9.5h-137z" />
    <glyph glyph-name="uniF50B" unicode="&#xf50b;" horiz-adv-x="880" 
d="M598 680h94l-420 -680h-94zM594 0l146 318h-197l14 74h271v-69l-142 -323h-92zM301 607q-15 1 -40 1h-45q-55 0 -75.5 -16.5t-20.5 -60.5v-11q14 11 37 18t52 7q68 0 103 -29.5t35 -94.5v-14q0 -128 -154 -128q-76 0 -115.5 33t-39.5 116v89q0 85 41.5 124.5t136.5 39.5
h49.5t48.5 -1zM192 478q-39 0 -55.5 -12.5t-16.5 -49.5v-5q0 -37 15.5 -49.5t55.5 -12.5q41 0 57 12.5t16 49.5v5q0 37 -16 49.5t-56 12.5z" />
    <glyph glyph-name="uniF50D" unicode="&#xf50d;" horiz-adv-x="880" 
d="M612 680h94l-420 -680h-94zM578 74q11 -1 36.5 -1.5t48.5 -0.5q55 0 75.5 16.5t20.5 60.5v11q-14 -11 -37 -18t-52 -7q-66 0 -102 29t-36 95v14q0 67 40 97.5t114 30.5q76 0 115.5 -33t39.5 -116v-89q0 -85 -41.5 -124.5t-136.5 -39.5q-21 0 -49.5 0.5t-48.5 1.5z
M687 202q39 0 55.5 12.5t16.5 49.5v5q0 37 -15.5 49.5t-55.5 12.5q-41 0 -57 -12.5t-16 -49.5v-5q0 -37 16 -49.5t56 -12.5zM186 444q-17 -5 -27.5 -10t-15.5 -12.5t-6.5 -19.5t-1.5 -31v-9h198l-12 -74h-273v71q0 67 23.5 101t83.5 51l44 13q31 9 39.5 17.5t8.5 28.5
q0 23 -10.5 31t-44.5 8q-43 0 -78.5 -0.5t-55.5 -1.5l11 72q23 1 52 1.5t65 0.5q81 0 114 -25.5t33 -77.5v-12q0 -41 -18 -65t-71 -40z" />
    <glyph glyph-name="uniF50E" unicode="&#xf50e;" horiz-adv-x="880" 
d="M609 680h94l-420 -680h-94zM578 74q11 -1 36.5 -1.5t48.5 -0.5q55 0 75.5 16.5t20.5 60.5v11q-14 -11 -37 -18t-52 -7q-66 0 -102 29t-36 95v14q0 67 40 97.5t114 30.5q76 0 115.5 -33t39.5 -116v-89q0 -85 -41.5 -124.5t-136.5 -39.5q-21 0 -49.5 0.5t-48.5 1.5z
M687 202q39 0 55.5 12.5t16.5 49.5v5q0 37 -15.5 49.5t-55.5 12.5q-41 0 -57 -12.5t-16 -49.5v-5q0 -37 16 -49.5t56 -12.5zM123 432h104v102l84 12v-114h50l-14 -67h-36v-77h-84v77h-191v66l139 249h90z" />
    <glyph glyph-name="uniF50F" unicode="&#xf50f;" horiz-adv-x="880" 
d="M594 680h94l-420 -680h-94zM578 74q11 -1 36.5 -1.5t48.5 -0.5q55 0 75.5 16.5t20.5 60.5v11q-14 -11 -37 -18t-52 -7q-66 0 -102 29t-36 95v14q0 67 40 97.5t114 30.5q76 0 115.5 -33t39.5 -116v-89q0 -85 -41.5 -124.5t-136.5 -39.5q-21 0 -49.5 0.5t-48.5 1.5z
M687 202q39 0 55.5 12.5t16.5 49.5v5q0 37 -15.5 49.5t-55.5 12.5q-41 0 -57 -12.5t-16 -49.5v-5q0 -37 16 -49.5t56 -12.5zM53 459v221h263l-14 -73h-169v-77h65q39 0 65 -6t41.5 -19.5t22 -35t6.5 -52.5v-20q0 -58 -36.5 -84t-117.5 -26h-36.5t-38 0.5t-34.5 1t-27 0.5
l14 72q21 -1 53.5 -1.5t78.5 -0.5q35 0 46.5 9.5t11.5 35.5v10q0 26 -11 35.5t-46 9.5h-137z" />
    <glyph glyph-name="uniF510" unicode="&#xf510;" horiz-adv-x="880" 
d="M555 680h94l-420 -680h-94zM578 74q11 -1 36.5 -1.5t48.5 -0.5q55 0 75.5 16.5t20.5 60.5v11q-14 -11 -37 -18t-52 -7q-66 0 -102 29t-36 95v14q0 67 40 97.5t114 30.5q76 0 115.5 -33t39.5 -116v-89q0 -85 -41.5 -124.5t-136.5 -39.5q-21 0 -49.5 0.5t-48.5 1.5z
M687 202q39 0 55.5 12.5t16.5 49.5v5q0 37 -15.5 49.5t-55.5 12.5q-41 0 -57 -12.5t-16 -49.5v-5q0 -37 16 -49.5t56 -12.5zM92 288l146 318h-197l14 74h271v-69l-142 -323h-92z" />
    <glyph glyph-name="uniF511" unicode="&#xf511;" horiz-adv-x="880" 
d="M601 680h94l-420 -680h-94zM578 74q11 -1 36.5 -1.5t48.5 -0.5q55 0 75.5 16.5t20.5 60.5v11q-14 -11 -37 -18t-52 -7q-66 0 -102 29t-36 95v14q0 67 40 97.5t114 30.5q76 0 115.5 -33t39.5 -116v-89q0 -85 -41.5 -124.5t-136.5 -39.5q-21 0 -49.5 0.5t-48.5 1.5z
M687 202q39 0 55.5 12.5t16.5 49.5v5q0 37 -15.5 49.5t-55.5 12.5q-41 0 -57 -12.5t-16 -49.5v-5q0 -37 16 -49.5t56 -12.5zM189 279q-85 0 -121 30t-36 84v6q0 33 15 57t51 37q-26 8 -40.5 29.5t-14.5 54.5v7q0 48 33.5 76.5t112.5 28.5t112.5 -28.5t33.5 -76.5v-7
q0 -33 -15 -54.5t-41 -29.5q36 -13 51.5 -37t15.5 -57v-6q0 -54 -36 -84t-121 -30zM189 342q39 0 55.5 12.5t16.5 43.5v6q0 31 -16.5 43.5t-55.5 12.5t-55.5 -12.5t-16.5 -43.5v-6q0 -31 16.5 -43.5t55.5 -12.5zM189 524q38 0 51 10.5t13 39.5v5q0 29 -13 39.5t-51 10.5
t-51 -10.5t-13 -39.5v-5q0 -29 13 -39.5t51 -10.5z" />
    <glyph glyph-name="uniF6C3" unicode="&#xf6c3;" horiz-adv-x="500" 
d="M190 -110q0 25 16.5 40t44.5 15q31 0 45.5 -15.5t14.5 -38.5q0 -14 -3.5 -25.5t-11.5 -28.5l-35 -72h-71l28 78q-28 12 -28 47z" />
    <glyph glyph-name="uniF800" unicode="&#xf800;" horiz-adv-x="595" 
d="M298 72q44 0 72.5 9t44.5 34t22 70t6 116v77q0 72 -6 117t-22 70t-44.5 34t-72.5 9t-72 -9t-44 -34t-22 -70t-6 -117v-77q0 -71 6 -116t22 -70t44 -34t72 -9zM298 696q81 0 131 -21t77.5 -60.5t37 -97t9.5 -129.5v-96q0 -72 -9.5 -129t-37 -97t-77.5 -61t-131 -21
t-130.5 21t-77 61t-37 97t-9.5 129v96q0 72 9.5 129.5t37 97t77 60.5t130.5 21z" />
    <glyph glyph-name="uniF801" unicode="&#xf801;" horiz-adv-x="595" 
d="M480 0h-351l17 84h114v512h-135l17 84h225v-596h130z" />
    <glyph glyph-name="uniF802" unicode="&#xf802;" horiz-adv-x="595" 
d="M254 255q-24 -10 -38.5 -20t-22.5 -24.5t-11 -35.5t-3 -53v-32h335l-16 -90h-426v103q0 51 8 89.5t26 67t46.5 49.5t70.5 38l117 49q19 8 32.5 16.5t21 19.5t11 26.5t3.5 38.5q0 54 -21.5 74.5t-79.5 20.5q-55 0 -110.5 -0.5t-107.5 -1.5l14 90q55 1 108.5 1.5t91.5 0.5
q58 0 98.5 -11.5t65.5 -34t36.5 -54.5t11.5 -74v-13q0 -69 -30 -113t-95 -70z" />
    <glyph glyph-name="uniF803" unicode="&#xf803;" horiz-adv-x="595" 
d="M91 680q49 1 103.5 1.5t108.5 0.5q50 0 87.5 -12.5t62.5 -34.5t37.5 -52t12.5 -66v-20q0 -64 -23.5 -95t-68.5 -47q55 -14 81.5 -49.5t26.5 -98.5v-29q0 -84 -56.5 -132t-174.5 -48q-58 0 -118.5 0.5t-108.5 1.5l17 90q19 0 46.5 -0.5t58 -0.5t63 -0.5t61.5 -0.5
q52 0 77 22.5t25 70.5v24q0 54 -26 76.5t-86 22.5h-187l17 90h173q46 0 71 20t25 62v24q0 49 -22.5 70.5t-73.5 21.5h-115.5t-110.5 -2z" />
    <glyph glyph-name="uniF804" unicode="&#xf804;" horiz-adv-x="595" 
d="M549 136h-65v-136h-103v136h-331v79l273 465h106l-269 -458h221v220l103 19v-239h83z" />
    <glyph glyph-name="uniF805" unicode="&#xf805;" horiz-adv-x="595" 
d="M516 199q0 -53 -12.5 -91t-41.5 -62.5t-76 -36t-116 -11.5q-56 0 -109 0.5t-85 1.5l17 91q26 -1 48 -1.5l42.5 -1t41.5 -0.5h45q40 0 66.5 5t42 18t22 35.5t6.5 57.5v19q0 36 -6 58t-21.5 34.5t-42 16.5t-67.5 4h-178v344h397l-17 -90h-281v-168h95q64 0 108 -10t71 -33
t39 -61t12 -95v-24z" />
    <glyph glyph-name="uniF806" unicode="&#xf806;" horiz-adv-x="595" 
d="M174 404q23 20 57.5 31.5t87.5 11.5q57 0 98 -12t67.5 -38t39 -68.5t12.5 -102.5v-21q0 -108 -54.5 -164.5t-178.5 -56.5q-64 0 -108.5 14t-72 45t-39.5 80.5t-12 121.5v156q0 58 8.5 109t33.5 89t71 60.5t120 22.5q52 0 95 -0.5t93 -1.5l-17 -90q-30 1 -53 1.5t-43 0.5
h-39h-41q-42 0 -66.5 -13t-37.5 -35t-17 -50t-4 -59v-31zM303 67q36 0 60.5 6.5t39.5 23t21.5 44t6.5 70.5v9q0 44 -6 72t-19.5 44t-36 22t-55.5 6q-38 0 -65 -5.5t-43.5 -21.5t-24 -44t-7.5 -74v-9q0 -42 7.5 -69.5t23 -44t40 -23t58.5 -6.5z" />
    <glyph glyph-name="uniF807" unicode="&#xf807;" horiz-adv-x="595" 
d="M183 0l230 590h-346l18 90h439v-84l-227 -596h-114z" />
    <glyph glyph-name="uniF808" unicode="&#xf808;" horiz-adv-x="595" 
d="M295 696q122 0 174.5 -43.5t52.5 -135.5v-15q0 -51 -23 -88t-66 -57q54 -19 78.5 -58t24.5 -96v-28q0 -102 -59 -146.5t-182 -44.5t-182 44.5t-59 146.5v28q0 57 24.5 96t78.5 58q-43 20 -66 57t-23 88v15q0 93 53 136t174 43zM295 316q-41 0 -67 -7t-41 -22t-21 -38
t-6 -55v-6q0 -32 5.5 -55t20.5 -37.5t41.5 -21.5t67.5 -7t67.5 7t41.5 21.5t20.5 37.5t5.5 55v6q0 32 -6 55t-21 38t-41 22t-67 7zM296 618q-70 0 -98.5 -22.5t-28.5 -78.5v-15q0 -31 6 -51.5t20.5 -32.5t39 -17t60.5 -5t60.5 5t39 17t20.5 32.5t6 51.5v15q0 55 -26.5 78
t-98.5 23z" />
    <glyph glyph-name="uniF809" unicode="&#xf809;" horiz-adv-x="595" 
d="M421 275q-47 -42 -145 -42q-57 0 -98 12t-67.5 38t-39 68.5t-12.5 102.5v21q0 112 54.5 166.5t178.5 54.5q64 0 108 -14t71.5 -44.5t40 -80.5t12.5 -122v-156q0 -58 -8.5 -109t-33.5 -89.5t-71 -60.5t-120 -22q-54 0 -104.5 0.5t-83.5 1.5l17 90q30 -1 53.5 -1.5
t43.5 -0.5h38.5h40.5q42 0 66.5 13t37.5 34.5t17 50t4 59.5v30zM292 613q-36 0 -60.5 -6.5t-39.5 -23t-21.5 -44t-6.5 -70.5v-9q0 -44 6 -72t19.5 -44t36 -22t55.5 -6q38 0 65 5.5t43.5 21t24 44t7.5 74.5v9q0 42 -7.5 69.5t-23 44t-40 23t-58.5 6.5z" />
    <glyph glyph-name="uniF80A" unicode="&#xf80a;" 
d="M189 473q28 0 44.5 6t24.5 20t10.5 38t2.5 60v14q0 36 -2.5 60t-10.5 38t-24.5 20t-44.5 6t-44.5 -6t-24.5 -20t-10.5 -38t-2.5 -60v-14q0 -36 2.5 -60t10.5 -38t24.5 -20t44.5 -6zM189 399q-55 0 -88.5 13t-52 37.5t-24.5 59t-6 77.5v36q0 43 6 77.5t24.5 59t52 37.5
t88.5 13t88.5 -13t52 -37.5t24.5 -59t6 -77.5v-36q0 -43 -6 -77.5t-24.5 -59t-52 -37.5t-88.5 -13z" />
    <glyph glyph-name="uniF80B" unicode="&#xf80b;" 
d="M343 482l-12 -74h-262l12 74h82v248h-93l14 70h166v-318h93z" />
    <glyph glyph-name="uniF80C" unicode="&#xf80c;" 
d="M186 564q-17 -5 -27.5 -10t-15.5 -12.5t-6.5 -19.5t-1.5 -31v-9h198l-12 -74h-273v71q0 67 23.5 101t83.5 51l44 13q31 9 39.5 17.5t8.5 28.5q0 23 -10.5 31t-44.5 8q-43 0 -78.5 -0.5t-55.5 -1.5l11 72q23 1 52 1.5t65 0.5q81 0 114 -25.5t33 -77.5v-12q0 -41 -18 -65
t-71 -40z" />
    <glyph glyph-name="uniF80D" unicode="&#xf80d;" 
d="M324 694q0 -28 -11 -49t-44 -31q34 -10 49.5 -34t15.5 -53v-9q0 -54 -36.5 -82.5t-118.5 -28.5q-45 0 -75.5 0.5t-58.5 1.5l11 73q25 -1 59 -1.5t76 -0.5q31 0 43 8t12 34v5q0 26 -12 35t-43 9h-112l11 72h87q38 0 50 9t12 33v5q0 22 -12 29.5t-50 7.5q-29 0 -63 -0.5
t-57 -1.5l11 74q32 1 66 1.5t51 0.5q75 0 107 -25.5t32 -76.5v-5z" />
    <glyph glyph-name="uniF80E" unicode="&#xf80e;" 
d="M123 552h104v102l84 12v-114h50l-14 -67h-36v-77h-84v77h-191v66l139 249h90z" />
    <glyph glyph-name="uniF80F" unicode="&#xf80f;" 
d="M53 579v221h263l-14 -73h-169v-77h65q39 0 65 -6t41.5 -19.5t22 -35t6.5 -52.5v-20q0 -58 -36.5 -84t-117.5 -26h-36.5t-38 0.5t-34.5 1t-27 0.5l14 72q21 -1 53.5 -1.5t78.5 -0.5q35 0 46.5 9.5t11.5 35.5v10q0 26 -11 35.5t-46 9.5h-137z" />
    <glyph glyph-name="uniF810" unicode="&#xf810;" 
d="M301 727q-15 1 -40 1h-45q-55 0 -75.5 -16.5t-20.5 -60.5v-11q14 11 37 18t52 7q68 0 103 -29.5t35 -94.5v-14q0 -128 -154 -128q-76 0 -115.5 33t-39.5 116v89q0 85 41.5 124.5t136.5 39.5h49.5t48.5 -1zM192 598q-39 0 -55.5 -12.5t-16.5 -49.5v-5q0 -37 15.5 -49.5
t55.5 -12.5q41 0 57 12.5t16 49.5v5q0 37 -16 49.5t-56 12.5z" />
    <glyph glyph-name="uniF811" unicode="&#xf811;" 
d="M92 408l146 318h-197l14 74h271v-69l-142 -323h-92z" />
    <glyph glyph-name="uniF812" unicode="&#xf812;" 
d="M189 399q-85 0 -121 30t-36 84v6q0 33 15 57t51 37q-26 8 -40.5 29.5t-14.5 54.5v7q0 48 33.5 76.5t112.5 28.5t112.5 -28.5t33.5 -76.5v-7q0 -33 -15 -54.5t-41 -29.5q36 -13 51.5 -37t15.5 -57v-6q0 -54 -36 -84t-121 -30zM189 462q39 0 55.5 12.5t16.5 43.5v6
q0 31 -16.5 43.5t-55.5 12.5t-55.5 -12.5t-16.5 -43.5v-6q0 -31 16.5 -43.5t55.5 -12.5zM189 644q38 0 51 10.5t13 39.5v5q0 29 -13 39.5t-51 10.5t-51 -10.5t-13 -39.5v-5q0 -29 13 -39.5t51 -10.5z" />
    <glyph glyph-name="uniF813" unicode="&#xf813;" 
d="M76 482q11 -1 36.5 -1.5t48.5 -0.5q55 0 75.5 16.5t20.5 60.5v11q-14 -11 -37 -18t-52 -7q-66 0 -102 29t-36 95v14q0 67 40 97.5t114 30.5q76 0 115.5 -33t39.5 -116v-89q0 -85 -41.5 -124.5t-136.5 -39.5q-21 0 -49.5 0.5t-48.5 1.5zM185 610q39 0 55.5 12.5t16.5 49.5
v5q0 37 -15.5 49.5t-55.5 12.5q-41 0 -57 -12.5t-16 -49.5v-5q0 -37 16 -49.5t56 -12.5z" />
    <glyph glyph-name="uniF814" unicode="&#xf814;" 
d="M189 -54q28 0 44.5 6t24.5 20t10.5 38t2.5 60v14q0 36 -2.5 60t-10.5 38t-24.5 20t-44.5 6t-44.5 -6t-24.5 -20t-10.5 -38t-2.5 -60v-14q0 -36 2.5 -60t10.5 -38t24.5 -20t44.5 -6zM189 -128q-55 0 -88.5 13t-52 37.5t-24.5 59t-6 77.5v36q0 43 6 77.5t24.5 59t52 37.5
t88.5 13t88.5 -13t52 -37.5t24.5 -59t6 -77.5v-36q0 -43 -6 -77.5t-24.5 -59t-52 -37.5t-88.5 -13z" />
    <glyph glyph-name="uniF815" unicode="&#xf815;" 
d="M343 -45l-12 -74h-262l12 74h82v248h-93l14 70h166v-318h93z" />
    <glyph glyph-name="uniF816" unicode="&#xf816;" 
d="M186 37q-17 -5 -27.5 -10t-15.5 -12.5t-6.5 -19.5t-1.5 -31v-9h198l-12 -74h-273v71q0 67 23.5 101t83.5 51l44 13q31 9 39.5 17.5t8.5 28.5q0 23 -10.5 31t-44.5 8q-43 0 -78.5 -0.5t-55.5 -1.5l11 72q23 1 52 1.5t65 0.5q81 0 114 -25.5t33 -77.5v-12q0 -41 -18 -65
t-71 -40z" />
    <glyph glyph-name="uniF817" unicode="&#xf817;" 
d="M324 167q0 -28 -11 -49t-44 -31q34 -10 49.5 -34t15.5 -53v-9q0 -54 -36.5 -82.5t-118.5 -28.5q-45 0 -75.5 0.5t-58.5 1.5l11 73q25 -1 59 -1.5t76 -0.5q31 0 43 8t12 34v5q0 26 -12 35t-43 9h-112l11 72h87q38 0 50 9t12 33v5q0 22 -12 29.5t-50 7.5q-29 0 -63 -0.5
t-57 -1.5l11 74q32 1 66 1.5t51 0.5q75 0 107 -25.5t32 -76.5v-5z" />
    <glyph glyph-name="uniF818" unicode="&#xf818;" 
d="M123 25h104v102l84 12v-114h50l-14 -67h-36v-77h-84v77h-191v66l139 249h90z" />
    <glyph glyph-name="uniF819" unicode="&#xf819;" 
d="M53 52v221h263l-14 -73h-169v-77h65q39 0 65 -6t41.5 -19.5t22 -35t6.5 -52.5v-20q0 -58 -36.5 -84t-117.5 -26h-36.5t-38 0.5t-34.5 1t-27 0.5l14 72q21 -1 53.5 -1.5t78.5 -0.5q35 0 46.5 9.5t11.5 35.5v10q0 26 -11 35.5t-46 9.5h-137z" />
    <glyph glyph-name="uniF81A" unicode="&#xf81a;" 
d="M301 200q-15 1 -40 1h-45q-55 0 -75.5 -16.5t-20.5 -60.5v-11q14 11 37 18t52 7q68 0 103 -29.5t35 -94.5v-14q0 -128 -154 -128q-76 0 -115.5 33t-39.5 116v89q0 85 41.5 124.5t136.5 39.5h49.5t48.5 -1zM192 71q-39 0 -55.5 -12.5t-16.5 -49.5v-5q0 -37 15.5 -49.5
t55.5 -12.5q41 0 57 12.5t16 49.5v5q0 37 -16 49.5t-56 12.5z" />
    <glyph glyph-name="uniF81B" unicode="&#xf81b;" 
d="M92 -119l146 318h-197l14 74h271v-69l-142 -323h-92z" />
    <glyph glyph-name="uniF81C" unicode="&#xf81c;" 
d="M189 -128q-85 0 -121 30t-36 84v6q0 33 15 57t51 37q-26 8 -40.5 29.5t-14.5 54.5v7q0 48 33.5 76.5t112.5 28.5t112.5 -28.5t33.5 -76.5v-7q0 -33 -15 -54.5t-41 -29.5q36 -13 51.5 -37t15.5 -57v-6q0 -54 -36 -84t-121 -30zM189 -65q39 0 55.5 12.5t16.5 43.5v6
q0 31 -16.5 43.5t-55.5 12.5t-55.5 -12.5t-16.5 -43.5v-6q0 -31 16.5 -43.5t55.5 -12.5zM189 117q38 0 51 10.5t13 39.5v5q0 29 -13 39.5t-51 10.5t-51 -10.5t-13 -39.5v-5q0 -29 13 -39.5t51 -10.5z" />
    <glyph glyph-name="uniF81D" unicode="&#xf81d;" 
d="M76 -45q11 -1 36.5 -1.5t48.5 -0.5q55 0 75.5 16.5t20.5 60.5v11q-14 -11 -37 -18t-52 -7q-66 0 -102 29t-36 95v14q0 67 40 97.5t114 30.5q76 0 115.5 -33t39.5 -116v-89q0 -85 -41.5 -124.5t-136.5 -39.5q-21 0 -49.5 0.5t-48.5 1.5zM185 83q39 0 55.5 12.5t16.5 49.5
v5q0 37 -15.5 49.5t-55.5 12.5q-41 0 -57 -12.5t-16 -49.5v-5q0 -37 16 -49.5t56 -12.5z" />
    <glyph glyph-name="i.locl" horiz-adv-x="221" 
d="M58 517h105v-517h-105v517zM176 670q0 -35 -15.5 -50.5t-50.5 -15.5t-50.5 15.5t-15.5 50.5t15.5 50.5t50.5 15.5t50.5 -15.5t15.5 -50.5z" />
    <glyph glyph-name="glyph469" horiz-adv-x="500" 
d="M277 892l-131 -119h-109l108 119h132zM463 892l-131 -119h-109l108 119h132z" />
    <glyph glyph-name="glyph470" horiz-adv-x="500" 
d="M231 -95h-27t-28 -1l17 61q10 1 31 1h35q54 0 75 -18.5t21 -58.5v-10q0 -45 -25.5 -63t-90.5 -18q-54 0 -94 3l20 62q14 -1 34 -1.5t32 -0.5q17 0 23 4.5t6 18.5q0 13 -6 17t-23 4z" />
    <glyph glyph-name="glyph471" horiz-adv-x="500" 
d="M235 792q-18 7 -33.5 12t-26.5 5t-17.5 -5t-6.5 -25v-16h-74v17q0 63 23.5 87t58.5 24q17 0 38.5 -5t50.5 -16l17 -6l37.5 -13t22.5 -4t17.5 5t6.5 25v16h74v-17q0 -63 -23.5 -87t-58.5 -24q-17 0 -38.5 5t-50.5 16z" />
    <glyph glyph-name="glyph472" horiz-adv-x="500" 
d="M312 -194h-58q-44 0 -67.5 15t-23.5 56q0 31 23.5 67.5t71.5 68.5l72 -13q-42 -32 -60.5 -54t-18.5 -41q0 -11 6.5 -15.5t26.5 -4.5h45z" />
    <glyph glyph-name="glyph473" horiz-adv-x="500" 
d="M121 845q0 62 33.5 91.5t95.5 29.5t95.5 -29.5t33.5 -91.5t-33.5 -91.5t-95.5 -29.5t-95.5 29.5t-33.5 91.5zM308 845q0 35 -12.5 46.5t-45.5 11.5t-45.5 -11.5t-12.5 -46.5t12.5 -46.5t45.5 -11.5t45.5 11.5t12.5 46.5z" />
    <glyph glyph-name="glyph474" horiz-adv-x="500" 
d="M182 891l69 -63l70 63h106l-117 -118h-117l-117 118h106z" />
    <glyph glyph-name="glyph475" horiz-adv-x="500" 
d="M105 872h289v-81h-289v81z" />
    <glyph glyph-name="glyph476" horiz-adv-x="500" 
d="M217 831q0 -32 -14 -46t-46 -14t-46 14t-14 46t14 46t46 14t46 -14t14 -46zM403 831q0 -32 -14 -46t-46 -14t-46 14t-14 46t14 46t46 14t46 -14t14 -46z" />
    <glyph glyph-name="glyph477" horiz-adv-x="500" 
d="M316 828q0 -35 -15.5 -50.5t-50.5 -15.5t-50.5 15.5t-15.5 50.5t15.5 50.5t50.5 15.5t50.5 -15.5t15.5 -50.5z" />
    <glyph glyph-name="glyph478" horiz-adv-x="500" 
d="M254 836l-69 -63h-106l117 118h117l117 -118h-106z" />
    <glyph glyph-name="glyph479" horiz-adv-x="500" 
d="M373 892l-137 -119h-109l114 119h132z" />
    <glyph glyph-name="glyph480" horiz-adv-x="500" 
d="M259 892l114 -119h-109l-137 119h132z" />
    <glyph glyph-name="glyph481" horiz-adv-x="500" 
d="M250 768q-84 0 -120.5 32t-37.5 102h93q0 -32 14 -47.5t51 -15.5t51 15.5t14 47.5h93q-1 -70 -37.5 -102t-120.5 -32z" />
    <glyph glyph-name="glyph482" horiz-adv-x="500" 
d="M191 -235l28 77q-14 5 -21 18t-7 30q0 23 15 39t47 16q31 0 45 -15t14 -38q0 -13 -4 -25.5t-12 -29.5l-34 -72h-71z" />
    <glyph glyph-name="glyph483" horiz-adv-x="500" 
d="M309 743l-30 -193h-77l7 193h100z" />
    <glyph glyph-name="glyph485" horiz-adv-x="500" 
d="M310 784l-28 -77q14 -5 21 -18t7 -30q0 -23 -15 -39t-47 -16q-31 0 -45 15t-14 38q0 13 4 25.5t12 29.5l34 72h71z" />
    <glyph glyph-name="glyph486" horiz-adv-x="500" 
d="M380 876l-154 -104h-106l127 104h133z" />
    <glyph glyph-name="glyph487" horiz-adv-x="500" 
d="M249 831l-63 -59h-99l107 113h111l107 -113h-99z" />
    <glyph glyph-name="glyph488" horiz-adv-x="500" 
d="M301 743l-30 -181h-72l6 181h96z" />
    <glyph glyph-name="parenleft.case" horiz-adv-x="356" 
d="M320 -88h-18q-67 0 -112.5 13t-73 50.5t-39.5 105.5t-12 177v195q0 109 12 177t39.5 105.5t73 50.5t112.5 13h36l-18 -88h-15q-45 0 -73 -7.5t-43 -33.5t-20.5 -77.5t-5.5 -139.5v-195q0 -88 5.5 -139.5t20.5 -77.5t43 -33.5t73 -7.5h33z" />
    <glyph glyph-name="parenright.case" horiz-adv-x="356" 
d="M36 799h18q67 0 112.5 -13t73 -50.5t39.5 -105.5t12 -177v-195q0 -109 -12 -177t-39.5 -105.5t-73 -50.5t-112.5 -13h-36l18 88h15q45 0 73 7.5t43 33.5t20.5 77.5t5.5 139.5v195q0 88 -5.5 139.5t-20.5 77.5t-43 33.5t-73 7.5h-33z" />
    <glyph glyph-name="hyphen.case" horiz-adv-x="338" 
d="M20 309l19 94h279l-19 -94h-279z" />
    <glyph glyph-name="slash.case" horiz-adv-x="401" 
d="M381 712l-255 -712h-106l255 712h106z" />
    <glyph glyph-name="at.case" horiz-adv-x="722" 
d="M672 279q0 -45 -20 -64t-78 -19h-137q-44 0 -79 8t-59 26t-36.5 47t-12.5 71v25q0 83 48.5 119t138.5 36q48 0 81.5 -8.5t53.5 -20.5v18q0 42 -10 68.5t-32.5 42.5t-57.5 22t-84 6q-72 0 -119 -11.5t-74 -37t-37.5 -66.5t-10.5 -101v-150q0 -69 12 -114.5t45.5 -72
t92.5 -37t153 -10.5h35t43 0.5l43 1t36 1.5l-17 -86q-16 -1 -35.5 -2t-39 -1.5t-37.5 -0.5h-31q-117 0 -193.5 15.5t-121.5 53t-63.5 99t-18.5 153.5v150q0 79 18.5 136t58.5 94t104 54.5t156 17.5q146 0 215.5 -52.5t69.5 -172.5v-238zM572 282v92q0 21 -5 34.5t-18 21.5
t-35.5 11.5t-56.5 3.5q-35 0 -56.5 -3.5t-33.5 -11.5t-16 -21.5t-4 -34.5v-19q0 -40 19.5 -56.5t69.5 -16.5h136z" />
    <glyph glyph-name="bracketleft.case" horiz-adv-x="352" 
d="M331 799l-19 -90h-142v-707h161l-19 -90h-240v887h259z" />
    <glyph glyph-name="backslash.case" horiz-adv-x="401" 
d="M130 712l251 -712h-110l-251 712h110z" />
    <glyph glyph-name="bracketright.case" horiz-adv-x="352" 
d="M21 -88l19 90h142v707h-161l19 90h240v-887h-259z" />
    <glyph glyph-name="braceleft.case" horiz-adv-x="367" 
d="M353 799l-19 -88h-58q-23 0 -38 -5t-23.5 -14.5t-11.5 -23t-3 -30.5v-186q0 -26 -11.5 -52t-45.5 -44q34 -18 45.5 -44t11.5 -52v-187q0 -17 3 -30.5t11.5 -23t23.5 -14.5t38 -5h77l-19 -88h-55q-54 0 -88.5 11.5t-54 31t-26.5 45t-7 54.5v197q0 24 -14 42.5t-59 18.5
h-15v88h15q45 0 59 18.5t14 42.5v196q0 28 7 54t26.5 45.5t54 31t88.5 11.5h74z" />
    <glyph glyph-name="braceright.case" horiz-adv-x="367" 
d="M14 -88l19 88h58q46 0 61 19.5t15 53.5v187q0 26 11.5 52t45.5 44q-34 18 -45.5 44t-11.5 52v186q0 34 -15 53.5t-61 19.5h-77l19 88h55q54 0 88.5 -11.5t54 -31t26.5 -45.5t7 -54v-196q0 -24 14 -42.5t59 -18.5h15v-88h-15q-45 0 -59 -18.5t-14 -42.5v-197
q0 -29 -7 -54.5t-26.5 -45t-54 -31t-88.5 -11.5h-74z" />
    <glyph glyph-name="guilsinglleft.case" horiz-adv-x="313" 
d="M40 411l233 170v-112l-156 -113l156 -112v-112l-233 170v109z" />
    <glyph glyph-name="bullet.case" horiz-adv-x="420" 
d="M335 356q0 -63 -28.5 -94t-96.5 -31t-96.5 31t-28.5 94t28.5 94t96.5 31t96.5 -31t28.5 -94z" />
    <glyph glyph-name="endash.case" horiz-adv-x="500" 
d="M0 402h500v-93h-500v93z" />
    <glyph glyph-name="emdash.case" horiz-adv-x="1000" 
d="M0 402h1000v-93h-1000v93z" />
    <glyph glyph-name="guilsinglright.case" horiz-adv-x="313" 
d="M273 302l-233 -170v112l156 112l-156 113v112l233 -170v-109z" />
    <glyph glyph-name="exclamdown.case" horiz-adv-x="236" 
d="M170 310q2 -22 2 -43v-46v-221h-108v221v46t2 43l11 203h81zM50 652q0 35 16 51.5t52 16.5t52 -16.5t16 -51.5t-16 -51.5t-52 -16.5t-52 16.5t-16 51.5z" />
    <glyph glyph-name="guillemotleft.case" horiz-adv-x="560" 
d="M40 408l219 173v-112l-144 -113l144 -112v-112l-219 173v103zM301 408l219 173v-112l-144 -113l144 -112v-112l-219 173v103z" />
    <glyph glyph-name="guillemotright.case" horiz-adv-x="560" 
d="M520 305l-219 -173v112l144 112l-144 113v112l219 -173v-103zM259 305l-219 -173v112l144 112l-144 113v112l219 -173v-103z" />
    <glyph glyph-name="questiondown.case" horiz-adv-x="459" 
d="M204 295q-19 -9 -31 -18t-19.5 -20.5t-10.5 -27t-3 -37.5q0 -28 4 -48t15.5 -33t31 -19.5t51.5 -6.5q25 0 57.5 0.5t63.5 0.5t55 0.5t31 0.5l-14 -87q-4 0 -25 -0.5t-49.5 -0.5t-59.5 -0.5t-55 -0.5q-111 0 -161 43t-50 129v26q0 35 7 61t21 45.5t35 34.5t50 28l50 23
q18 8 28.5 16t16 18.5t7.5 25.5t2 39v27h103v-27q0 -38 -6.5 -64.5t-19.5 -45.5t-32.5 -33t-44.5 -26zM236 650q0 35 16 51.5t52 16.5t52 -16.5t16 -51.5t-16 -51.5t-52 -16.5t-52 16.5t-16 51.5z" />
    </font>
</defs>
</svg>
